<svg width="15" height="15" viewBox="0 0 15 15" fill="none" xmlns="http://www.w3.org/2000/svg">
<path fill-rule="evenodd" clip-rule="evenodd" d="M7.49994 2.34375L12.0462 2.47187C12.4348 2.48291 12.8063 2.63372 13.0926 2.89663C13.379 3.15954 13.5609 3.51691 13.6049 3.90313C13.8073 5.67027 13.8073 7.45473 13.6049 9.22188C13.5609 9.60809 13.379 9.96546 13.0926 10.2284C12.8063 10.4913 12.4348 10.6421 12.0462 10.6531L8.28119 10.7594V12.0313H10.6249C10.7493 12.0313 10.8685 12.0806 10.9564 12.1685C11.0443 12.2565 11.0937 12.3757 11.0937 12.5C11.0937 12.6243 11.0443 12.7435 10.9564 12.8315C10.8685 12.9194 10.7493 12.9688 10.6249 12.9688H4.37494C4.25062 12.9688 4.13139 12.9194 4.04348 12.8315C3.95557 12.7435 3.90619 12.6243 3.90619 12.5C3.90619 12.3757 3.95557 12.2565 4.04348 12.1685C4.13139 12.0806 4.25062 12.0313 4.37494 12.0313H6.71869V10.7594L2.95369 10.6531C2.56512 10.6421 2.19356 10.4913 1.90723 10.2284C1.6209 9.96546 1.43901 9.60809 1.39494 9.22188C1.19257 7.45473 1.19257 5.67027 1.39494 3.90313C1.43901 3.51691 1.6209 3.15954 1.90723 2.89663C2.19356 2.63372 2.56512 2.48291 2.95369 2.47187L7.49994 2.34375ZM3.12494 8.59375C3.00062 8.59375 2.88139 8.64314 2.79348 8.73104C2.70557 8.81895 2.65619 8.93818 2.65619 9.0625C2.65619 9.18682 2.70557 9.30605 2.79348 9.39396C2.88139 9.48186 3.00062 9.53125 3.12494 9.53125H11.8749C11.9993 9.53125 12.1185 9.48186 12.2064 9.39396C12.2943 9.30605 12.3437 9.18682 12.3437 9.0625C12.3437 8.93818 12.2943 8.81895 12.2064 8.73104C12.1185 8.64314 11.9993 8.59375 11.8749 8.59375H3.12494Z" fill="white"/>
</svg>
