<svg width="49" height="49" viewBox="0 0 49 49" fill="none" xmlns="http://www.w3.org/2000/svg">
<g clip-path="url(#clip0_534_2073)">
<path d="M48.1671 24.0837C48.1671 30.4711 45.6298 36.5968 41.1132 41.1134C36.5967 45.6299 30.4709 48.1673 24.0836 48.1673C17.6962 48.1673 11.5705 45.6299 7.05391 41.1134C2.53737 36.5968 0 30.4711 0 24.0837C0 17.6964 2.53737 11.5706 7.05391 7.05408C11.5705 2.53754 17.6962 0.000171661 24.0836 0.000171661C30.4709 0.000171661 36.5967 2.53754 41.1132 7.05408C45.6298 11.5706 48.1671 17.6964 48.1671 24.0837ZM24.9476 17.7799C22.6034 18.7552 17.9212 20.7722 10.9008 23.8309C9.76287 24.2824 9.1658 24.726 9.10961 25.1615C9.01929 25.893 9.93748 26.182 11.1868 26.5764L11.7136 26.742C12.9419 27.1423 14.5976 27.609 15.4556 27.627C16.2383 27.6471 17.1094 27.326 18.0687 26.6637C24.6295 22.2363 28.0152 19.9986 28.2259 19.9504C28.3765 19.9143 28.5872 19.8721 28.7257 19.9986C28.8641 20.125 28.8521 20.3598 28.8371 20.423C28.7467 20.8114 25.1432 24.159 23.2798 25.893C22.6988 26.4349 22.2863 26.8172 22.202 26.9045C22.0165 27.0943 21.8278 27.2809 21.6361 27.4645C20.4921 28.5663 19.6371 29.3911 21.6812 30.7398C22.6656 31.3901 23.4544 31.9229 24.2401 32.4588C25.0951 33.0428 25.95 33.6238 27.0579 34.3524C27.3389 34.537 27.6098 34.7246 27.8707 34.9153C28.8672 35.6258 29.7673 36.264 30.8721 36.1616C31.5163 36.1014 32.1817 35.4993 32.5188 33.6931C33.3166 29.4273 34.885 20.1882 35.2463 16.38C35.269 16.0634 35.2559 15.7453 35.2072 15.4317C35.178 15.1789 35.0556 14.946 34.864 14.7784C34.5897 14.5901 34.2634 14.4922 33.9307 14.4985C33.0276 14.5135 31.6338 14.9982 24.9476 17.7799Z" fill="white"/>
</g>
<defs>
<clipPath id="clip0_534_2073">
<rect width="48.1671" height="48.1671" fill="white"/>
</clipPath>
</defs>
</svg>
