<svg width="33" height="33" viewBox="0 0 33 33" fill="none" xmlns="http://www.w3.org/2000/svg">
<g clip-path="url(#clip0_534_2001)">
<path d="M26.9332 15.0851C26.9332 15.0851 27.3684 17.2167 27.4664 17.6632H25.5534L26.4702 15.1707C26.4588 15.1882 26.6589 14.6489 26.7734 14.3168L26.9332 15.0851ZM33.0001 6.41644V26.5836C32.9992 27.3127 32.7092 28.0118 32.1936 28.5274C31.678 29.0431 30.9789 29.3331 30.2497 29.3339H2.74937C2.02018 29.3331 1.3211 29.0431 0.805485 28.5274C0.289873 28.0118 -0.000157713 27.3127 -0.000976562 26.5836V6.41644C-0.000157713 5.68725 0.289873 4.98817 0.805485 4.47255C1.3211 3.95694 2.02018 3.66691 2.74937 3.66609H30.2497C30.9789 3.66691 31.678 3.95694 32.1936 4.47255C32.7092 4.98817 32.9992 5.68725 33.0001 6.41644ZM8.73681 20.8086L12.3575 11.9171H9.92274L7.67152 17.9902L7.42505 16.7588L6.62274 12.6679C6.49074 12.1007 6.08443 11.9398 5.58015 11.9171H1.87384L1.83362 12.0945C2.68234 12.303 3.49649 12.6329 4.25087 13.0742L6.30202 20.8086H8.73681ZM14.1457 20.8199L15.5895 11.9171H13.2867L11.8491 20.8199H14.1457ZM22.1606 17.9097C22.1719 16.896 21.5532 16.1226 20.2301 15.4863C19.4226 15.0789 18.9297 14.8046 18.9297 14.3859C18.941 14.0075 19.3484 13.6177 20.2528 13.6177C20.8419 13.6002 21.4274 13.7158 21.9657 13.9559L22.1719 14.0528L22.4875 12.1275C21.8288 11.8765 21.1298 11.7483 20.425 11.749C18.1501 11.749 16.5516 12.9638 16.5403 14.6932C16.5227 15.971 17.686 16.6815 18.5574 17.1105C19.4453 17.5457 19.7495 17.8324 19.7495 18.216C19.7382 18.8121 19.0276 19.0864 18.3687 19.0864C17.4519 19.0864 16.959 18.943 16.2082 18.611L15.905 18.4676L15.5843 20.4672C16.1226 20.7137 17.1198 20.9313 18.1511 20.9426C20.5683 20.9478 22.1441 19.7505 22.1616 17.9066L22.1606 17.9097ZM30.2497 20.8199L28.3935 11.9171H26.6115C26.0618 11.9171 25.6431 12.078 25.408 12.6565L21.9873 20.8209H24.4046C24.4046 20.8209 24.7996 19.7206 24.8862 19.4865H27.8428C27.9119 19.8021 28.1181 20.8209 28.1181 20.8209L30.2497 20.8199Z" fill="white"/>
</g>
<defs>
<clipPath id="clip0_534_2001">
<rect width="33" height="33" fill="white"/>
</clipPath>
</defs>
</svg>
