<svg width="81" height="67" viewBox="0 0 81 67" fill="none" xmlns="http://www.w3.org/2000/svg">
<path d="M80.9439 44.9892C80.9749 33.0631 63.514 23.3497 41.9438 23.2937C20.3737 23.2376 2.86254 32.8601 2.83153 44.7861C2.80053 56.7121 20.2614 66.4255 41.8316 66.4816C63.4017 66.5377 80.9128 56.9152 80.9439 44.9892Z" fill="#0E2233"/>
<path d="M70.8885 36.1546C70.9185 25.4152 55.9124 16.6671 37.3713 16.6152C18.8303 16.5633 3.77537 25.2272 3.7453 35.9666C3.71523 46.706 18.7214 55.4541 37.2624 55.506C55.8035 55.5579 70.8584 46.894 70.8885 36.1546Z" fill="#F9C32B"/>
<path d="M70.894 36.0672V41.8825C70.9224 46.8596 67.6727 51.8345 61.1373 55.6329C48.0691 63.226 26.8134 63.226 13.662 55.6329C7.08498 51.8341 3.78038 46.8574 3.75162 41.8825H3.74936V36.0672H70.894Z" fill="url(#paint0_linear_534_1847)"/>
<path d="M60.9831 22.3176C74.1368 29.9118 74.206 42.2239 61.1378 49.8181C48.0697 57.4123 26.8144 57.4126 13.6611 49.8185C0.507766 42.2243 0.438141 29.9122 13.5063 22.318C26.5745 14.7238 47.8294 14.7234 60.9831 22.3176Z" fill="url(#paint1_linear_534_1847)"/>
<path d="M37.434 52.8779C28.8261 52.8779 20.7763 50.9204 14.7673 47.3661C9.35838 44.1663 6.37656 40.1344 6.37089 36.0125C6.36521 31.9291 9.29369 27.9347 14.6171 24.7656C20.5815 21.2143 28.6047 19.2583 37.2096 19.2583C45.8176 19.2583 53.8677 21.2158 59.8764 24.7701C65.2853 27.9699 68.2671 32.0022 68.2732 36.1237C68.2788 40.2071 65.3504 44.2011 60.027 47.3706C54.0622 50.9223 46.0385 52.8779 37.434 52.8779Z" fill="url(#paint2_linear_534_1847)"/>
<path d="M37.4343 51.9994C28.9812 51.9994 21.0903 50.0854 15.2145 46.6098C10.0829 43.5743 7.25399 39.8103 7.2487 36.0107C7.2434 32.2498 10.0197 28.5236 15.0661 25.5191C20.8966 22.0476 28.7606 20.1356 37.2096 20.1356C45.6627 20.1356 53.5539 22.0495 59.4294 25.5252C64.5606 28.5607 67.3895 32.3247 67.3952 36.1246C67.4005 39.8856 64.6241 43.6113 59.5777 46.6162C53.7473 50.0877 45.8833 51.9994 37.4343 51.9994Z" fill="url(#paint3_linear_534_1847)"/>
<path d="M67.1976 27.8943C67.2277 17.1549 52.2215 8.40678 33.6805 8.35486C15.1394 8.30295 0.0845174 16.9669 0.0544471 27.7063C0.0243768 38.4457 15.0305 47.1937 33.5716 47.2457C52.1127 47.2976 67.1675 38.6337 67.1976 27.8943Z" fill="#F9C32B"/>
<path d="M67.2032 27.8063V33.6216C67.2316 38.5988 63.9819 43.5736 57.4465 47.3721C44.3783 54.9651 23.1226 54.9651 9.97119 47.3721C3.39415 43.5733 0.0895548 38.5965 0.0607961 33.6216H0.0585327V27.8063H67.2032Z" fill="url(#paint4_linear_534_1847)"/>
<path d="M57.2917 14.0562C70.4454 21.6504 70.5146 33.9625 57.4464 41.5567C44.3783 49.1508 23.123 49.1512 9.96929 41.557C-3.1844 33.9629 -3.25364 21.6507 9.81452 14.0566C22.8827 6.46239 44.1384 6.46201 57.2917 14.0562Z" fill="url(#paint5_linear_534_1847)"/>
<path d="M33.7436 44.6164C25.1356 44.6164 17.0859 42.6589 11.0768 39.1042C5.66791 35.9044 2.68609 31.8725 2.68003 27.7505C2.67436 23.6672 5.60282 19.6727 10.9262 16.5036C16.8906 12.9523 24.9139 10.9963 33.5188 10.9963C42.1267 10.9963 50.1769 12.9538 56.1855 16.5082C61.5944 19.7079 64.5763 23.7402 64.5823 27.8618C64.588 31.9451 61.6595 35.9392 56.3361 39.1087C50.3714 42.6608 42.3481 44.6164 33.7436 44.6164Z" fill="url(#paint6_linear_534_1847)"/>
<path d="M33.7435 43.7391C25.2903 43.7391 17.3995 41.8251 11.5236 38.3495C6.39208 35.3139 3.56314 31.5499 3.55784 27.7504C3.55254 23.9894 6.32889 20.2633 11.3753 17.2588C17.2057 13.7873 25.0697 11.8752 33.5187 11.8752C41.9718 11.8752 49.8631 13.7892 55.7385 17.2648C60.8697 20.3004 63.6986 24.0644 63.7043 27.8643C63.7096 31.6252 60.9333 35.351 55.8869 38.3559C50.0564 41.827 42.1925 43.7391 33.7435 43.7391Z" fill="url(#paint7_linear_534_1847)"/>
<path d="M75.044 19.6332C75.0741 8.89383 60.068 0.14574 41.5269 0.093825C22.9858 0.04191 7.93095 8.70583 7.90088 19.4452C7.87081 30.1846 22.877 38.9327 41.418 38.9846C59.9591 39.0365 75.014 30.3726 75.044 19.6332Z" fill="#F9C32B"/>
<path d="M75.0497 19.5453V25.3606C75.078 30.3377 71.8283 35.3126 65.2929 39.111C52.2247 46.7041 30.969 46.7041 17.8176 39.111C11.2406 35.3122 7.93599 30.3355 7.90723 25.3606H7.90497V19.5453H75.0497Z" fill="url(#paint8_linear_534_1847)"/>
<path d="M65.1388 5.79569C78.2925 13.3899 78.3617 25.702 65.2936 33.2962C52.2254 40.8903 30.9701 40.8907 17.8168 33.2965C4.66311 25.7024 4.59386 13.3903 17.662 5.79607C30.7302 -1.79811 51.9855 -1.79849 65.1388 5.79569Z" fill="url(#paint9_linear_534_1847)"/>
<path d="M41.59 36.3559C32.9821 36.3559 24.9323 34.3984 18.9232 30.8436C13.5143 27.6439 10.5325 23.612 10.5265 19.49C10.5208 15.4067 13.4493 11.4122 18.7726 8.24311C24.737 4.69179 32.7603 2.73583 41.3652 2.73583C49.9731 2.73583 58.0233 4.69332 64.032 8.24766C69.4409 11.4474 72.4227 15.4797 72.4287 19.6013C72.4344 23.6846 69.506 27.6787 64.1826 30.8482C58.2182 34.3999 50.1945 36.3559 41.59 36.3559Z" fill="url(#paint10_linear_534_1847)"/>
<path d="M41.5888 35.4775C33.1356 35.4775 25.2448 33.5635 19.3689 30.0879C14.2374 27.0523 11.4085 23.2883 11.4032 19.4888C11.3979 15.7278 14.1742 12.0017 19.2206 8.99718C25.0511 5.52571 32.915 3.61364 41.364 3.61364C49.8172 3.61364 57.7084 5.52759 63.5839 9.00323C68.715 12.0388 71.544 15.8028 71.5497 19.6027C71.555 23.3637 68.7786 27.0894 63.7322 30.0943C57.9014 33.5654 50.0378 35.4775 41.5888 35.4775Z" fill="url(#paint11_linear_534_1847)"/>
<path d="M49.2449 22.7606C49.324 23.9564 48.5017 25.056 46.7758 26.0591C45.3186 26.906 43.7161 27.3991 41.9391 27.5591C40.1602 27.7184 38.2901 27.5504 36.3274 27.0589C34.6139 26.6294 32.9047 25.9558 31.1977 25.0412L28.6091 26.5458L27.3603 25.8249L29.9437 24.3238C28.3328 23.3467 27.1329 22.3814 26.3564 21.429C25.4997 20.3767 25.1633 19.3671 25.3434 18.4006C25.5258 17.4331 26.2247 16.5412 27.4443 15.7242L27.6608 15.5812L33.2786 18.8244L33.1715 18.9236C32.8722 19.2055 32.742 19.5101 32.7791 19.8382C32.818 20.1655 33.0394 20.5182 33.4466 20.897C33.7137 21.1433 34.0664 21.4071 34.4857 21.6837L38.1577 19.5498L36.543 18.1929C34.7286 16.6668 33.8106 15.2788 33.7887 14.0259C33.7667 12.7734 34.6279 11.6401 36.3762 10.6241C37.7502 9.82563 39.2895 9.35868 41.026 9.20467C42.7621 9.05293 44.5762 9.20354 46.4667 9.65989C48.2304 10.086 49.9563 10.7716 51.6504 11.709L54.23 10.2097L55.4787 10.9306L52.8844 12.4381C54.3125 13.3376 55.3857 14.2193 56.0929 15.0843C56.9386 16.1173 57.2656 17.1171 57.076 18.0847C56.8845 19.0511 56.1671 19.9733 54.9289 20.8504L54.6497 21.0495L49.0319 17.8062L49.1409 17.7063C49.492 17.3941 49.6631 17.0747 49.6555 16.7463C49.6479 16.4201 49.4678 16.0757 49.1129 15.7143C48.9149 15.5142 48.6516 15.3023 48.3364 15.0817L44.6625 17.2166L46.2676 18.5618C48.1733 20.1663 49.1658 21.5652 49.2449 22.7606ZM40.0558 23.0221L40.0853 23.0047C40.5814 22.7163 40.7467 22.372 40.5848 21.9716C40.4361 21.6091 39.9631 21.085 39.1733 20.4058L35.7215 22.4117C36.2358 22.6808 36.7183 22.8927 37.1667 23.0444C37.7642 23.2457 38.3053 23.3456 38.7885 23.3415C39.2698 23.3388 39.6925 23.2332 40.0558 23.0221ZM43.6464 16.3599L47.1206 14.3411C46.6063 14.0656 46.122 13.8503 45.6717 13.702C45.115 13.5181 44.6091 13.4299 44.1543 13.4352C43.6972 13.4417 43.293 13.5472 42.9411 13.7516L42.9116 13.769C42.4041 14.0638 42.2187 14.4179 42.3565 14.8323C42.4863 15.2202 42.9165 15.7302 43.6464 16.3599Z" fill="url(#paint12_linear_534_1847)"/>
<path d="M33.279 18.8237L33.1715 18.9224C33.1473 18.9444 33.1254 18.9686 33.1034 18.9905L28.2886 16.21L28.0737 16.3527C26.8537 17.1689 26.1537 18.0623 25.9713 19.0276C25.7912 19.9952 26.1272 21.0048 26.985 22.056C27.0705 22.1612 27.1606 22.2645 27.2548 22.3697C26.9105 22.0537 26.6096 21.74 26.355 21.4282C25.499 20.377 25.1634 19.3674 25.3435 18.3999C25.5255 17.4319 26.2237 16.5411 27.4436 15.7249L27.6609 15.58L33.279 18.8237Z" fill="#BF8322"/>
<path d="M55.4774 10.9294L55.2469 11.0634L54.8564 10.8375L52.278 12.3364C50.5838 11.3994 48.8568 10.7145 47.0946 10.2865C45.2029 9.83246 43.3904 9.68072 41.6524 9.83246C39.9166 9.98609 38.3781 10.4534 37.0045 11.2522C35.2555 12.2682 34.3954 13.4004 34.4173 14.6537C34.4328 15.5774 34.9372 16.576 35.9294 17.6491C34.5206 16.3346 33.8073 15.1278 33.7876 14.0259C33.7657 12.773 34.6281 11.6405 36.3748 10.6245C37.7507 9.82565 39.2889 9.35832 41.025 9.20469C42.7607 9.05333 44.5756 9.20241 46.4649 9.65877C48.2294 10.0845 49.9564 10.7713 51.6506 11.7086L54.229 10.2097L55.4774 10.9294Z" fill="#BF8322"/>
<defs>
<linearGradient id="paint0_linear_534_1847" x1="37.1076" y1="32.4939" x2="38.0799" y2="62.0502" gradientUnits="userSpaceOnUse">
<stop stop-color="#F5AB2A"/>
<stop offset="0.9978" stop-color="#E3A326"/>
</linearGradient>
<linearGradient id="paint1_linear_534_1847" x1="26.5846" y1="23.569" x2="51.4741" y2="52.5419" gradientUnits="userSpaceOnUse">
<stop stop-color="#F9C32B"/>
<stop offset="0.9978" stop-color="#F9B22B"/>
</linearGradient>
<linearGradient id="paint2_linear_534_1847" x1="20.2564" y1="20.5892" x2="54.7712" y2="51.8955" gradientUnits="userSpaceOnUse">
<stop stop-color="#F5AB2A"/>
<stop offset="0.9978" stop-color="#E3A326"/>
</linearGradient>
<linearGradient id="paint3_linear_534_1847" x1="23.4781" y1="22.2235" x2="51.2195" y2="49.965" gradientUnits="userSpaceOnUse">
<stop stop-color="#F9C32B"/>
<stop offset="0.9978" stop-color="#F9B22B"/>
</linearGradient>
<linearGradient id="paint4_linear_534_1847" x1="33.4169" y1="24.2332" x2="34.3892" y2="53.7894" gradientUnits="userSpaceOnUse">
<stop stop-color="#F5AB2A"/>
<stop offset="0.9978" stop-color="#E3A326"/>
</linearGradient>
<linearGradient id="paint5_linear_534_1847" x1="22.8933" y1="15.3073" x2="47.7828" y2="44.2803" gradientUnits="userSpaceOnUse">
<stop stop-color="#F9C32B"/>
<stop offset="0.9978" stop-color="#F9B22B"/>
</linearGradient>
<linearGradient id="paint6_linear_534_1847" x1="16.5657" y1="12.3277" x2="51.0804" y2="43.634" gradientUnits="userSpaceOnUse">
<stop stop-color="#F5AB2A"/>
<stop offset="0.9978" stop-color="#E3A326"/>
</linearGradient>
<linearGradient id="paint7_linear_534_1847" x1="19.7874" y1="13.963" x2="47.5288" y2="41.7044" gradientUnits="userSpaceOnUse">
<stop stop-color="#F9C32B"/>
<stop offset="0.9978" stop-color="#F9B22B"/>
</linearGradient>
<linearGradient id="paint8_linear_534_1847" x1="41.2631" y1="15.9723" x2="42.2353" y2="45.5285" gradientUnits="userSpaceOnUse">
<stop stop-color="#F5AB2A"/>
<stop offset="0.9978" stop-color="#E3A326"/>
</linearGradient>
<linearGradient id="paint9_linear_534_1847" x1="30.7405" y1="7.04699" x2="55.63" y2="36.0199" gradientUnits="userSpaceOnUse">
<stop stop-color="#F9C32B"/>
<stop offset="0.9978" stop-color="#F9B22B"/>
</linearGradient>
<linearGradient id="paint10_linear_534_1847" x1="24.4122" y1="4.06698" x2="58.9269" y2="35.3733" gradientUnits="userSpaceOnUse">
<stop stop-color="#F5AB2A"/>
<stop offset="0.9978" stop-color="#E3A326"/>
</linearGradient>
<linearGradient id="paint11_linear_534_1847" x1="27.6324" y1="5.70155" x2="55.3739" y2="33.443" gradientUnits="userSpaceOnUse">
<stop stop-color="#F9C32B"/>
<stop offset="0.9978" stop-color="#F9B22B"/>
</linearGradient>
<linearGradient id="paint12_linear_534_1847" x1="37.8127" y1="14.1414" x2="45.9796" y2="23.7342" gradientUnits="userSpaceOnUse">
<stop stop-color="#D99929"/>
<stop offset="0.9978" stop-color="#E3A326"/>
</linearGradient>
</defs>
</svg>
