<svg width="239" height="136" viewBox="0 0 239 136" fill="none" xmlns="http://www.w3.org/2000/svg">
<path d="M3.76833 19.7218C3.76833 19.7218 -3.25986 34.1577 1.8802 42.7846C7.02025 51.4116 25.1823 48.976 25.2544 49.0842C25.3265 49.1923 26.2624 50.1666 26.4257 50.275C26.589 50.3832 32.0719 50.2971 32.18 50.5929C32.2881 50.8885 32.828 57.1182 33.3065 57.3773C33.785 57.6365 36.3633 57.1838 36.7786 58.1947C37.1938 59.2057 39.1958 81.6333 39.1958 81.6333C39.1958 81.6333 46.1234 81.707 46.0412 81.6333C45.9591 81.5595 38.8712 40.5867 38.8712 40.5867L3.76833 19.7218Z" fill="#9380FF"/>
<path d="M41.5482 80.5263C41.5482 80.5263 36.1657 81.5915 35.9644 82.369C35.7628 83.1464 34.2087 92.0024 34.41 92.0371C34.6113 92.0722 41.5482 80.5263 41.5482 80.5263Z" fill="#9380FF"/>
<path d="M119.695 78.7123C120.069 78.8562 125.797 79.8642 126.286 80.3536C126.775 80.843 129.028 89.384 129.028 89.384L117.392 86.1407L119.695 78.7123Z" fill="#FFF38A"/>
<path d="M129.028 89.384C128.903 89.9231 70.3206 102.323 68.9497 102.323C68.7322 102.323 67.7443 102.085 66.2279 101.677C58.118 99.5107 34.9282 92.6111 34.4756 92.4175C33.9403 92.186 36.6653 83.03 36.6653 83.03L40.8516 81.6654L46.8305 81.4682L119.453 79.0566C119.453 79.0566 125.049 80.7911 125.432 80.8051C125.563 80.8087 126.043 81.7621 126.614 83.0303C127.701 85.4519 129.11 89.0313 129.028 89.384Z" fill="url(#paint0_linear_534_1240)"/>
<path d="M125.432 80.8051C125.432 80.8051 69.4023 92.7426 68.2521 92.5523C67.1055 92.3587 36.6658 83.03 36.6658 83.03L40.852 81.6654L46.831 81.4682L119.454 79.0566C119.454 79.0566 125.049 80.7915 125.432 80.8051Z" fill="#FF6B1C"/>
<path d="M127.895 46.342L118.585 45.017L89.8571 40.9284L75.3586 36.7066L58.6915 0.737273C58.6915 0.737273 77.5629 -0.259711 77.6766 0.0650398C77.7934 0.38979 92.1848 36.1124 92.7789 36.3819C93.162 36.5573 107.803 38.246 118.348 39.5287C124.117 40.2334 128.658 40.8147 128.973 40.9576C128.983 40.9609 128.986 40.9641 128.989 40.9674C129.35 41.3214 127.895 46.342 127.895 46.342Z" fill="#FFF38A"/>
<path d="M16.9232 48.2029C17.6387 48.2211 34.6012 47.3767 34.6012 47.3767L32.5885 41.9183L16.9232 48.2029Z" fill="#820E0E"/>
<path d="M18.7953 2.07488C18.7953 2.07488 -3.07781 17.9217 1.02339 37.5987C5.12459 57.2753 36.6811 43.5413 36.6811 43.5413L18.7953 2.07488Z" fill="url(#paint1_linear_534_1240)"/>
<path opacity="0.6" d="M36.6812 43.5416C36.6812 43.5416 33.267 45.0287 28.5402 46.3212C27.1046 46.7144 25.5496 47.0905 23.9332 47.398C14.6711 49.1757 3.36548 48.8409 1.02092 37.5997C-1.12204 27.3158 3.8268 18.0783 9.04574 11.6031C11.9678 7.97235 14.9753 5.20969 16.8621 3.61322C18.048 2.61494 18.7931 2.07488 18.7931 2.07488L36.6812 43.5416Z" fill="#962C63"/>
<path opacity="0.4" d="M12.5562 39.4203C11.7248 39.7373 13.2968 46.7139 16.1163 47.5115C18.9358 48.3091 24.5644 47.2549 24.541 46.7139C24.518 46.1725 22.6383 40.2942 22.04 39.9571C21.442 39.6197 13.1542 39.1924 12.5562 39.4203Z" fill="#B52666"/>
<path d="M29.9175 36.8268C29.9175 36.8268 25.4881 38.7516 20.56 39.4901C19.9312 39.5859 19.2955 39.6609 18.6599 39.7122C18.1437 39.7499 17.6278 39.7736 17.1152 39.7772C16.7257 39.7804 16.3361 39.7703 15.9498 39.7463C15.8439 39.7395 15.7345 39.7327 15.6284 39.7223C12.1492 39.4453 9.09365 38.006 7.93175 34.2522C6.67734 30.1973 8.08564 25.8931 10.3309 22.1153C10.4231 21.9581 10.5188 21.8042 10.6146 21.6502C14.3126 15.6842 19.9756 11.1338 20.2149 11.1338L21.4966 14.5356L29.9175 36.8268Z" fill="url(#paint2_linear_534_1240)"/>
<path opacity="0.6" d="M15.9517 39.7477C12.3391 39.5298 9.13 38.1233 7.93369 34.2526C4.62884 23.556 19.8205 11.1359 20.2168 11.1359L21.4985 14.535C18.9627 16.4446 7.80384 26.4203 10.3159 34.1496C11.3379 37.2952 13.5526 38.9316 15.9517 39.7477Z" fill="#8B7996"/>
<path d="M21.498 14.5364C20.7425 15.1041 19.2251 16.3862 17.5334 18.1126C14.1432 21.5588 10.0589 26.7724 9.95306 31.5826C9.9326 32.4545 10.0452 33.3161 10.3153 34.15C11.3373 37.2953 13.552 38.933 15.9511 39.7468C12.3385 39.5315 9.12942 38.1227 7.93312 34.2527C6.52839 29.7023 8.46976 24.8407 11.1903 20.7551C12.3557 19.0115 13.6579 17.4114 14.9051 16.0371C17.6152 13.0559 20.0588 11.1347 20.2163 11.1347L21.498 14.5364Z" fill="url(#paint3_linear_534_1240)"/>
<path d="M21.498 14.5364C20.7425 15.1041 19.2251 16.3862 17.5334 18.1126C14.1432 21.5588 10.0589 26.7724 9.95306 31.5826C9.9326 32.4545 10.0452 33.3161 10.3153 34.15C11.3373 37.2953 13.552 38.933 15.9511 39.7468C12.3385 39.5315 9.12942 38.1227 7.93312 34.2527C6.52839 29.7023 8.46976 24.8407 11.1903 20.7551C12.3557 19.0115 13.6579 17.4114 14.9051 16.0371C17.6152 13.0559 20.0588 11.1347 20.2163 11.1347L21.498 14.5364Z" fill="#962C63"/>
<path opacity="0.6" d="M12.5017 23.943C10.9505 24.4026 8.02877 32.3323 11.0408 35.6523C14.0528 38.9719 17.6239 39.9282 19.3552 38.954C21.0865 37.9797 16.7048 22.698 12.5017 23.943Z" fill="#BA64CF"/>
<path d="M26.6544 48.5795L50.2078 47.2698L48.9927 42.2316L26.6544 48.5795Z" fill="#820E0E"/>
<path opacity="0.5" d="M28.5408 46.3212C27.1052 46.7144 25.5502 47.0905 23.9338 47.398C23.838 42.6904 20.5604 39.4904 20.5604 39.4904L21.671 39.3332C21.671 39.3332 20.9296 35.053 18.9541 29.6956C16.9787 24.3381 15.5194 21.822 15.2629 20.9708C15.0032 20.1229 12.6382 18.7417 12.6382 18.7417C12.6382 18.7417 13.0895 15.9726 11.5685 13.6545C11.0147 12.8101 10.0511 12.1298 9.04636 11.6034C11.9685 7.97266 14.9759 5.21 16.8628 3.61353L28.5408 46.3212Z" fill="#7E527C"/>
<path d="M23.1451 1.3891C23.1451 1.3891 16.8094 0.997777 15.5443 1.43976C14.2792 1.88175 9.68224 5.75667 9.73288 6.71858C9.78353 7.68049 16.439 22.2725 16.439 22.2725L23.1451 1.3891Z" fill="#9380FF"/>
<path d="M91.9613 38.2427C91.0523 39.4563 35.9593 46.8213 35.9593 46.8213C35.9593 46.8213 35.0126 46.9203 33.7173 47.047C31.079 47.3068 27.1131 48.6814 26.6554 48.5788C25.9717 48.4285 11.0171 7.91843 10.9352 6.63274C10.8976 6.03455 15.2825 1.76084 16.4035 1.69264C31.9607 0.769698 75.6968 0.554063 76.5172 0.742094C77.5011 0.971692 92.8739 37.0255 91.9613 38.2427Z" fill="url(#paint4_linear_534_1240)"/>
<path opacity="0.2" d="M34.0383 45.8508C32.7391 44.9721 37.3626 39.8572 39.3563 38.9457C41.3499 38.0341 80.4254 33.5324 83.9568 34.1595C87.4883 34.7863 91.7606 37.9201 91.1908 38.2052C90.6214 38.4897 36.5812 47.5707 34.0383 45.8508Z" fill="#B52666"/>
<path opacity="0.4" d="M33.7173 47.0474C31.079 47.3072 27.1131 48.6819 26.6554 48.5793C25.9717 48.4289 11.0171 7.91886 10.9352 6.63317C10.8976 6.03498 15.2825 1.76127 16.4035 1.69307C16.4035 1.69307 31.202 40.1585 33.7173 47.0474Z" fill="#B52666"/>
<path d="M81.5656 32.2528C81.4494 32.4476 80.4411 32.711 78.8043 33.0221C69.5322 34.7725 40.1229 37.9522 39.4122 37.6719C38.3321 37.2481 30.4339 17.8667 27.8264 10.1707C27.194 8.30049 26.8693 7.121 27.0336 7.06968C27.8709 6.80306 70.3357 5.66449 71.6206 6.26983C72.9052 6.87808 82.3243 30.9639 81.5656 32.2528Z" fill="url(#paint5_linear_534_1240)"/>
<path d="M81.5652 32.2528C81.4489 32.4476 80.4406 32.711 78.8038 33.0221C76.9069 27.4803 70.6627 9.35008 70.1809 8.91589C69.6615 8.45085 34.7326 9.86286 27.8256 10.1707C27.1932 8.30049 26.8685 7.121 27.0328 7.06968C27.8701 6.80306 70.3348 5.66449 71.6197 6.26983C72.9047 6.87808 82.3238 30.9639 81.5652 32.2528Z" fill="#C03C0F"/>
<path opacity="0.4" d="M15.8649 3.53204C14.2952 3.05628 13.37 8.6238 13.4726 11.5092C13.5749 14.3946 22.7574 39.8284 26.346 42.7915C29.9346 45.7545 32.4979 46.4231 32.384 45.4051C32.2697 44.387 17.7446 4.10198 15.8649 3.53204Z" fill="#B52666"/>
<path opacity="0.2" d="M8.10326 36.3052C9.00089 38.7077 0.954645 34.3677 1.09716 28.6696C1.23968 22.9716 7.81855 13.2281 9.47033 13.4843C11.1221 13.7408 12.7456 17.7294 12.2616 18.641C11.7772 19.5529 4.94222 27.8438 8.10326 36.3052Z" fill="#B83014"/>
<path d="M16.9229 3.04737C16.8749 2.80056 20.0843 9.18256 21.1095 11.6136C22.1347 14.0447 26.4258 27.644 26.4258 27.644C26.4258 27.644 18.4374 10.8161 16.9229 3.04737Z" fill="#FFDA5F"/>
<path opacity="0.2" d="M32.9011 21.415C32.656 20.2381 60.6415 18.8881 63.6603 20.3793C66.6791 21.8706 75.6575 32.3103 73.7599 33.8428C71.8627 35.3753 42.5274 38.3384 40.0212 36.6857C37.515 35.0334 33.1859 22.7825 32.9011 21.415Z" fill="white"/>
<path opacity="0.6" d="M81.566 32.2528C81.4498 32.4477 80.4415 32.7111 78.8046 33.0222C76.9077 27.4803 70.6636 9.35012 70.1818 8.91593C69.9425 7.56562 70.7629 7.0733 71.6206 6.26987C72.9055 6.87812 82.3247 30.9639 81.566 32.2528Z" fill="#8B7996"/>
<path opacity="0.4" d="M29.0507 13.6044C29.0341 13.5599 63.6789 8.32786 68.2927 10.0945C72.9065 11.8608 78.491 32.1077 78.491 32.1077C78.491 32.1077 74.0652 7.18343 71.6203 6.26959C69.1754 5.35574 29.9103 7.54943 28.7328 8.80296C27.556 10.0562 29.0507 13.6044 29.0507 13.6044Z" fill="#B52666"/>
<path opacity="0.5" d="M17.3317 1.86046C15.8253 2.0316 24.8221 6.36182 33.7082 6.33357C42.5943 6.30499 59.0845 1.88903 55.4105 1.29084C51.7362 0.692653 21.3475 1.40483 17.3317 1.86046Z" fill="#B83014"/>
<path opacity="0.5" d="M23.5783 1.9177C21.982 2.63637 29.2459 6.78961 35.9673 5.84945C42.6887 4.9093 44.2551 2.60163 42.8026 2.00344C41.3502 1.40492 25.2872 1.14837 23.5783 1.9177Z" fill="#B83014"/>
<path opacity="0.5" d="M46.5623 1.69301C45.4855 1.94924 44.8251 4.08285 47.7868 3.3421C50.7492 2.60134 49.7808 0.926928 46.5623 1.69301Z" fill="#B83014"/>
<path d="M127.936 51.8728C127.734 52.0092 125.848 52.7528 125.812 52.886C125.78 53.0191 120.073 79.2817 120.073 79.2817L118.586 45.0173L118.349 39.529C124.118 40.2337 128.66 40.815 128.974 40.9579C128.984 40.9611 128.987 40.9644 128.991 40.9676C129.198 41.0943 129.332 41.2144 129.351 41.3216C129.452 41.8607 128.14 51.7396 127.936 51.8728Z" fill="#FFF38A"/>
<path d="M74.4215 81.2866C74.9721 81.2207 112.118 74.5513 113.403 73.692C114.372 73.0529 116.23 61.1982 117.097 54.9623C117.383 52.9057 117.559 51.4586 117.559 51.2309L114.505 51.7967L74.4219 59.2516C74.4219 59.2516 74.4144 59.5894 74.3998 60.1772C74.3777 61.1099 74.341 62.682 74.3044 64.5548C74.179 71.0842 74.0469 81.3233 74.4215 81.2866Z" fill="url(#paint6_linear_534_1240)"/>
<path d="M113.597 60.2389C113.597 60.2389 113.36 68.6961 109.608 71.3892C105.855 74.0824 87.4168 77.4692 82.889 77.1019C78.3612 76.7346 76.726 74.0009 76.7254 74.1233C76.7247 74.2457 74.1594 81.0226 77.9123 81.8371C81.6651 82.6516 112.708 78.4077 114.666 73.6333C116.624 68.8594 113.597 60.2389 113.597 60.2389Z" fill="url(#paint7_linear_534_1240)"/>
<path d="M42.5474 78.2825L61.2708 81.8375C61.2708 81.8375 62.2327 71.6722 62.8421 64.9953C63.0255 63.0195 63.1797 61.3448 63.268 60.3387C63.3193 59.7363 63.3488 59.369 63.3488 59.3102C63.3488 59.3102 49.7431 57.3124 44.8384 56.5119C43.7956 56.343 43.1421 56.2254 43.0983 56.1887C43.0175 56.1887 42.9295 58.5831 42.8486 61.793C42.6795 68.3373 42.5474 78.2825 42.5474 78.2825Z" fill="url(#paint8_linear_534_1240)"/>
<path d="M61.1976 76.9088C61.0957 76.9698 58.4239 78.0512 52.9475 77.0721C47.4711 76.0927 46.2417 73.6652 45.8161 71.6043C45.3905 69.5434 44.3422 77.2761 44.3422 77.2761C44.3422 77.2761 62.095 80.3774 61.8908 80.0916C61.6872 79.8062 61.1976 76.9088 61.1976 76.9088Z" fill="url(#paint9_linear_534_1240)"/>
<path d="M37.7231 59.0752C38.5012 66.7803 40.5646 83.0789 40.6601 83.2549C41.1448 84.1875 66.4766 90.6952 67.7615 90.6952C69.0465 90.6952 119.93 81.4259 120.07 80.6692L123.528 56.5997L124.461 50.1141C124.461 50.1141 119.945 50.7386 117.001 51.216C116.142 51.3481 115.415 51.4803 114.974 51.5758C114.71 51.6271 114.548 51.6713 114.526 51.7008C114.519 51.7083 114.512 51.745 114.504 51.7963C114.438 52.1857 114.291 53.7279 114.086 55.7992C114.078 55.8066 114.078 55.8138 114.078 55.8138C113.498 61.4326 112.441 70.9299 111.2 71.848C109.004 73.464 78.6357 79.6336 77.2479 78.4732C76.5577 77.9004 76.6677 73.3831 76.9103 68.9175C76.9177 68.8808 76.9177 68.8587 76.9177 68.8587C76.9911 67.4632 77.0865 66.0824 77.1674 64.8188C77.2115 64.1946 77.2553 63.6068 77.2924 63.056C77.432 61.0069 77.5199 59.5965 77.4245 59.5965C77.2995 59.5965 76 59.8537 74.3995 60.1768C71.9692 60.6688 68.8484 61.3154 68.1657 61.418C68.0998 61.4255 68.0628 61.4326 68.0407 61.4326C67.9528 61.4326 66.0877 60.8669 63.2682 60.3382C62.4238 60.1765 61.4914 60.0222 60.4928 59.8829C60.4194 59.8758 60.4269 62.3361 60.434 65.4725C60.4415 69.0129 60.4561 73.4052 60.3753 76.0568V76.1448C60.3311 77.4376 60.2652 78.2969 60.1623 78.4145C59.7143 78.9285 46.8721 76.0935 46.2556 75.785C45.9985 75.6603 45.47 66.4052 45.1691 60.7792C45.0441 58.3114 44.9561 56.5412 44.9561 56.5412C44.9194 56.5266 44.8752 56.5191 44.8385 56.512C44.2292 56.3356 43.6491 56.1889 43.1131 56.0567C39.5372 55.1678 37.5987 55.1091 37.4741 55.1311C37.3705 55.1458 37.488 56.7029 37.7231 59.0752Z" fill="url(#paint10_linear_534_1240)"/>
<path opacity="0.2" d="M113.838 73.9854C115.054 73.9448 113.226 81.2556 110.697 82.1123C108.168 82.9693 83.8967 87.6619 81.6937 87.0089C79.491 86.3561 77.166 81.8067 77.9 81.2861C78.6343 80.7659 112.818 74.0195 113.838 73.9854Z" fill="#B52666"/>
<path opacity="0.6" d="M37.7894 59.6776C38.6043 67.5953 40.5648 83.0788 40.6606 83.2551C41.1453 84.1878 66.4771 90.6955 67.762 90.6955C67.7766 90.4236 67.9016 87.0303 68.0117 82.5277C68.1954 75.6748 68.3643 66.2658 68.1659 61.4182C68.1 61.4257 68.063 61.4328 68.0409 61.4328C67.9234 61.4328 64.8029 60.4781 60.4926 59.8831C60.3384 59.861 60.5293 71.0549 60.3751 76.0567V76.1447C60.331 77.4375 60.2651 78.2968 60.1622 78.4144C59.7142 78.9284 46.872 76.0934 46.2555 75.7849C45.8883 75.6014 44.9559 56.5408 44.9559 56.5408C44.3024 56.3573 43.6856 56.1956 43.113 56.0559C39.537 55.1671 37.5986 55.1083 37.4739 55.1304C37.3635 55.1457 37.5103 56.9672 37.7894 59.6776Z" fill="#962C63"/>
<path opacity="0.4" d="M67.5489 64.9083C68.7526 65.399 67.5183 84.7704 66.111 86.7293C64.7037 88.6882 60.4496 89.0856 60.4045 87.8003C60.3593 86.5149 60.757 67.1416 61.3995 66.4077C62.042 65.6734 66.7227 64.5715 67.5489 64.9083Z" fill="#B52666"/>
<path opacity="0.2" d="M37.7887 59.6776C38.6035 67.5954 40.564 83.0788 40.6598 83.2552C41.1445 84.1879 66.4763 90.6955 67.7612 90.6955C67.7759 90.4237 67.9008 87.0304 68.0109 82.5277L67.159 77.3934C67.3499 78.7009 68.4514 86.8316 65.7861 88.4843C62.8932 90.2766 43.9202 84.562 41.923 82.6891C39.9251 80.8091 37.8474 59.9566 37.7887 59.6776Z" fill="#5B51CF"/>
<path d="M67.9366 85.3848C67.9366 85.3848 68.0259 77.6739 68.5765 76.9802C69.1271 76.2865 70.4938 74.8177 70.0247 72.7568C69.5556 70.6963 68.7398 69.3086 68.5155 68.2275C68.2911 67.1461 68.2499 65.534 68.2499 65.534C68.2499 65.534 68.2911 69.0845 67.6795 69.9416C67.0676 70.7986 66.1294 72.247 66.415 73.7366C66.6997 75.2256 68.0107 80.5888 67.9366 85.3848Z" fill="#FFC917"/>
<path opacity="0.2" d="M44.0813 76.7181C44.0887 76.7327 44.0958 76.7402 44.1108 76.7548C44.1108 76.7548 44.1183 76.7623 44.1183 76.7548C45.0286 77.6657 59.2732 80.0672 59.9413 79.913C60.5727 79.7662 60.3744 76.7327 60.3744 76.1449C60.3302 77.4377 60.2643 78.297 60.1614 78.4146C59.7134 78.9287 46.8712 76.0936 46.2547 75.7851C45.8875 75.6016 44.9552 56.541 44.9552 56.541C44.3017 56.3575 43.6849 56.1958 43.1122 56.0562C42.8259 56.0562 42.6204 56.1003 42.5467 56.1883C42.0032 56.7911 43.5011 75.8292 44.0813 76.7181Z" fill="#6E173E"/>
<path opacity="0.6" d="M44.0819 76.7181C44.0893 76.7327 44.0965 76.7402 44.1114 76.7548C44.1114 76.7548 44.1189 76.7623 44.1189 76.7548C45.1542 76.6518 46.2557 75.7851 46.2557 75.7851C45.8885 75.6016 44.9561 56.541 44.9561 56.541C44.3026 56.3575 43.6858 56.1958 43.1131 56.0562C42.8268 56.0562 42.6213 56.1003 42.5476 56.1883C42.0038 56.7911 43.5017 75.8293 44.0819 76.7181Z" fill="#962C63"/>
<path opacity="0.6" d="M76.6679 80.5741C76.69 80.5888 76.7121 80.6037 76.7487 80.6183C78.8927 81.3233 112.301 74.6322 113.785 73.1851C115.143 71.8702 116.692 54.7419 117 51.216C117.008 51.0546 117.023 50.9296 117.03 50.8267C117.044 50.6649 117.052 50.5844 117.052 50.5844L114.974 51.5759L114.504 51.7964C114.261 53.2506 112.896 70.5923 111.199 71.8481C109.004 73.464 78.6352 79.6337 77.2474 78.4733C76.5572 77.9005 76.6672 73.3832 76.9097 68.9175C76.8 69.7918 75.6177 79.6415 76.6679 80.5741Z" fill="#B52666"/>
<path opacity="0.2" d="M111.2 71.8484C111.604 72.3258 113.484 73.0529 113.785 73.1851C115.143 71.8702 116.692 54.7419 117.001 51.216C117.008 51.0546 117.023 50.9296 117.03 50.8267C117.044 50.6649 117.052 50.5844 117.052 50.5844L114.974 51.5759L114.504 51.7964C114.262 53.2506 112.896 70.5923 111.2 71.8484Z" fill="#B52666"/>
<path opacity="0.5" d="M116.888 52.4768C117.012 53.766 115.747 61.9683 114.584 64.1717C113.422 66.3751 112.912 66.9668 112.912 66.0692C112.912 65.1716 114.421 52.3995 114.605 52.1546C114.788 51.9098 116.888 52.4768 116.888 52.4768Z" fill="#B85F87"/>
<path opacity="0.8" d="M37.7232 59.0754C40.0213 59.2443 42.547 62.028 42.547 62.028C42.547 62.028 42.6425 61.9326 42.848 61.7929C43.2298 61.5211 43.9862 61.0879 45.1682 60.7794C46.3356 60.4783 47.9144 60.2945 49.9628 60.5222C55.2276 61.1096 60.404 63.9597 60.404 63.9597L60.4335 65.4727C60.4335 65.4727 61.0429 65.245 62.8417 64.9953C63.965 64.8339 65.5658 64.6722 67.7685 64.5546C70.4484 64.4078 72.6881 64.4591 74.3032 64.5546C76.0433 64.6575 77.0714 64.8043 77.1669 64.8189C77.1743 64.8189 77.1743 64.8189 77.1743 64.8189L77.2918 63.0562L77.2993 62.9903C77.2993 62.9903 81.059 61.3636 95.8685 58.0839C112.438 54.4146 114.071 55.8584 114.071 55.8584C114.071 55.8584 114.071 55.8438 114.078 55.8143C114.078 55.8143 114.078 55.8068 114.086 55.7996C114.152 55.5645 114.556 54.7348 116.883 54.9404C116.949 54.9478 117.023 54.955 117.096 54.9624C118.939 55.1755 121.817 56.0494 123.528 56.6005L124.461 50.1149C124.461 50.1149 119.945 50.7394 117.001 51.2168C116.142 51.3489 115.415 51.4811 114.974 51.5766C114.71 51.6279 114.548 51.6721 114.526 51.7016C114.519 51.7091 114.512 51.7458 114.504 51.7971L74.4214 59.2521C74.4214 59.2521 74.4139 59.5898 74.3993 60.1776C71.969 60.6696 68.8482 61.3162 68.1655 61.4188C68.0996 61.4263 68.0626 61.4334 68.0405 61.4334C67.9525 61.4334 66.0875 60.8677 63.268 60.339C63.3193 59.7366 63.3488 59.3693 63.3488 59.3105C63.3488 59.3105 49.743 57.3127 44.8384 56.5121C44.229 56.3358 43.6489 56.189 43.1129 56.0569C39.537 55.168 37.5985 55.1092 37.4739 55.1313C37.3706 55.1459 37.4881 56.7031 37.7232 59.0754Z" fill="#B52666"/>
<path d="M128.302 41.7864C128.302 42.1533 126.965 50.2039 126.634 50.3208C126.501 50.3728 117.044 52.4512 105.746 54.9095C104.775 55.1239 103.785 55.3382 102.792 55.5493C86.9332 59.0014 68.8279 62.9016 67.828 62.9893H67.6884C64.8186 62.8724 34.3542 55.9455 34.1107 55.6954C33.8672 55.4551 33.1725 46.9272 33.3315 46.7648C33.5004 46.5959 92.0008 37.2593 92.0008 37.1717C92.0008 37.0775 128.302 41.4194 128.302 41.7864Z" fill="url(#paint11_linear_534_1240)"/>
<path d="M128.302 41.7863C128.302 41.7863 71.5711 54.7048 68.2533 54.6399C64.9419 54.5814 35.3898 48.4924 33.3316 46.7647C33.5004 46.5958 92.0009 37.2592 92.0009 37.1716C92.0009 37.0774 128.302 41.4193 128.302 41.7863Z" fill="#FF6B1C"/>
<path d="M46.0504 46.6127C45.5881 46.828 65.2277 51.346 66.8996 51.3073C68.5715 51.2687 112.385 42.6329 111.899 42.2325C111.412 41.8317 91.7574 39.5585 91.0065 39.5585C90.2559 39.5585 47.6457 45.8697 46.0504 46.6127Z" fill="url(#paint12_linear_534_1240)"/>
<path d="M113.427 73.3958C113.427 73.3958 109.55 75.6366 99.7597 77.5136C89.9694 79.3907 84.866 79.6898 84.866 79.6898C84.866 79.6898 100.413 76.2896 113.427 73.3958Z" fill="#FFF65F"/>
<path d="M68.1907 70.3305C69.6603 70.1765 69.7402 76.9258 68.0482 75.8782C66.3558 74.8302 66.5204 70.5052 68.1907 70.3305Z" fill="#940A2F"/>
<path opacity="0.5" d="M69.3005 73.6551C69.4923 73.2959 69.403 70.2712 68.0068 70.3676C66.6105 70.4641 66.4829 73.9435 67.2082 73.8896C67.9334 73.836 67.9801 72.17 68.3966 72.5259C68.8125 72.8822 69.056 74.112 69.3005 73.6551Z" fill="#4F04C7"/>
<path opacity="0.6" d="M34.1106 55.6967C34.3528 55.9464 64.8172 62.8727 67.688 62.9903C67.9155 62.1381 68.2532 54.639 68.2532 54.639C64.9418 54.5802 35.388 48.4911 33.3321 46.7651C33.1707 46.9268 33.8684 55.4544 34.1106 55.6967Z" fill="#962C63"/>
<path opacity="0.2" d="M76.6679 80.574C76.69 80.5886 76.712 80.6035 76.7487 80.6181C77.1084 80.0524 77.2188 78.5615 77.248 78.4735C76.5578 77.9006 76.6679 73.3833 76.9104 68.9177C76.8 69.7916 75.6177 79.6413 76.6679 80.574Z" fill="#B52666"/>
<path d="M69.3045 73.9852C69.3045 73.9852 68.9952 75.8853 68.166 75.455C67.3366 75.0247 67.0795 74.2837 67.0564 74.3837C67.0334 74.4837 67.5593 76.2195 68.3387 76.0276C69.1182 75.8353 69.3838 74.0557 69.3045 73.9852Z" fill="#F1FF36"/>
<path opacity="0.2" d="M67.2026 54.9431C68.0756 55.1275 68.5794 61.9496 65.6424 62.072C62.7053 62.1944 38.1997 56.4155 36.7005 55.1275C35.2013 53.8396 33.4882 48.5143 34.1612 48.2694C34.8342 48.0246 66.4913 54.7927 67.2026 54.9431Z" fill="#B52666"/>
<path opacity="0.5" d="M113.695 42.7868C114.541 42.8183 114.755 45.0919 104.639 46.928C94.5223 48.7641 89.9331 48.0503 91.218 47.4382C92.503 46.826 113.165 42.767 113.695 42.7868Z" fill="#B83014"/>
<path opacity="0.2" d="M126.574 42.7868C127.982 42.8488 126.288 49.1681 124.086 50.2739C121.884 51.3797 85.3333 59.8225 80.3159 59.4553C75.2986 59.088 71.5457 55.8187 72.28 55.1273C73.0144 54.4362 122.414 42.6036 126.574 42.7868Z" fill="#B52666"/>
<path d="M114.536 44.9434C114.744 44.9372 110.187 46.5165 107.067 47.2306C103.946 47.9447 93.3403 49.7198 93.8708 49.4136C94.4009 49.1073 113.907 44.9616 114.536 44.9434Z" fill="#FFF65F"/>
<path opacity="0.1" d="M67.9521 51.8974C66.9119 51.2852 44.6632 46.8348 44.1389 46.9573C43.6146 47.0797 45.3161 49.5283 45.7108 49.9596C46.1056 50.3908 66.2327 54.4376 67.3063 54.2232C68.3803 54.0089 67.9521 51.8974 67.9521 51.8974Z" fill="#B52666"/>
<mask id="mask0_534_1240" style="mask-type:luminance" maskUnits="userSpaceOnUse" x="46" y="7" width="193" height="129">
<path d="M46.066 121.97C44.7152 122.599 102.1 135.8 106.985 135.687C111.87 135.574 239.89 110.342 238.468 109.172C237.38 108.277 233.597 25.8763 187.619 7.91951C173.477 2.39603 72.0588 42.9231 71.5428 42.9231C69.3497 42.9221 50.7273 119.799 46.066 121.97Z" fill="white"/>
</mask>
<g mask="url(#mask0_534_1240)">
<path opacity="0.7" d="M112.669 50.6943L58.2036 59.1703L56.4928 59.4366L55.8662 58.995L45.8932 51.9674C46.6269 50.3241 47.7177 48.7101 49.039 48.262C51.8537 47.3072 52.6069 47.4566 53.2107 47.1026C53.5678 46.8948 54.097 45.6737 54.9086 44.563C57.7362 46.5115 63.4791 49.9084 68.4689 50.1163C74.6046 50.3696 92.7845 44.4624 98.8845 41.4C101.274 42.4327 105.371 44.4331 105.705 47.0052C105.858 48.1613 109.172 49.5187 110.835 49.6681C111.172 49.6974 111.692 49.8987 112.315 50.2072C112.542 50.5157 112.669 50.6943 112.669 50.6943Z" fill="url(#paint13_linear_534_1240)"/>
</g>
<path opacity="0.6" d="M45.7445 59.4669C43.6827 60.1904 46.2977 71.4625 48.754 74.3034C51.2102 77.1443 58.8088 76.8755 59.6149 75.6086C60.4206 74.3418 60.1869 63.055 59.287 62.4023C58.3867 61.7499 46.3425 59.2571 45.7445 59.4669Z" fill="#BA64CF"/>
<path opacity="0.2" d="M78.1889 63.3527C76.8945 65.2425 78.2655 74.6778 83.3315 75.791C88.3972 76.9042 105.398 73.3339 108.085 69.6104C110.771 65.8864 112.268 60.3969 111.193 59.5905C110.119 58.7841 79.6089 61.2795 78.1889 63.3527Z" fill="#9264CF"/>
<path opacity="0.1" d="M88.7998 62.883C87.7772 63.5192 95.1015 70.0135 103.637 68.2475C112.172 66.4815 113.208 59.0486 111.366 58.7918C109.524 58.5349 90.4503 61.8564 88.7998 62.883Z" fill="#FF8AD2"/>
<path opacity="0.6" d="M90.0396 48.5133C89.9532 48.653 88.0554 50.4748 87.6801 51.0756C87.3051 51.6764 86.6143 53.9181 87.3626 56.195C88.1109 58.4715 89.0728 58.7777 89.0728 58.7777L90.3895 58.4935C90.3895 58.4935 90.5191 60.3433 95.9062 61.0344C101.294 61.7255 105.083 59.5353 105.505 57.6216C105.928 55.7075 90.0396 48.5133 90.0396 48.5133Z" fill="#B52666"/>
<path d="M101.271 42.2705C101.271 42.2705 95.6699 42.1302 92.5397 44.2479C90.0058 45.9622 87.9573 50.6019 89.2238 54.8773C90.4902 59.1526 94.9842 61.3681 99.8944 60.5098C104.805 59.6514 101.271 42.2705 101.271 42.2705Z" fill="url(#paint14_linear_534_1240)"/>
<path opacity="0.4" d="M101.271 42.2705C101.271 42.2705 95.6699 42.1302 92.5397 44.2479C90.0058 45.9622 87.9573 50.6019 89.2238 54.8773C90.4902 59.1526 94.9842 61.3681 99.8944 60.5098C104.805 59.6514 101.271 42.2705 101.271 42.2705Z" fill="#B52666"/>
<path opacity="0.4" d="M91.2485 51.8781C89.8519 51.7384 89.1332 54.0662 90.0253 56.5424C90.9174 59.0187 94.4398 60.9045 98.0271 60.6022C101.614 60.2998 91.6803 51.9212 91.2485 51.8781Z" fill="#B52666"/>
<path d="M91.4085 52.0327C91.4085 46.3424 96.2447 41.904 101.57 42.2947C106.3 42.6415 109.508 46.7532 109.204 51.3676C108.91 55.8293 105.383 59.801 100.91 60.4275C95.9117 61.1276 91.4085 57.4924 91.4085 52.0327Z" fill="url(#paint15_linear_534_1240)"/>
<path d="M94.8089 51.8281C94.7294 52.8095 95.4345 58.0919 100.926 57.5873C105.788 57.1404 106.723 52.7361 106.816 51.4725C106.899 50.3599 106.207 45.9995 102.024 45.5572C96.7713 45.0019 95.0128 49.3074 94.8089 51.8281Z" fill="url(#paint16_linear_534_1240)"/>
<path d="M95.5374 51.8781C95.5877 48.6069 98.3235 45.9735 101.434 46.0628C104.331 46.146 106.407 48.5933 106.248 51.4777C106.093 54.3017 103.832 56.763 101.033 57.0443C98.0378 57.3456 95.4884 55.0717 95.5374 51.8781Z" fill="url(#paint17_linear_534_1240)"/>
<path opacity="0.5" d="M94.8971 52.8904C94.8971 52.8904 94.8624 45.3552 101.454 45.5166C107.16 45.6562 106.787 51.7537 106.787 51.7537C106.787 51.7537 105.81 47.1858 101.533 47.0179C96.7706 46.8305 94.8971 52.8904 94.8971 52.8904Z" fill="#BE2F55"/>
<path opacity="0.2" d="M96.2977 53.912C95.6636 54.7102 98.2854 57.1023 101.49 56.7627C104.47 56.447 106.615 52.6396 105.775 51.5118C104.907 50.3479 96.7583 53.3317 96.2977 53.912Z" fill="#CF6481"/>
<path opacity="0.5" d="M96.0999 52.1474C95.2951 51.9947 96.9962 47.3998 101.263 47.2235C105.146 47.0631 105.601 49.943 105.104 50.2336C104.602 50.5269 96.6209 52.2458 96.0999 52.1474Z" fill="#F7FFC9"/>
<path opacity="0.2" d="M98.9933 56.0143C98.2408 56.62 100.979 57.0496 103.239 55.9698C104.564 55.3372 105.752 53.3741 105.459 52.9987C105.164 52.6197 99.5672 55.5525 98.9933 56.0143Z" fill="#CF6481"/>
<path opacity="0.5" d="M99.1029 46.3806C98.6088 46.5449 100.636 45.3414 102.629 45.6704C104.528 45.9838 106.01 48.4603 105.56 48.2934C105.105 48.1245 103.309 44.9839 99.1029 46.3806Z" fill="#BE2F55"/>
<path d="M95.965 55.5169C95.965 55.5169 96.9451 57.3455 98.0937 57.7771C99.2082 58.1957 100.792 57.5985 100.792 57.5985C100.792 57.5985 97.6447 57.8307 95.965 55.5169Z" fill="#FFD134"/>
<path d="M103.62 48.2973C102.866 48.269 102.178 49.4664 103.05 49.7492C103.902 50.0256 104.986 49.1335 104.79 48.7815C104.592 48.4269 104.156 48.3174 103.62 48.2973Z" fill="white"/>
<path opacity="0.5" d="M101.689 50.0323C101.445 49.9998 101.006 50.738 101.487 50.7727C101.962 50.8078 102.379 50.1242 101.689 50.0323Z" fill="#F7FFC9"/>
<path opacity="0.5" d="M94.4439 50.9654C92.6681 50.3876 93.2862 43.3539 99.7278 42.4455C106.439 41.4992 108.486 47.1681 108.833 48.5379C109.511 51.2138 107.05 54.1356 106.778 53.3374C106.503 52.5274 107.976 46.2506 102.247 45.4004C95.3873 44.3824 94.85 51.0975 94.4439 50.9654Z" fill="white"/>
<path opacity="0.2" d="M98.4694 58.3651C97.2238 58.4859 101.014 60.414 103.912 59.2533C106.637 58.1622 106.844 54.6042 106.173 54.9819C105.493 55.3648 104.371 57.7926 98.4694 58.3651Z" fill="#BE2F55"/>
<path d="M98.4515 45.2883C97.0039 45.5523 100.058 40.5667 104.58 43.1842C107.212 44.7079 106.669 48.1435 106.327 47.7365C105.982 47.3251 103.959 44.2835 98.4515 45.2883Z" fill="#FCFF34"/>
<path opacity="0.6" d="M112.806 45.5465C112.769 45.5816 110.121 47.8445 109.862 49.1172C109.603 50.3899 112.575 52.794 113.313 52.9382C114.05 53.0821 115.978 52.6784 115.978 52.6784L112.806 45.5465Z" fill="#B52666"/>
<path opacity="0.6" d="M80.6374 52.6245C80.6004 52.6596 77.953 54.9225 77.6939 56.1952C77.4348 57.4679 80.407 59.872 81.1442 60.0162C81.8818 60.1601 83.8098 59.7564 83.8098 59.7564L80.6374 52.6245Z" fill="#B52666"/>
<path d="M83.9464 59.7426C83.9188 59.891 81.4597 59.5111 81.2282 59.3971C81.0107 59.2866 78.5031 57.1858 78.3476 56.232C78.3441 56.208 78.3441 56.194 78.3441 56.194C78.3405 56.1664 78.3405 56.1388 78.3405 56.1145C78.3993 55.223 80.3195 52.8355 80.7584 52.5211C81.2006 52.2068 83.5422 51.882 83.5422 51.882C83.5422 51.882 83.8253 56.9264 83.9188 58.934C83.9432 59.4071 83.9536 59.7147 83.9464 59.7426Z" fill="url(#paint18_linear_534_1240)"/>
<path opacity="0.4" d="M83.9464 59.7426C83.9188 59.891 81.4597 59.5111 81.2282 59.3971C81.0107 59.2866 78.5031 57.1858 78.3476 56.232C78.3441 56.208 78.3441 56.194 78.3441 56.194C78.3405 56.1664 78.3405 56.1388 78.3405 56.1145C78.3993 55.223 80.3195 52.8355 80.7584 52.5211C81.2006 52.2068 83.5422 51.882 83.5422 51.882C83.5422 51.882 83.8253 56.9264 83.9188 58.934C83.9432 59.4071 83.9536 59.7147 83.9464 59.7426Z" fill="#B52666"/>
<path opacity="0.4" d="M83.9453 59.7422C83.9177 59.8906 81.4585 59.5106 81.2271 59.3966C81.0096 59.2862 78.502 57.1854 78.3465 56.2316C78.3429 56.2076 78.3429 56.1936 78.3429 56.1936C78.3429 56.1936 78.8887 55.6961 79.8522 55.9692C80.3876 56.1248 82.3149 57.631 83.9174 58.9335C83.9421 59.4067 83.9525 59.7142 83.9453 59.7422Z" fill="#B52666"/>
<path d="M86.8738 55.396C86.891 55.6113 86.6546 56.1484 86.3027 56.7765C85.6294 57.9794 84.4821 59.5944 83.9468 59.7412C83.2401 59.935 80.9007 58.1262 80.0423 56.7453C80.042 56.7421 80.0381 56.7366 80.0345 56.734C79.8712 56.4699 79.7732 56.2332 79.7602 56.0403C79.6619 54.5617 82.5635 51.8185 83.542 51.8809C84.3104 51.9306 86.8257 54.7835 86.8738 55.396Z" fill="url(#paint19_linear_534_1240)"/>
<path d="M81.3705 56.0243C81.3669 56.3926 81.7912 58.3723 83.8592 58.0008C85.6035 57.6871 85.7701 56.0821 85.7561 55.6337C85.7441 55.2414 85.3483 53.7381 83.8625 53.6352C81.9247 53.501 81.3793 55.0874 81.3705 56.0243Z" fill="url(#paint20_linear_534_1240)"/>
<path d="M81.6526 56.0261C81.5796 54.8203 82.5301 53.8285 83.6674 53.8198C84.7004 53.812 85.51 54.6329 85.5587 55.6471C85.6071 56.6548 84.8916 57.6073 83.881 57.7954C82.7694 58.0025 81.725 57.2225 81.6526 56.0261Z" fill="url(#paint21_linear_534_1240)"/>
<path opacity="0.5" d="M81.4343 56.4185C81.4343 56.4185 81.2142 53.6507 83.6568 53.6273C85.6641 53.6081 85.7563 55.733 85.7563 55.733C85.7563 55.733 85.2525 54.1527 83.7335 54.1544C81.9765 54.1566 81.4343 56.4185 81.4343 56.4185Z" fill="#BE2F55"/>
<path opacity="0.2" d="M82.0022 56.7644C81.7821 57.081 82.8554 57.9026 84.0397 57.6769C85.1094 57.473 85.7288 56.0499 85.3941 55.6687C85.048 55.2744 82.161 56.5361 82.0022 56.7644Z" fill="#CF6481"/>
<path opacity="0.5" d="M81.8746 56.1123C81.5617 56.0746 82.0766 54.3583 83.642 54.231C85.0165 54.1193 85.2766 55.1186 85.1123 55.2303C84.9458 55.3436 82.0759 56.1366 81.8746 56.1123Z" fill="#F7FFC9"/>
<path opacity="0.2" d="M83.0882 57.4736C82.824 57.723 83.8612 57.799 84.6501 57.3343C85.1033 57.0673 85.4539 56.3311 85.337 56.2041C85.2192 56.0755 83.2879 57.2852 83.0882 57.4736Z" fill="#CF6481"/>
<path opacity="0.5" d="M82.8291 53.9627C82.6519 54.028 83.356 53.5756 84.0822 53.6672C84.7637 53.7529 85.3672 54.5927 85.2045 54.5417C85.0393 54.4898 84.3007 53.4204 82.8291 53.9627Z" fill="#BE2F55"/>
<path d="M81.9203 57.3763C81.9203 57.3763 82.3511 58.0375 82.8027 58.1632C83.2371 58.2843 83.8088 58.0089 83.8088 58.0089C83.8088 58.0089 82.6336 58.1982 81.9203 57.3763Z" fill="#FFD134"/>
<path d="M84.5227 54.574C84.2533 54.5763 84.0465 55.0124 84.3689 55.0972C84.6818 55.1793 85.0341 54.8455 84.9526 54.725C84.8705 54.6039 84.713 54.5724 84.5227 54.574Z" fill="white"/>
<path opacity="0.5" d="M83.8868 55.2235C83.7972 55.2163 83.6615 55.4901 83.8374 55.493C84.0108 55.4959 84.1387 55.2433 83.8868 55.2235Z" fill="#F7FFC9"/>
<path d="M115.882 52.8049C115.854 52.9537 113.395 52.5734 113.163 52.4594C112.946 52.349 110.438 50.2482 110.283 49.2944C110.279 49.27 110.279 49.2564 110.279 49.2564C110.276 49.2288 110.276 49.2012 110.276 49.1768C110.335 48.2854 112.255 45.8978 112.694 45.5835C113.136 45.2691 115.478 44.9444 115.478 44.9444C115.478 44.9444 115.761 49.9887 115.854 51.9963C115.878 52.4698 115.889 52.7773 115.882 52.8049Z" fill="url(#paint22_linear_534_1240)"/>
<path opacity="0.4" d="M115.882 52.8049C115.854 52.9537 113.395 52.5734 113.163 52.4594C112.946 52.349 110.438 50.2482 110.283 49.2944C110.279 49.27 110.279 49.2564 110.279 49.2564C110.276 49.2288 110.276 49.2012 110.276 49.1768C110.335 48.2854 112.255 45.8978 112.694 45.5835C113.136 45.2691 115.478 44.9444 115.478 44.9444C115.478 44.9444 115.761 49.9887 115.854 51.9963C115.878 52.4698 115.889 52.7773 115.882 52.8049Z" fill="#B52666"/>
<path opacity="0.4" d="M115.882 52.8055C115.855 52.9542 113.395 52.5739 113.164 52.4599C112.946 52.3495 110.439 50.2487 110.283 49.2949C110.28 49.2706 110.28 49.2569 110.28 49.2569C110.28 49.2569 110.826 48.7594 111.789 49.0322C112.324 49.1878 114.252 50.6943 115.854 51.9969C115.879 52.4703 115.889 52.7779 115.882 52.8055Z" fill="#B52666"/>
<path d="M118.81 48.4592C118.827 48.6748 118.591 49.2119 118.239 49.8397C117.566 51.0426 116.418 52.6575 115.883 52.8043C115.176 52.9982 112.837 51.1893 111.978 49.8085C111.978 49.8056 111.974 49.7997 111.971 49.7971C111.807 49.5328 111.709 49.2964 111.696 49.1038C111.598 47.6252 114.5 44.8817 115.478 44.9441C116.247 44.9938 118.762 47.8464 118.81 48.4592Z" fill="url(#paint23_linear_534_1240)"/>
<path d="M113.306 49.0872C113.303 49.4554 113.727 51.4351 115.795 51.0633C117.539 50.7496 117.706 49.1447 117.692 48.6962C117.68 48.3039 117.284 46.8006 115.798 46.6977C113.86 46.5639 113.315 48.1503 113.306 49.0872Z" fill="url(#paint24_linear_534_1240)"/>
<path d="M113.587 49.0887C113.514 47.8829 114.465 46.8911 115.602 46.8823C116.635 46.8745 117.445 47.6955 117.493 48.7097C117.542 49.7174 116.826 50.6699 115.816 50.8579C114.704 51.0651 113.66 50.2854 113.587 49.0887Z" fill="url(#paint25_linear_534_1240)"/>
<path opacity="0.5" d="M113.37 49.4819C113.37 49.4819 113.15 46.714 115.592 46.6907C117.6 46.6715 117.692 48.7963 117.692 48.7963C117.692 48.7963 117.188 47.2161 115.669 47.2177C113.912 47.22 113.37 49.4819 113.37 49.4819Z" fill="#BE2F55"/>
<path opacity="0.2" d="M113.938 49.8277C113.718 50.1444 114.791 50.966 115.975 50.7403C117.045 50.5363 117.664 49.1133 117.33 48.732C116.984 48.3378 114.097 49.5997 113.938 49.8277Z" fill="#CF6481"/>
<path opacity="0.5" d="M113.811 49.1757C113.498 49.138 114.013 47.4217 115.578 47.2944C116.953 47.1827 117.213 48.1819 117.049 48.2933C116.882 48.4066 114.012 49.2 113.811 49.1757Z" fill="#F7FFC9"/>
<path opacity="0.2" d="M115.024 50.5365C114.76 50.7859 115.797 50.8619 116.586 50.3972C117.039 50.1303 117.389 49.3941 117.273 49.2671C117.155 49.1385 115.223 50.3482 115.024 50.5365Z" fill="#CF6481"/>
<path opacity="0.5" d="M114.765 47.0257C114.587 47.0909 115.292 46.6386 116.018 46.7302C116.699 46.8159 117.303 47.6557 117.14 47.6047C116.975 47.5527 116.236 46.4833 114.765 47.0257Z" fill="#BE2F55"/>
<path d="M113.857 50.4397C113.857 50.4397 114.288 51.1009 114.739 51.2265C115.173 51.3477 115.745 51.0723 115.745 51.0723C115.745 51.0723 114.57 51.2616 113.857 50.4397Z" fill="#FFD134"/>
<path d="M116.457 47.6369C116.188 47.6392 115.981 48.0753 116.304 48.1601C116.617 48.2423 116.969 47.9084 116.887 47.7879C116.805 47.6668 116.648 47.6356 116.457 47.6369Z" fill="white"/>
<path opacity="0.5" d="M115.823 48.2868C115.733 48.28 115.598 48.5534 115.774 48.5564C115.947 48.5593 116.075 48.3066 115.823 48.2868Z" fill="#F7FFC9"/>
<path d="M105.447 49.6628C106.749 49.6628 107.805 48.6068 107.805 47.3041C107.805 46.0015 106.749 44.9454 105.447 44.9454C104.145 44.9454 103.089 46.0015 103.089 47.3041C103.089 48.6068 104.145 49.6628 105.447 49.6628Z" fill="url(#paint26_radial_534_1240)"/>
<path d="M68.3602 95.9747L67.071 95.6937C67.3996 94.1863 66.4438 92.6976 64.9369 92.3693L65.2177 91.0797C66.7247 91.4083 68.2128 90.4523 68.541 88.9448L69.8302 89.2257C69.5016 90.7332 70.4574 92.2218 71.9644 92.5502L71.6836 93.8397C70.1766 93.5114 68.6887 94.4672 68.3602 95.9747Z" fill="url(#paint27_radial_534_1240)"/>
<path opacity="0.63" d="M66.3011 92.2195C67.686 85.8626 69.7494 80.914 70.91 81.167C72.0706 81.42 71.8888 86.7787 70.5042 93.1357C69.1193 99.4927 67.0559 104.441 65.8953 104.188C64.7347 103.935 64.9165 98.5769 66.3011 92.2195Z" fill="url(#paint28_radial_534_1240)"/>
<path opacity="0.63" d="M67.6517 92.5135C69.0366 86.1565 70.4959 81.0765 70.9111 81.1671C71.3266 81.2577 70.5406 86.4845 69.1557 92.8415C67.7708 99.1985 66.3115 104.279 65.8963 104.188C65.4811 104.097 66.2667 98.8705 67.6517 92.5135Z" fill="url(#paint29_radial_534_1240)"/>
<path opacity="0.63" d="M68.821 90.7607C75.5453 92.2266 80.8311 94.1754 80.6266 95.1136C80.4221 96.0518 74.8051 95.6244 68.0808 94.1585C61.3565 92.6926 56.071 90.7438 56.2752 89.8056C56.4797 88.867 62.0967 89.2947 68.821 90.7607Z" fill="url(#paint30_radial_534_1240)"/>
<path opacity="0.63" d="M68.5638 91.9364C75.2881 93.4023 80.6885 94.8247 80.6255 95.1138C80.5625 95.4028 75.0602 94.449 68.3358 92.9831C61.6115 91.5172 56.2111 90.0947 56.2741 89.8057C56.3371 89.5167 61.8394 90.4705 68.5638 91.9364Z" fill="url(#paint31_radial_534_1240)"/>
<path opacity="0.63" d="M67.914 91.6241C72.2951 88.8098 76.0866 86.9026 76.3826 87.364C76.6787 87.8255 73.3674 90.481 68.9866 93.2953C64.6056 96.1095 60.8141 98.0168 60.518 97.5553C60.2216 97.0935 63.533 94.4384 67.914 91.6241Z" fill="url(#paint32_radial_534_1240)"/>
<path opacity="0.63" d="M69.2858 91.9227C72.0992 96.3052 74.0058 100.098 73.5445 100.394C73.0832 100.69 70.4286 97.3778 67.6156 92.9953C64.8022 88.6128 62.8956 84.82 63.3569 84.5239C63.8182 84.2277 66.4728 87.5405 69.2858 91.9227Z" fill="url(#paint33_radial_534_1240)"/>
<path d="M105.336 49.6384L105.055 49.577C105.32 48.3628 104.55 47.1638 103.336 46.8991L103.398 46.6179C104.612 46.8826 105.81 46.1126 106.075 44.8983L106.356 44.9597C106.091 46.174 106.861 47.3729 108.075 47.6376L108.013 47.9188C106.799 47.6542 105.601 48.4242 105.336 49.6384Z" fill="url(#paint34_radial_534_1240)"/>
<path opacity="0.63" d="M104.215 47.1022C105.175 42.6953 106.606 39.265 107.41 39.4404C108.215 39.6157 108.089 43.3305 107.129 47.7371C106.169 52.1439 104.739 55.5743 103.934 55.3989C103.129 55.2239 103.255 51.5091 104.215 47.1022Z" fill="url(#paint35_radial_534_1240)"/>
<path opacity="0.63" d="M105.151 47.3058C106.111 42.899 107.122 39.3774 107.41 39.44C107.698 39.5027 107.153 43.1263 106.193 47.5332C105.233 51.94 104.222 55.4616 103.934 55.3989C103.646 55.3359 104.191 51.7127 105.151 47.3058Z" fill="url(#paint36_radial_534_1240)"/>
<path opacity="0.63" d="M105.962 46.091C110.623 47.1072 114.287 48.4582 114.146 49.1086C114.004 49.7591 110.11 49.4626 105.449 48.4465C100.787 47.4303 97.1233 46.0794 97.2648 45.4289C97.4064 44.7784 101.3 45.0749 105.962 46.091Z" fill="url(#paint37_radial_534_1240)"/>
<path opacity="0.63" d="M105.785 46.9059C110.446 47.922 114.19 48.9083 114.146 49.1087C114.103 49.3091 110.288 48.6479 105.627 47.6317C100.965 46.6156 97.2218 45.6293 97.2653 45.4289C97.3088 45.2286 101.123 45.8898 105.785 46.9059Z" fill="url(#paint38_radial_534_1240)"/>
<path opacity="0.63" d="M105.333 46.6895C108.37 44.7387 110.999 43.4163 111.204 43.7362C111.41 44.0561 109.114 45.8967 106.077 47.8478C103.04 49.7986 100.412 51.121 100.207 50.8011C100.001 50.4809 102.296 48.6402 105.333 46.6895Z" fill="url(#paint39_radial_534_1240)"/>
<path opacity="0.63" d="M106.284 46.8965C108.234 49.9346 109.556 52.5638 109.236 52.7693C108.916 52.9749 107.076 50.6786 105.126 47.6405C103.176 44.6025 101.854 41.9733 102.173 41.7677C102.493 41.5622 104.334 43.8585 106.284 46.8965Z" fill="url(#paint40_radial_534_1240)"/>
<path opacity="0.6" d="M68.9493 102.323C67.578 102.323 35.0142 92.6488 34.4753 92.4173C34.1747 92.2861 34.907 89.325 35.6047 86.7611C35.6047 86.7611 35.6047 86.7575 35.6047 86.7543C35.6115 86.7371 35.6187 86.7163 35.6219 86.6955C36.1573 84.7363 36.665 83.0297 36.665 83.0297C36.665 83.0297 67.1047 92.3585 68.2513 92.5521L68.3621 94.0794L68.9493 102.323Z" fill="#962C63"/>
<path opacity="0.2" d="M68.9497 102.323C68.9081 102.323 68.8321 102.313 68.7321 102.296C68.6873 102.289 68.639 102.279 68.587 102.268C68.5766 102.268 68.5663 102.265 68.5559 102.261C68.5247 102.255 68.4903 102.247 68.4556 102.241C68.39 102.227 68.3173 102.209 68.2413 102.192C68.1481 102.171 68.0514 102.147 67.9442 102.12C67.4952 102.013 66.9148 101.864 66.2275 101.678C58.1177 99.5111 34.9278 92.6115 34.4753 92.4179C34.1747 92.2867 34.907 89.3256 35.6047 86.7617C35.47 87.3456 34.9934 91.6128 47.7937 96.0733C61.5715 100.872 68.362 94.0797 68.362 94.0797L68.5003 96.0385C68.5003 96.0385 68.5003 96.0454 68.5039 96.0558L68.9497 102.323Z" fill="#5B51CF"/>
<path opacity="0.2" d="M129.027 89.384C128.903 89.923 70.3202 102.323 68.9492 102.323L68.5035 96.0556C68.5658 96.3528 69.7745 100.485 88.7024 97.7625C108.335 94.943 126.53 82.8399 126.613 83.0299C127.701 85.4519 129.11 89.0313 129.027 89.384Z" fill="#CF5173"/>
<path opacity="0.4" d="M37.4352 83.7676C35.2897 83.5445 38.1329 95.076 50.0489 96.3429C61.9652 97.6097 64.8298 93.4422 64.2179 92.6755C63.6056 91.9087 39.4431 83.9761 37.4352 83.7676Z" fill="#B52666"/>
<path d="M61.0354 90.4436C61.0354 90.4436 67.6545 93.4163 68.3119 93.3774C68.9693 93.3384 78.6771 90.6244 78.505 90.6283C78.333 90.6322 70.312 93.4732 61.0354 90.4436Z" fill="#FFF65F"/>
<path opacity="0.5" d="M73.8693 92.9358C71.6179 94.4676 86.3326 98.1759 95.9134 95.6997C105.494 93.2235 111.078 85.4331 108.2 85.3837C105.321 85.3343 76.3233 91.2656 73.8693 92.9358Z" fill="#B83014"/>
<path d="M85.0456 89.2914C84.7801 89.3534 94.5667 88.0414 102.894 86.4674C111.222 84.8933 121.648 81.6098 121.538 81.6331C121.428 81.6562 89.724 88.1996 85.0456 89.2914Z" fill="#FFE45F"/>
<path opacity="0.3" d="M166.171 77.7688C166.171 72.7135 155.07 68.6159 141.377 68.6159C128.677 68.6159 118.209 72.1408 116.756 76.685C114.35 76.398 111.783 76.1617 109.12 76.2418C87.9064 76.8805 84.3254 80.3397 84.3254 85.3946C84.3254 90.1957 94.3394 94.1326 107.077 94.5163C111.402 95.873 117.004 96.6921 123.124 96.6921C136.818 96.6921 147.918 92.5945 147.918 87.5395C147.918 87.226 147.876 86.9164 147.793 86.6112C158.376 85.5675 166.171 82.0044 166.171 77.7688Z" fill="black"/>
<path d="M135.986 65.8134C127.46 66.5657 123.893 69.9882 123.893 69.9882L123.274 75.293L123.333 75.2941C123.658 79.3402 132.188 82.7024 142.677 82.8573C143.033 82.8625 143.387 82.8638 143.738 82.8617L145.716 65.9114C142.104 65.6286 138.595 65.5839 135.986 65.8134Z" fill="#D38824"/>
<path d="M162.052 76.0567H162.056L162.617 71.0802C162.619 68.4183 153.901 66.5527 145.715 65.9114L143.738 82.8617C153.574 82.8008 161.471 79.8642 162.052 76.0567Z" fill="#EA9821"/>
<path d="M162.617 71.0804C162.602 75.2375 153.911 78.4788 143.206 78.3207C132.501 78.1619 123.836 74.6638 123.851 70.5072C123.866 66.3501 132.557 63.1082 143.262 63.267C153.967 63.4254 162.633 66.9235 162.617 71.0804Z" fill="#FFBB22"/>
<path d="M157.743 71.0079C157.732 73.7808 151.228 75.9321 143.215 75.8141C135.202 75.6956 128.714 73.3518 128.724 70.579C128.734 67.8063 135.239 65.6547 143.252 65.7735C151.265 65.8915 157.753 68.2352 157.743 71.0079Z" fill="#DD9A24"/>
<path d="M143.204 66.1917C135.587 66.0794 129.335 68.0179 128.726 70.5911C128.734 73.3583 135.214 75.6952 143.215 75.8138C150.832 75.9263 157.085 73.9879 157.694 71.4146C157.685 68.6472 151.205 66.3103 143.204 66.1917Z" fill="#EFA91B"/>
<path d="M141.96 70.1758L141.433 68.2665L141.692 67.7726L144.055 67.8617L144.745 70.0856C145.458 69.7011 146.116 69.2218 146.116 69.2218L145.749 68.117L146.008 67.6226L148.559 67.7107L151.288 72.8582L151.029 73.3521L147.979 73.6266L147.079 71.7987C146.608 72.055 146.147 72.2549 145.699 72.4088L146.245 73.6953L145.986 74.1889L143.093 74.2796L142.69 72.8208C140.17 72.6557 138.506 71.2751 138.506 71.2751L135.062 73.2029L132.327 72.0438L132.586 71.5496L139.126 68.6923C139.125 68.6928 140.343 70.1171 141.96 70.1758Z" fill="#DD9A24"/>
<path d="M148.589 67.5745L146.006 67.6234L146.374 68.7282C146.374 68.7282 145.826 69.3903 144.846 69.7836L144.093 67.6759L141.69 67.7731L142.283 69.9213C141.423 69.6936 140.45 69.1766 139.383 68.1994C136.045 69.7849 132.584 71.551 132.584 71.551L135.319 72.7103L138.763 70.7828C138.763 70.7828 140.427 72.1631 142.948 72.3285L143.35 73.787L146.243 73.6966L145.643 72.0173C146.189 71.8541 146.755 71.6222 147.336 71.3058L148.236 73.1338L151.286 72.8593L148.589 67.5745Z" fill="#FFBB22"/>
<path d="M135.758 59.4477C127.233 60.1995 123.667 63.6223 123.667 63.6223L123.048 68.9271L123.106 68.9281C123.431 72.9745 131.961 76.3364 142.451 76.4913C142.806 76.4971 143.16 76.4979 143.511 76.4955L145.489 59.5452C141.877 59.2621 138.369 59.2174 135.758 59.4477Z" fill="#D38824"/>
<path d="M161.826 69.6911H161.829L162.391 64.7139C162.393 62.0515 153.675 60.1866 145.489 59.545L143.511 76.4953C153.348 76.435 161.244 73.4981 161.826 69.6911Z" fill="#EA9821"/>
<path d="M162.39 64.714C162.375 68.8714 153.684 72.1127 142.979 71.9544C132.274 71.7961 123.609 68.2977 123.625 64.1408C123.64 59.984 132.331 56.7424 143.035 56.9007C153.741 57.0593 162.406 60.5572 162.39 64.714Z" fill="#FFBB22"/>
<path d="M157.516 64.6418C157.505 67.4142 151.001 69.5658 142.988 69.447C134.975 69.3284 128.488 66.9852 128.498 64.2126C128.508 61.44 135.013 59.2881 143.025 59.4067C151.039 59.5252 157.527 61.8689 157.516 64.6418Z" fill="#DD9A24"/>
<path d="M142.976 59.8266C135.36 59.7135 129.107 61.652 128.498 64.225C128.506 66.9929 134.986 69.3299 142.987 69.4479C150.604 69.5604 156.857 67.6222 157.466 65.0493C157.458 62.2818 150.977 59.9444 142.976 59.8266Z" fill="#EFA91B"/>
<path d="M141.734 63.8095L141.207 61.9002L141.466 61.4055L143.829 61.4946L144.518 63.719C145.232 63.3351 145.89 62.8552 145.89 62.8552L145.522 61.7502L145.781 61.2563L148.334 61.3444L151.062 66.4914L150.803 66.9856L147.753 67.2603L146.853 65.4321C146.382 65.6887 145.921 65.8888 145.472 66.0427L146.018 67.3292L145.759 67.8229L142.867 67.9136L142.464 66.4548C139.943 66.2897 138.279 64.9093 138.279 64.9093L134.835 66.8371L132.1 65.6778L132.36 65.1841L138.899 62.326C138.899 62.3265 140.117 63.7507 141.734 63.8095Z" fill="#DD9A24"/>
<path d="M148.363 61.2082L145.781 61.2573L146.149 62.3624C146.149 62.3624 145.601 63.0245 144.62 63.418L143.867 61.3101L141.465 61.4065L142.058 63.555C141.199 63.3273 140.225 62.8105 139.157 61.8336C135.82 63.4188 132.359 65.1854 132.359 65.1854L135.094 66.3446L138.538 64.4165C138.538 64.4165 140.202 65.7968 142.723 65.9627L143.125 67.4207L146.018 67.3305L145.418 65.651C145.964 65.4878 146.53 65.2567 147.111 64.94L148.011 66.768L151.061 66.493L148.363 61.2082Z" fill="#FFBB22"/>
<path d="M136.989 50.6193C128.422 51.0711 124.653 54.6238 124.653 54.6238L123.718 60.3388L123.777 60.3427C123.86 64.7353 132.187 68.7362 142.663 69.3492C143.019 69.37 143.372 69.3864 143.723 69.3986L146.71 51.1376C143.116 50.6785 139.612 50.4807 136.989 50.6193Z" fill="#D38824"/>
<path d="M162.437 62.8116L162.44 62.8121L163.298 57.4496C163.459 54.5683 154.855 52.1799 146.71 51.1383L143.723 69.3992C153.56 69.7509 161.629 66.9076 162.437 62.8116Z" fill="#EA9821"/>
<path d="M163.299 57.4488C163.036 61.947 154.155 65.0867 143.464 64.4607C132.772 63.8355 124.319 59.6813 124.582 55.1836C124.845 50.6852 133.726 47.5458 144.417 48.1715C155.109 48.7969 163.563 52.9504 163.299 57.4488Z" fill="#FFBB22"/>
<path d="M158.43 57.1647C158.254 60.1653 151.624 62.2176 143.621 61.7494C135.618 61.281 129.273 58.4694 129.448 55.4688C129.624 52.4684 136.254 50.4159 144.257 50.8843C152.26 51.3525 158.606 54.1643 158.43 57.1647Z" fill="#DD9A24"/>
<path d="M144.183 51.3345C136.576 50.8895 130.21 52.7221 129.448 55.4812C129.291 58.4767 135.63 61.2813 143.621 61.7486C151.228 62.1937 157.594 60.361 158.356 57.6022C158.513 54.6068 152.174 51.8022 144.183 51.3345Z" fill="#EFA91B"/>
<path d="M142.701 55.5936L142.288 53.5044L142.577 52.9808L144.934 53.1774L145.491 55.6139C146.227 55.2284 146.914 54.7371 146.914 54.7371L146.612 53.526L146.9 53.0024L149.446 53.206L151.867 58.8926L151.578 59.4164L148.513 59.5841L147.722 57.5674C147.236 57.825 146.764 58.0215 146.306 58.1689L146.775 59.5846L146.486 60.1081L143.59 60.0835L143.274 58.4881C140.764 58.2019 139.184 56.6376 139.184 56.6376L135.626 58.5781L132.961 57.2074L133.25 56.6838L139.957 53.8686C139.956 53.8683 141.089 55.4613 142.701 55.5936Z" fill="#DD9A24"/>
<path d="M149.486 53.0587L146.901 53.0028L147.203 54.2139C147.203 54.2139 146.616 54.9072 145.612 55.2914L144.986 52.9781L142.578 52.9812L143.043 55.3311C142.197 55.0478 141.254 54.4473 140.246 53.3449C136.816 54.9194 133.251 56.6837 133.251 56.6837L135.915 58.0544L139.473 56.1139C139.473 56.1139 141.053 57.6782 143.564 57.9644L143.879 59.5598L146.776 59.585L146.276 57.7422C146.832 57.588 147.411 57.3619 148.011 57.0442L148.802 59.0606L151.868 58.893L149.486 53.0587Z" fill="#FFBB22"/>
<path d="M143.471 34.0628C136.031 29.7905 130.937 30.7274 130.937 30.7274L127.049 35.0189L127.096 35.054C124.781 38.7884 129.601 46.6688 138.065 52.872C138.353 53.0823 138.641 53.2882 138.929 53.4894L151.352 39.7765C148.584 37.4393 145.749 35.3709 143.471 34.0628Z" fill="#D38824"/>
<path d="M158.219 58.1189L158.223 58.121L161.855 54.0837C163.554 51.7517 157.626 45.0741 151.352 39.7769L138.929 53.4898C146.998 59.1262 155.318 61.1198 158.219 58.1189Z" fill="#EA9821"/>
<path d="M161.854 54.0838C159.19 57.7182 150.028 55.5325 141.39 49.2019C132.751 42.8714 127.908 34.7929 130.572 31.1586C133.234 27.5242 142.397 29.7096 151.036 36.0402C159.674 42.3707 164.517 50.4489 161.854 54.0838Z" fill="#FFBB22"/>
<path d="M157.921 51.2011C156.144 53.6254 149.462 51.7491 142.996 47.0102C136.529 42.2713 132.728 36.4646 134.504 34.0405C136.281 31.6163 142.963 33.4926 149.429 38.2315C155.896 42.9701 159.697 48.7768 157.921 51.2011Z" fill="#DD9A24"/>
<path d="M149.122 38.5702C142.976 34.0661 136.635 32.1482 134.497 34.0515C132.739 36.4823 136.539 42.2784 142.996 47.0103C149.142 51.5144 155.483 53.4323 157.621 51.529C159.379 49.0984 155.579 43.3021 149.122 38.5702Z" fill="#EFA91B"/>
<path d="M145.565 41.3421L146.352 39.3636L146.879 39.0802L148.751 40.5253L147.897 42.8737C148.724 42.9496 149.567 42.9101 149.567 42.9101L149.971 41.7289L150.498 41.4455L152.525 42.9992L151.47 49.0891L150.944 49.3722L148.279 47.8486L148.709 45.7256C148.161 45.6778 147.658 45.5868 147.194 45.462L146.818 46.9052L146.292 47.1886L143.873 45.5951L144.474 44.0837C142.521 42.4806 142.044 40.3082 142.044 40.3082L138.003 40.0062L136.51 37.4082L137.036 37.1254L144.197 38.4028C144.196 38.4028 144.282 40.3558 145.565 41.3421Z" fill="#DD9A24"/>
<path d="M152.638 42.8963L150.498 41.4458L150.093 42.6272C150.093 42.6272 149.224 42.8906 148.172 42.6683L148.902 40.3852L146.879 39.0805L145.993 41.3064C145.437 40.6098 144.971 39.5931 144.723 38.1197C140.987 37.5793 137.036 37.1254 137.036 37.1254L138.529 39.7234L142.57 40.0254C142.57 40.0254 143.048 42.1978 145.001 43.8009L144.4 45.312L146.818 46.9058L147.4 45.0872C147.95 45.2595 148.559 45.384 149.235 45.4428L148.805 47.5658L151.47 49.0893L152.638 42.8963Z" fill="#FFBB22"/>
<g opacity="0.15">
<path d="M153.835 38.2663L148.819 53.5989C150.114 54.1884 151.374 54.6667 152.571 55.0278L157.048 41.3443C156.083 40.3087 155.008 39.2759 153.835 38.2663Z" fill="white"/>
<path d="M142.166 31.0253L134.425 42.8351C135.275 43.8248 136.23 44.8185 137.278 45.7986L145.833 32.748C144.585 32.0774 143.355 31.5 142.166 31.0253Z" fill="white"/>
<path d="M157.824 42.2019L154.077 55.4269C154.556 55.5358 155.022 55.6231 155.474 55.6892L158.92 43.5264C158.576 43.0868 158.21 42.6446 157.824 42.2019Z" fill="white"/>
</g>
<path d="M116.381 74.7715C107.886 75.8105 104.437 79.3513 104.437 79.3513L103.997 84.674L104.056 84.6735C104.517 88.7061 113.156 91.7782 123.645 91.5793C124.001 91.5723 124.354 91.5611 124.705 91.5474L126.109 74.5401C122.49 74.3792 118.982 74.4533 116.381 74.7715Z" fill="#D38824"/>
<path d="M142.78 84.1287H142.783L143.177 79.1361C143.089 76.4753 134.313 74.9055 126.11 74.5407L124.706 91.548C134.534 91.1554 142.328 87.9539 142.78 84.1287Z" fill="#EA9821"/>
<path d="M143.176 79.136C143.301 83.291 134.725 86.8243 124.02 87.0273C113.316 87.2308 104.538 84.0272 104.413 79.8724C104.288 75.7171 112.864 72.1839 123.568 71.9809C134.273 71.7773 143.051 74.9809 143.176 79.136Z" fill="#FFBB22"/>
<path d="M138.304 79.2284C138.387 82.0002 131.959 84.3697 123.947 84.5223C115.934 84.6746 109.371 82.5508 109.288 79.7795C109.204 77.0079 115.633 74.6382 123.645 74.4856C131.657 74.3338 138.22 76.4571 138.304 79.2284Z" fill="#DD9A24"/>
<path d="M123.61 74.9061C115.994 75.0509 109.81 77.1991 109.288 79.7916C109.39 82.5572 115.945 84.6742 123.946 84.5222C131.562 84.3774 137.747 82.2292 138.268 79.6367C138.166 76.8713 131.611 74.7543 123.61 74.9061Z" fill="#EFA91B"/>
<path d="M122.5 78.9303L121.908 77.0397L122.151 76.5369L124.516 76.5458L125.28 78.7457C125.98 78.3376 126.622 77.8359 126.622 77.8359L126.217 76.7444L126.459 76.2416L129.013 76.2437L131.914 81.2958L131.672 81.7988L128.632 82.1763L127.671 80.3795C127.209 80.6514 126.755 80.8669 126.312 81.0359L126.901 82.3031L126.659 82.8056L123.771 82.9936L123.32 81.5498C120.794 81.4695 119.085 80.1461 119.085 80.1461L115.708 82.1893L112.936 81.1227L113.178 80.6205L119.617 77.5435C119.617 77.544 120.882 78.9261 122.5 78.9303Z" fill="#DD9A24"/>
<path d="M129.038 76.1057L126.459 76.2422L126.864 77.334C126.864 77.334 126.339 78.0145 125.372 78.4406L124.549 76.3592L122.151 76.5372L122.816 78.6644C121.949 78.4658 120.959 77.9818 119.859 77.0413C116.577 78.739 113.178 80.621 113.178 80.621L115.95 81.6873L119.327 79.6444C119.327 79.6444 121.036 80.9675 123.562 81.0479L124.013 82.4916L126.902 82.3037L126.245 80.6457C126.785 80.464 127.343 80.2132 127.913 79.8778L128.875 81.6743L131.914 81.2964L129.038 76.1057Z" fill="#FFBB22"/>
<path d="M115.728 69.1602C107.233 70.2 103.784 73.7405 103.784 73.7405L103.344 79.0632L103.403 79.0622C103.865 83.0956 112.503 86.1674 122.992 85.9683C123.348 85.9615 123.701 85.9506 124.053 85.9368L125.457 68.9293C121.837 68.7684 118.329 68.8423 115.728 69.1602Z" fill="#D38824"/>
<path d="M142.125 78.5183H142.129L142.522 73.5251C142.434 70.8643 133.658 69.2947 125.455 68.93L124.051 85.9375C133.88 85.5444 141.673 82.3429 142.125 78.5183Z" fill="#EA9821"/>
<path d="M142.522 73.5245C142.647 77.6798 134.071 81.2128 123.367 81.4161C112.663 81.6196 103.884 78.416 103.759 74.2607C103.634 70.1059 112.211 66.5722 122.914 66.3691C133.618 66.1661 142.397 69.3697 142.522 73.5245Z" fill="#FFBB22"/>
<path d="M137.649 73.6173C137.732 76.3886 131.304 78.7586 123.292 78.9109C115.279 79.063 108.716 76.9397 108.633 74.1684C108.55 71.3968 114.978 69.0268 122.99 68.8745C131.003 68.7227 137.566 70.8457 137.649 73.6173Z" fill="#DD9A24"/>
<path d="M122.956 69.295C115.34 69.4398 109.156 71.5883 108.634 74.1802C108.736 76.9461 115.292 79.0626 123.292 78.9111C130.909 78.7663 137.093 76.618 137.615 74.0256C137.512 71.2602 130.957 69.1432 122.956 69.295Z" fill="#EFA91B"/>
<path d="M121.846 73.3187L121.255 71.428L121.497 70.9258L123.862 70.9349L124.627 73.1344C125.326 72.7262 125.968 72.2248 125.968 72.2248L125.563 71.133L125.805 70.6305L128.359 70.6323L131.26 75.6847L131.018 76.1872L127.979 76.5646L127.017 74.7681C126.555 75.0403 126.102 75.2553 125.659 75.4245L126.247 76.6918L126.005 77.1945L123.118 77.3824L122.666 75.9387C120.141 75.8581 118.431 74.5347 118.431 74.5347L115.055 76.5776L112.282 75.5116L112.524 75.0091L118.964 71.9321C118.963 71.9323 120.228 73.315 121.846 73.3187Z" fill="#DD9A24"/>
<path d="M128.385 70.4935L125.806 70.6302L126.211 71.722C126.211 71.722 125.685 72.4018 124.719 72.8286L123.895 70.7472L121.498 70.9255L122.163 73.0522C121.296 72.8538 120.305 72.3698 119.206 71.4298C115.924 73.1268 112.524 75.0091 112.524 75.0091L115.297 76.0754L118.674 74.0324C118.674 74.0324 120.383 75.3558 122.908 75.4362L123.36 76.8799L126.247 76.6917L125.591 75.0335C126.131 74.8521 126.689 74.6015 127.259 74.2659L128.221 76.0624L131.26 75.6847L128.385 70.4935Z" fill="#FFBB22"/>
<path d="M116.893 63.3334C108.398 64.3726 104.949 67.9134 104.949 67.9134L104.509 73.2364L104.568 73.2354C105.029 77.2682 113.667 80.3403 124.156 80.1409C124.512 80.1342 124.866 80.1233 125.217 80.1095L126.621 63.1023C123.002 62.9414 119.494 63.0152 116.893 63.3334Z" fill="#D38824"/>
<path d="M143.29 72.69H143.294L143.687 67.6974C143.6 65.0363 134.823 63.4667 126.621 63.1022L125.217 80.1095C135.046 79.7167 142.838 76.5149 143.29 72.69Z" fill="#EA9821"/>
<path d="M143.688 67.6969C143.812 71.8519 135.236 75.3851 124.532 75.5882C113.828 75.7917 105.049 72.5883 104.924 68.4333C104.8 64.2777 113.376 60.7448 124.08 60.5417C134.784 60.3382 143.563 63.5416 143.688 67.6969Z" fill="#FFBB22"/>
<path d="M138.813 67.7898C138.897 70.5614 132.469 72.9311 124.456 73.084C116.443 73.2358 109.881 71.1122 109.797 68.3412C109.714 65.5693 116.142 63.1996 124.154 63.047C132.167 62.8952 138.73 65.0185 138.813 67.7898Z" fill="#DD9A24"/>
<path d="M124.119 63.467C116.503 63.6118 110.319 65.7602 109.797 68.3527C109.9 71.1181 116.455 73.2351 124.455 73.0835C132.072 72.9388 138.256 70.79 138.777 68.198C138.675 65.4322 132.12 63.3154 124.119 63.467Z" fill="#EFA91B"/>
<path d="M123.009 67.4907L122.418 65.6L122.66 65.0978L125.025 65.1069L125.79 67.3064C126.49 66.8982 127.132 66.3968 127.132 66.3968L126.727 65.305L126.969 64.8025L129.523 64.8041L132.423 69.8565L132.181 70.3592L129.142 70.7369L128.18 68.9401C127.718 69.212 127.265 69.4273 126.822 69.5965L127.41 70.8638L127.168 71.3662L124.28 71.5545L123.829 70.1104C121.304 70.0304 119.595 68.7067 119.595 68.7067L116.218 70.7499L113.445 69.6836L113.687 69.1814L120.127 66.1043C120.126 66.1046 121.391 67.4865 123.009 67.4907Z" fill="#DD9A24"/>
<path d="M129.548 64.6666L126.969 64.8031L127.374 65.8946C127.374 65.8946 126.848 66.5749 125.882 67.0009L125.058 64.92L122.66 65.0981L123.326 67.2248C122.459 67.0267 121.468 66.5424 120.369 65.6024C117.087 67.2994 113.687 69.1819 113.687 69.1819L116.46 70.2482L119.837 68.205C119.837 68.205 121.546 69.5284 124.071 69.6085L124.523 71.0525L127.41 70.8643L126.754 69.2063C127.295 69.0246 127.852 68.7738 128.423 68.4385L129.384 70.2347L132.424 69.857L129.548 64.6666Z" fill="#FFBB22"/>
<path d="M115.002 57.2888C106.534 58.5306 103.171 62.1527 103.171 62.1527L102.858 67.4846L102.917 67.4822C103.474 71.5029 112.184 74.368 122.664 73.9191C123.02 73.9038 123.374 73.8843 123.724 73.8624L124.722 56.8261C121.1 56.7512 117.595 56.9088 115.002 57.2888Z" fill="#D38824"/>
<path d="M141.615 66.0146L141.618 66.0143L141.893 61.0134C141.741 58.3554 132.93 56.9954 124.721 56.8269L123.723 73.8633C133.539 73.2357 141.254 69.8488 141.615 66.0146Z" fill="#EA9821"/>
<path d="M141.894 61.0123C142.117 65.1635 133.628 68.8997 122.932 69.3583C112.235 69.8171 103.383 66.824 103.159 62.6731C102.935 58.522 111.425 54.7852 122.121 54.3264C132.817 53.8684 141.669 56.8614 141.894 61.0123Z" fill="#FFBB22"/>
<path d="M137.022 61.2214C137.171 63.9899 130.801 66.5124 122.795 66.8558C114.788 67.1992 108.176 65.2332 108.027 62.4645C107.878 59.6958 114.247 57.1732 122.254 56.8298C130.261 56.4862 136.872 58.4527 137.022 61.2214Z" fill="#DD9A24"/>
<path d="M122.23 57.2512C114.62 57.5777 108.489 59.8731 108.029 62.477C108.197 65.2392 114.801 67.1993 122.796 66.8564C130.406 66.5299 136.537 64.2348 136.997 61.6309C136.828 58.8689 130.225 56.9089 122.23 57.2512Z" fill="#EFA91B"/>
<path d="M121.216 61.2997L120.58 59.4236L120.81 58.9157L123.174 58.8686L123.991 61.0488C124.681 60.6246 125.311 60.1078 125.311 60.1078L124.88 59.0264L125.11 58.5182L127.663 58.4595L130.683 63.4409L130.453 63.9491L127.424 64.3988L126.419 62.6257C125.964 62.9088 125.516 63.1347 125.077 63.3138L125.696 64.5673L125.466 65.0752L122.584 65.332L122.097 63.8989C119.571 63.8792 117.831 62.5968 117.831 62.5968L114.504 64.7198L111.706 63.7201L111.937 63.2124L118.301 59.9823C118.301 59.9823 119.599 61.3348 121.216 61.2997Z" fill="#DD9A24"/>
<path d="M127.686 58.3208L125.111 58.5186L125.541 59.6C125.541 59.6 125.033 60.2928 124.077 60.7417L123.204 58.6811L120.811 58.9161L121.526 61.0263C120.655 60.8491 119.654 60.3887 118.532 59.4744C115.291 61.2502 111.937 63.2128 111.937 63.2128L114.735 64.2125L118.062 62.0895C118.062 62.0895 119.802 63.3716 122.329 63.3916L122.815 64.8247L125.697 64.5679L125.001 62.9261C125.537 62.7311 126.089 62.4672 126.651 62.1181L127.655 63.8915L130.684 63.4415L127.686 58.3208Z" fill="#FFBB22"/>
<path d="M114.864 51.351C106.396 52.5925 103.033 56.2149 103.033 56.2149L102.721 61.5465L102.779 61.5442C103.336 65.5653 112.046 68.43 122.527 67.981C122.883 67.9657 123.236 67.9465 123.586 67.9244L124.584 50.888C120.962 50.8134 117.457 50.9712 114.864 51.351Z" fill="#D38824"/>
<path d="M141.478 60.0759H141.482L141.756 55.0748C141.604 52.417 132.793 51.057 124.584 50.8883L123.586 67.9246C133.403 67.2971 141.118 63.9105 141.478 60.0759Z" fill="#EA9821"/>
<path d="M141.757 55.0744C141.981 59.2256 133.491 62.9623 122.795 63.4209C112.099 63.8797 103.247 60.8864 103.023 56.7352C102.798 52.5841 111.288 48.8476 121.984 48.389C132.681 47.9305 141.533 50.9238 141.757 55.0744Z" fill="#FFBB22"/>
<path d="M136.887 55.2836C137.036 58.0521 130.667 60.5749 122.66 60.9183C114.653 61.2617 108.041 59.2954 107.892 56.527C107.742 53.7582 114.112 51.2354 122.119 50.8923C130.126 50.5489 136.737 52.5149 136.887 55.2836Z" fill="#DD9A24"/>
<path d="M122.095 51.3132C114.484 51.6397 108.354 53.9351 107.894 56.5388C108.062 59.3012 114.666 61.2613 122.66 60.9184C130.271 60.5922 136.402 58.2965 136.862 55.6929C136.694 52.9307 130.09 50.9706 122.095 51.3132Z" fill="#EFA91B"/>
<path d="M121.082 55.3622L120.446 53.4864L120.675 52.9785L123.04 52.9311L123.857 55.1119C124.547 54.6874 125.176 54.1708 125.176 54.1708L124.746 53.0889L124.975 52.581L127.529 52.522L130.549 57.5034L130.32 58.0116L127.29 58.4616L126.286 56.6885C125.83 56.9715 125.382 57.1974 124.943 57.3768L125.562 58.6298L125.332 59.1377L122.45 59.3945L121.964 57.9617C119.437 57.9419 117.697 56.6593 117.697 56.6593L114.37 58.7829L111.572 57.7831L111.803 57.2752L118.167 54.0453C118.167 54.0453 119.464 55.3968 121.082 55.3622Z" fill="#DD9A24"/>
<path d="M127.549 52.383L124.974 52.5808L125.405 53.6625C125.405 53.6625 124.897 54.355 123.94 54.8039L123.067 52.743L120.674 52.9783L121.39 55.0888C120.519 54.9113 119.517 54.4506 118.395 53.5369C115.155 55.3121 111.801 57.275 111.801 57.275L114.598 58.2748L117.926 56.1515C117.926 56.1515 119.666 57.4338 122.192 57.4538L122.678 58.8864L125.561 58.6298L124.865 56.988C125.401 56.7933 125.953 56.5292 126.514 56.1803L127.519 57.9537L130.548 57.5035L127.549 52.383Z" fill="#FFBB22"/>
<path d="M114.707 45.8397C106.239 47.0815 102.875 50.7036 102.875 50.7036L102.563 56.0354L102.622 56.0328C103.179 60.0537 111.888 62.9186 122.369 62.4697C122.725 62.4544 123.078 62.4346 123.429 62.413L124.427 45.3767C120.804 45.3024 117.299 45.4596 114.707 45.8397Z" fill="#D38824"/>
<path d="M141.321 54.5647L141.324 54.5644L141.598 49.5635C141.447 46.9055 132.636 45.5454 124.427 45.377L123.429 62.4133C133.245 61.7856 140.96 58.3992 141.321 54.5647Z" fill="#EA9821"/>
<path d="M141.598 49.5642C141.822 53.715 133.333 57.4521 122.636 57.9101C111.94 58.3689 103.087 55.3756 102.864 51.225C102.639 47.0738 111.129 43.3371 121.825 42.8785C132.522 42.42 141.374 45.4133 141.598 49.5642Z" fill="#FFBB22"/>
<path d="M136.729 49.7728C136.878 52.5413 130.508 55.0641 122.502 55.4075C114.495 55.7509 107.883 53.7849 107.734 51.0159C107.585 48.2474 113.954 45.7246 121.961 45.3812C129.968 45.0378 136.579 47.0038 136.729 49.7728Z" fill="#DD9A24"/>
<path d="M121.937 45.8022C114.327 46.1284 108.196 48.4238 107.736 51.0277C107.904 53.7902 114.508 55.7502 122.503 55.4073C130.113 55.0808 136.244 52.7857 136.704 50.1818C136.536 47.4193 129.932 45.4596 121.937 45.8022Z" fill="#EFA91B"/>
<path d="M120.923 49.8514L120.287 47.9756L120.517 47.4674L122.881 47.4203L123.698 49.6008C124.388 49.1766 125.018 48.6595 125.018 48.6595L124.587 47.5779L124.817 47.0697L127.37 47.0109L130.39 51.9923L130.161 52.5008L127.131 52.9508L126.127 51.1774C125.672 51.4605 125.223 51.6864 124.785 51.866L125.403 53.1192L125.173 53.6272L122.291 53.8843L121.805 52.4514C119.279 52.4314 117.538 51.1488 117.538 51.1488L114.211 53.2718L111.414 52.272L111.644 51.7638L118.008 48.5345C118.008 48.5345 119.306 49.886 120.923 49.8514Z" fill="#DD9A24"/>
<path d="M127.391 46.8711L124.816 47.0689L125.247 48.1506C125.247 48.1506 124.739 48.8434 123.783 49.2926L122.91 47.2317L120.516 47.4667L121.232 49.5772C120.361 49.3997 119.359 48.9393 118.238 48.0256C114.997 49.8008 111.643 51.7631 111.643 51.7631L114.44 52.7629L117.768 50.6399C117.768 50.6399 119.508 51.9222 122.035 51.9422L122.52 53.3746L125.403 53.118L124.707 51.4759C125.243 51.2814 125.795 51.0173 126.357 50.6685L127.361 52.4416L130.39 51.9914L127.391 46.8711Z" fill="#FFBB22"/>
<path d="M117.794 39.6906C109.326 40.9324 105.962 44.5545 105.962 44.5545L105.65 49.8864L105.709 49.8843C106.266 53.9049 114.976 56.7699 125.456 56.3207C125.812 56.3056 126.166 56.2861 126.516 56.264L127.514 39.2279C123.891 39.1533 120.387 39.3106 117.794 39.6906Z" fill="#D38824"/>
<path d="M144.409 48.4158H144.413L144.686 43.4146C144.535 40.7569 135.724 39.3968 127.515 39.2281L126.517 56.2642C136.334 55.6369 144.048 52.2501 144.409 48.4158Z" fill="#EA9821"/>
<path d="M144.685 43.4146C144.909 47.5657 136.419 51.3023 125.724 51.7608C115.027 52.2196 106.175 49.2263 105.951 45.0754C105.726 40.9245 114.216 37.1875 124.912 36.7292C135.609 36.2707 144.462 39.2637 144.685 43.4146Z" fill="#FFBB22"/>
<path d="M139.815 43.6237C139.964 46.3924 133.594 48.9149 125.588 49.2583C117.581 49.6015 110.969 47.6352 110.82 44.8665C110.671 42.0978 117.04 39.5749 125.047 39.2318C133.053 38.8889 139.665 40.8549 139.815 43.6237Z" fill="#DD9A24"/>
<path d="M125.024 39.6529C117.414 39.9791 111.283 42.2745 110.823 44.8784C110.991 47.6409 117.595 49.6006 125.59 49.2583C133.2 48.9318 139.331 46.6364 139.791 44.0323C139.623 41.27 133.019 39.3103 125.024 39.6529Z" fill="#EFA91B"/>
<path d="M124.009 43.7021L123.373 41.8263L123.603 41.3184L125.968 41.271L126.784 43.4515C127.474 43.0273 128.104 42.5102 128.104 42.5102L127.673 41.4286L127.903 40.9204L130.457 40.8616L133.477 45.843L133.247 46.3512L130.217 46.8012L129.214 45.0281C128.759 45.3109 128.31 45.5371 127.871 45.7164L128.49 46.9697L128.26 47.4776L125.378 47.7344L124.891 46.3019C122.365 46.2818 120.625 44.9995 120.625 44.9995L117.298 47.1228L114.5 46.123L114.73 45.6148L121.094 42.3852C121.094 42.3852 122.392 43.7369 124.009 43.7021Z" fill="#DD9A24"/>
<path d="M130.478 40.7224L127.902 40.9202L128.334 42.0021C128.334 42.0021 127.825 42.6949 126.868 43.1436L125.995 41.0827L123.603 41.3179L124.318 43.4285C123.447 43.2504 122.445 42.7903 121.324 41.8766C118.083 43.6518 114.729 45.6144 114.729 45.6144L117.527 46.6141L120.854 44.4911C120.854 44.4911 122.594 45.7732 125.12 45.7935L125.606 47.2263L128.489 46.9695L127.793 45.3274C128.329 45.133 128.881 44.8691 129.443 44.52L130.447 46.2931L133.476 45.8429L130.478 40.7224Z" fill="#FFBB22"/>
<path d="M115.733 32.6496C107.371 34.4736 104.266 38.3196 104.266 38.3196L104.323 43.6603L104.381 43.654C105.215 47.6266 114.102 49.8827 124.526 48.7103C124.88 48.6706 125.231 48.6269 125.579 48.5804L125.397 31.5162C121.779 31.6922 118.293 32.0912 115.733 32.6496Z" fill="#D38824"/>
<path d="M142.887 39.514L142.89 39.5138L142.817 34.5058C142.483 31.8647 133.599 31.1171 125.398 31.5161L125.58 48.5803C135.33 47.2761 142.792 43.3641 142.887 39.514Z" fill="#EA9821"/>
<path d="M142.816 34.5053C143.327 38.631 135.115 42.9454 124.477 44.1422C113.838 45.3393 104.8 42.9649 104.289 38.8395C103.779 34.7138 111.99 30.3992 122.629 29.2026C133.267 28.0058 142.306 30.3799 142.816 34.5053Z" fill="#FFBB22"/>
<path d="M137.973 35.0501C138.313 37.8019 132.133 40.7586 124.169 41.6547C116.205 42.5504 109.474 41.0461 109.133 38.2943C108.793 35.5425 114.973 32.5858 122.937 31.6897C130.9 30.7939 137.632 32.2983 137.973 35.0501Z" fill="#DD9A24"/>
<path d="M122.941 32.1113C115.372 32.9629 109.414 35.6765 109.135 38.3059C109.494 41.05 116.218 42.5488 124.17 41.6543C131.739 40.8027 137.697 38.0891 137.975 35.4597C137.617 32.7154 130.894 31.2168 122.941 32.1113Z" fill="#EFA91B"/>
<path d="M122.211 36.2211L121.447 34.3936L121.641 33.8709L123.997 33.6603L124.962 35.7794C125.621 35.3084 126.214 34.7493 126.214 34.7493L125.709 33.6998L125.903 33.1771L128.446 32.9416L131.804 37.7025L131.61 38.2253L128.619 38.8838L127.494 37.1842C127.059 37.498 126.628 37.7545 126.203 37.9638L126.907 39.171L126.712 39.6938L123.854 40.1495L123.27 38.7535C120.748 38.9084 118.924 37.7493 118.924 37.7493L115.751 40.0972L112.892 39.2932L113.086 38.7704L119.212 35.1088C119.212 35.1088 120.6 36.3674 122.211 36.2211Z" fill="#DD9A24"/>
<path d="M128.458 32.8018L125.903 33.1771L126.407 34.2266C126.407 34.2266 125.948 34.9526 125.025 35.4668L124.011 33.4711L121.64 33.8712L122.5 35.9274C121.619 35.8099 120.587 35.4205 119.405 34.5863C116.295 36.5812 113.085 38.771 113.085 38.771L115.944 39.575L119.117 37.2269C119.117 37.2269 120.942 38.3858 123.463 38.2311L124.047 39.627L126.905 39.1713L126.098 37.5815C126.619 37.3501 127.15 37.0488 127.687 36.6618L128.812 38.3611L131.803 37.7026L128.458 32.8018Z" fill="#FFBB22"/>
<path d="M114.702 26.3625C106.34 28.1865 103.235 32.0325 103.235 32.0325L103.292 37.3732L103.35 37.3669C104.184 41.3395 113.071 43.5958 123.496 42.4232C123.85 42.3834 124.2 42.3395 124.549 42.2932L124.367 25.2288C120.748 25.4048 117.262 25.8038 114.702 26.3625Z" fill="#D38824"/>
<path d="M141.855 33.2267L141.858 33.2265L141.785 28.2185C141.451 25.5774 132.567 24.8296 124.366 25.2289L124.548 42.2933C134.297 40.9888 141.759 37.0768 141.855 33.2267Z" fill="#EA9821"/>
<path d="M141.787 28.2192C142.297 32.3449 134.086 36.6593 123.447 37.8561C112.808 39.0529 103.77 36.6787 103.26 32.5533C102.749 28.4279 110.96 24.113 121.599 22.9167C132.238 21.7197 141.276 24.0938 141.787 28.2192Z" fill="#FFBB22"/>
<path d="M136.941 28.764C137.282 31.5158 131.102 34.4725 123.138 35.3685C115.174 36.264 108.442 34.7597 108.102 32.0081C107.762 29.2563 113.942 26.2994 121.905 25.4036C129.869 24.5078 136.601 26.0121 136.941 28.764Z" fill="#DD9A24"/>
<path d="M121.91 25.8252C114.34 26.6767 108.383 29.3904 108.104 32.02C108.463 34.764 115.186 36.2629 123.138 35.3684C130.708 34.5168 136.666 31.803 136.944 29.1736C136.586 26.4295 129.862 24.9307 121.91 25.8252Z" fill="#EFA91B"/>
<path d="M121.18 29.9347L120.415 28.1072L120.61 27.5845L122.965 27.3739L123.931 29.4928C124.59 29.0217 125.182 28.4626 125.182 28.4626L124.678 27.4132L124.872 26.8904L127.414 26.6554L130.772 31.4161L130.577 31.9389L127.586 32.5971L126.462 30.8975C126.027 31.2113 125.596 31.4676 125.171 31.6769L125.875 32.8843L125.68 33.4068L122.822 33.8623L122.238 32.4666C119.717 32.6215 117.892 31.4624 117.892 31.4624L114.72 33.8105L111.86 33.0065L112.054 32.4838L118.18 28.8218C118.181 28.8224 119.569 30.081 121.18 29.9347Z" fill="#DD9A24"/>
<path d="M127.426 26.5145L124.871 26.8899L125.375 27.9393C125.375 27.9393 124.916 28.6653 123.993 29.1795L122.979 27.1836L120.608 27.584L121.468 29.6399C120.587 29.5227 119.556 29.1327 118.373 28.2988C115.263 30.2937 112.053 32.4838 112.053 32.4838L114.913 33.2878L118.085 30.9399C118.085 30.9399 119.91 32.0988 122.432 31.9438L123.015 33.3395L125.873 32.8843L125.066 31.2942C125.587 31.0631 126.119 30.7618 126.655 30.3748L127.78 32.0741L130.771 31.4159L127.426 26.5145Z" fill="#FFBB22"/>
<path d="M117.142 16.6981C108.701 18.2297 105.411 22.2306 105.411 22.2306L105.206 28.0181L105.265 28.0145C105.903 32.3616 114.669 35.277 125.139 34.56C125.494 34.5356 125.847 34.5072 126.197 34.475L126.85 15.983C123.227 15.9819 119.726 16.2291 117.142 16.6981Z" fill="#D38824"/>
<path d="M143.928 25.5749L143.931 25.5747L144.104 20.1469C143.899 17.2685 135.063 15.9872 126.852 15.9841L126.198 34.4761C136 33.5811 143.645 29.7403 143.928 25.5749Z" fill="#EA9821"/>
<path d="M144.104 20.1464C144.412 24.6417 136 28.8792 125.315 29.6107C114.63 30.3422 105.719 27.2912 105.411 22.7956C105.103 18.3003 113.515 14.0628 124.2 13.3313C134.885 12.5998 143.796 15.6509 144.104 20.1464Z" fill="#FFBB22"/>
<path d="M139.239 20.4794C139.444 23.4777 133.127 26.3525 125.129 26.8999C117.131 27.4477 110.481 25.4606 110.275 22.4623C110.07 19.4638 116.387 16.5893 124.385 16.0416C132.383 15.4941 139.034 17.4809 139.239 20.4794Z" fill="#DD9A24"/>
<path d="M124.369 16.4991C116.766 17.0195 110.683 19.6424 110.276 22.4758C110.5 25.4668 117.142 27.4471 125.128 26.9004C132.73 26.38 138.813 23.7571 139.221 20.9237C138.997 17.9324 132.355 15.9524 124.369 16.4991Z" fill="#EFA91B"/>
<path d="M123.437 20.9112L122.764 18.8914L122.983 18.3354L125.346 18.2324L126.207 20.5785C126.888 20.1033 127.507 19.5293 127.507 19.5293L127.054 18.3658L127.274 17.8098L129.826 17.6897L132.946 23.0244L132.727 23.5804L129.707 24.1346L128.667 22.2344C128.217 22.551 127.774 22.806 127.339 23.0103L127.983 24.3553L127.763 24.9111L124.886 25.2526L124.371 23.7101C121.845 23.7436 120.079 22.3916 120.079 22.3916L116.796 24.7663L113.979 23.7436L114.199 23.1876L120.496 19.5465C120.496 19.547 121.821 20.9843 123.437 20.9112Z" fill="#DD9A24"/>
<path d="M129.845 17.5388L127.274 17.8097L127.727 18.9732C127.727 18.9732 127.232 19.7351 126.285 20.2431L125.371 18.0278L122.983 18.3351L123.742 20.6075C122.867 20.4339 121.856 19.9569 120.716 18.9909C117.512 20.9865 114.199 23.1878 114.199 23.1878L117.016 24.2104L120.299 21.8355C120.299 21.8355 122.065 23.1878 124.592 23.154L125.106 24.6968L127.983 24.3552L127.254 22.5902C127.786 22.3674 128.333 22.0695 128.887 21.6785L129.927 23.5788L132.946 23.0245L129.845 17.5388Z" fill="#FFBB22"/>
<path d="M116.088 8.3799C107.656 9.9604 104.389 13.9805 104.389 13.9805L104.218 19.7691L104.277 19.7649C104.941 24.1084 113.723 26.9728 124.188 26.195C124.544 26.1688 124.896 26.1379 125.246 26.1041L125.792 7.60863C122.169 7.62812 118.669 7.89587 116.088 8.3799Z" fill="#D38824"/>
<path d="M142.924 17.1L142.927 17.0997L143.068 11.6706C142.847 8.79352 134.003 7.56343 125.791 7.60814L125.246 26.1036C135.043 25.1519 142.665 21.2667 142.924 17.1Z" fill="#EA9821"/>
<path d="M143.07 11.6709C143.404 16.1644 135.017 20.4504 124.336 21.2441C113.655 22.0377 104.727 19.0381 104.393 14.5449C104.059 10.0511 112.446 5.76509 123.127 4.97147C133.807 4.17784 142.736 7.17714 143.07 11.6709Z" fill="#FFBB22"/>
<path d="M138.206 12.0322C138.429 15.0294 132.128 17.9406 124.134 18.5348C116.139 19.1288 109.477 17.1808 109.255 14.1835C109.032 11.1863 115.332 8.27488 123.327 7.68089C131.322 7.08665 137.983 9.03497 138.206 12.0322Z" fill="#DD9A24"/>
<path d="M123.314 8.13779C115.715 8.70266 109.647 11.3606 109.257 14.1964C109.498 17.1861 116.151 19.1277 124.134 18.5347C131.733 17.9699 137.801 15.3116 138.192 12.4761C137.95 9.48615 131.297 7.54458 123.314 8.13779Z" fill="#EFA91B"/>
<path d="M122.408 12.5552L121.722 10.5393L121.939 9.98223L124.301 9.86525L125.176 12.2066C125.854 11.7275 126.47 11.1497 126.47 11.1497L126.011 9.98899L126.227 9.43165L128.778 9.297L131.929 14.6135L131.712 15.1706L128.696 15.7425L127.645 13.8479C127.198 14.1674 126.756 14.4248 126.322 14.6317L126.973 15.9728L126.757 16.5298L123.882 16.8881L123.359 15.3484C120.833 15.397 119.059 14.0549 119.059 14.0549L115.789 16.4487L112.966 15.4425L113.183 14.8854L119.459 11.2079C119.459 11.2084 120.792 12.6374 122.408 12.5552Z" fill="#DD9A24"/>
<path d="M128.795 9.14616L126.226 9.43184L126.686 10.5928C126.686 10.5928 126.195 11.3576 125.251 11.871L124.324 9.66086L121.938 9.98216L122.71 12.25C121.834 12.0813 120.82 11.6102 119.674 10.651C116.482 12.6648 113.182 14.8859 113.182 14.8859L116.004 15.8919L119.274 13.4982C119.274 13.4982 121.048 14.8401 123.574 14.7915L124.098 16.3312L126.972 15.973L126.233 14.2123C126.764 13.9864 127.308 13.6851 127.86 13.2911L128.911 15.1853L131.927 14.6137L128.795 9.14616Z" fill="#FFBB22"/>
<path d="M90.2155 73.8398C86.9651 81.7792 88.5677 86.7047 88.5677 86.7047L93.2049 89.8654L93.3645 89.9395C97.3724 91.7402 104.546 85.9197 109.574 76.7091C109.745 76.3964 109.911 76.0834 110.072 75.7717L94.8364 65.2713C92.8859 68.3249 91.2108 71.4087 90.2155 73.8398Z" fill="#D38824"/>
<path d="M112.108 56.0375L112.11 56.0344L107.627 52.9683C105.091 51.5921 99.2566 58.3516 94.8361 65.2712L110.072 75.7716C114.591 67.0274 115.467 58.5169 112.108 56.0375Z" fill="#EA9821"/>
<path d="M107.628 52.9682C111.583 55.1276 110.628 64.498 105.496 73.8981C100.364 83.2986 92.9979 89.1686 89.043 87.0092C85.0879 84.85 86.0424 75.4796 91.1743 66.079C96.3063 56.6785 103.673 50.8088 107.628 52.9682Z" fill="#FFBB22"/>
<path d="M105.291 57.2483C107.929 58.6882 106.953 65.5602 103.111 72.5963C99.2694 79.6329 94.0168 84.1695 91.3791 82.7289C88.7412 81.289 89.717 74.4172 93.5588 67.3809C97.4003 60.3449 102.653 55.808 105.291 57.2483Z" fill="#DD9A24"/>
<path d="M93.9354 67.6404C90.2836 74.3286 89.2217 80.8674 91.391 82.7351C94.0328 84.156 99.2755 79.6225 103.111 72.5963C106.763 65.9081 107.825 59.3693 105.656 57.5018C103.014 56.0809 97.7714 60.6142 93.9354 67.6404Z" fill="#EFA91B"/>
<path d="M97.1534 70.7993L95.0881 70.2809L94.7377 69.7961L95.9223 67.749L98.3629 68.2858C98.3292 67.4563 98.1781 66.6253 98.1781 66.6253L96.9538 66.3812L96.6036 65.8969L97.875 63.6816L104.051 63.9215L104.401 64.4061L103.244 67.2497L101.082 67.1036C101.107 67.6531 101.083 68.1639 101.021 68.6406L102.501 68.8213L102.852 69.3056L101.592 71.9142L100.015 71.5183C98.684 73.6657 96.594 74.4269 96.594 74.4269L96.829 78.4722L94.4515 80.2963L94.1011 79.812L94.4203 72.5446C94.4211 72.5443 96.345 72.2009 97.1534 70.7993Z" fill="#DD9A24"/>
<path d="M97.7586 63.5832L96.6039 65.8963L97.828 66.1404C97.828 66.1404 98.2041 66.967 98.123 68.0388L95.7634 67.6174L94.7379 69.7958L97.0614 70.3796C96.4445 71.0233 95.4986 71.6185 94.0709 72.0599C94.0291 75.8342 94.1021 79.8116 94.1021 79.8116L96.4796 77.9873L96.2443 73.9422C96.2443 73.9422 98.3343 73.1808 99.665 71.0334L101.242 71.4293L102.502 68.8207L100.622 68.4854C100.72 67.9171 100.763 67.2966 100.732 66.6184L102.894 66.7648L104.051 63.9212L97.7586 63.5832Z" fill="#FFBB22"/>
<g opacity="0.15">
<path d="M109.413 63.9454L98.5165 56.3351C98.0629 56.7557 97.6088 57.2062 97.1557 57.6868L108.892 65.8841C109.09 65.2246 109.264 64.5776 109.413 63.9454Z" fill="white"/>
<path d="M108.222 67.9026L95.7952 59.2237C94.9291 60.2632 94.0775 61.4031 93.2581 62.6316L106.525 71.8973C107.178 70.5471 107.746 69.2086 108.222 67.9026Z" fill="white"/>
<path d="M87.2322 76.137L99.7096 82.082C100.347 81.3937 100.98 80.6461 101.604 79.8485L88.0048 73.369C87.6978 74.3163 87.4391 75.2422 87.2322 76.137Z" fill="white"/>
</g>
<path d="M111.21 10.7173C107.555 11.689 106.447 15.4806 106.447 15.4806C106.447 15.4806 105.574 11.6222 101.684 10.7173C105.372 9.67413 106.447 5.95399 106.447 5.95399C106.447 5.95399 107.455 9.77525 111.21 10.7173Z" fill="#FFEFD3"/>
<path opacity="0.8" d="M150.705 28.8926C148.79 29.4021 148.21 31.3881 148.21 31.3881C148.21 31.3881 147.752 29.3665 145.715 28.8926C147.647 28.3462 148.21 26.3971 148.21 26.3971C148.21 26.3971 148.738 28.3992 150.705 28.8926Z" fill="#FFEFD3"/>
<path opacity="0.8" d="M89.0976 61.5715C87.1828 62.081 86.6021 64.0673 86.6021 64.0673C86.6021 64.0673 86.1446 62.0456 84.1066 61.5715C86.039 61.0251 86.6021 59.0765 86.6021 59.0765C86.6021 59.0765 87.1298 61.0781 89.0976 61.5715Z" fill="#FFEFD3"/>
<path opacity="0.8" d="M169.333 66.8948C167.418 67.4043 166.837 69.3903 166.837 69.3903C166.837 69.3903 166.38 67.369 164.342 66.8948C166.275 66.3487 166.837 64.3996 166.837 64.3996C166.837 64.3996 167.365 66.4017 169.333 66.8948Z" fill="#FFEFD3"/>
<path d="M163.233 44.4522C158.809 45.6284 157.467 50.2173 157.467 50.2173C157.467 50.2173 156.411 45.5473 151.702 44.4522C156.167 43.1898 157.467 38.687 157.467 38.687C157.467 38.687 158.687 43.312 163.233 44.4522Z" fill="#FFEFD3"/>
<path d="M94.8633 69.9882C90.4393 71.1645 89.0982 75.7536 89.0982 75.7536C89.0982 75.7536 88.0415 71.0834 83.333 69.9882C87.7979 68.7256 89.0982 64.2233 89.0982 64.2233C89.0982 64.2233 90.3173 68.8481 94.8633 69.9882Z" fill="#FFEFD3"/>
<g opacity="0.15">
<path d="M115.449 6.22238L109.192 19.3914C110.573 19.9709 112.205 20.4375 114.021 20.7726L121.453 5.12774C119.323 5.36325 117.304 5.73706 115.449 6.22238Z" fill="white"/>
<path d="M123.125 4.97125C122.969 4.98294 122.815 4.99776 122.659 5.01076L115.348 20.9888C116.066 21.0913 116.807 21.1752 117.57 21.2368L125.06 4.86805C124.422 4.8891 123.777 4.9229 123.125 4.97125Z" fill="white"/>
<path d="M132.14 5.2294L134.894 19.1029C135.599 18.849 136.267 18.5773 136.897 18.2911L134.384 5.63232C133.668 5.47583 132.919 5.34092 132.14 5.2294Z" fill="white"/>
</g>
<defs>
<linearGradient id="paint0_linear_534_1240" x1="46.3201" y1="125.309" x2="133.182" y2="32.3867" gradientUnits="userSpaceOnUse">
<stop stop-color="#C03C0F"/>
<stop offset="0.1078" stop-color="#C64612"/>
<stop offset="0.2922" stop-color="#D66118"/>
<stop offset="0.5294" stop-color="#F08D23"/>
<stop offset="0.6566" stop-color="#FFA82A"/>
<stop offset="0.7982" stop-color="#FDB81B"/>
<stop offset="1" stop-color="#FAD500"/>
</linearGradient>
<linearGradient id="paint1_linear_534_1240" x1="10.3283" y1="65.6043" x2="58.2608" y2="-104.123" gradientUnits="userSpaceOnUse">
<stop stop-color="#C03C0F"/>
<stop offset="0.1078" stop-color="#C64612"/>
<stop offset="0.2922" stop-color="#D66118"/>
<stop offset="0.5294" stop-color="#F08D23"/>
<stop offset="0.6566" stop-color="#FFA82A"/>
<stop offset="0.7982" stop-color="#FDB81B"/>
<stop offset="1" stop-color="#FAD500"/>
</linearGradient>
<linearGradient id="paint2_linear_534_1240" x1="7.36003" y1="69.1342" x2="32.0479" y2="-9.66738" gradientUnits="userSpaceOnUse">
<stop stop-color="#D90000"/>
<stop offset="0.3883" stop-color="#800000"/>
<stop offset="1" stop-color="#FF4336"/>
</linearGradient>
<linearGradient id="paint3_linear_534_1240" x1="-8.20853" y1="49.9525" x2="150.916" y2="-99.1631" gradientUnits="userSpaceOnUse">
<stop stop-color="#C03C0F"/>
<stop offset="0.1078" stop-color="#C64612"/>
<stop offset="0.2922" stop-color="#D66118"/>
<stop offset="0.5294" stop-color="#F08D23"/>
<stop offset="0.6566" stop-color="#FFA82A"/>
<stop offset="0.7982" stop-color="#FDB81B"/>
<stop offset="1" stop-color="#FAD500"/>
</linearGradient>
<linearGradient id="paint4_linear_534_1240" x1="16.3574" y1="56.4593" x2="86.6475" y2="-12.0758" gradientUnits="userSpaceOnUse">
<stop stop-color="#D64311"/>
<stop offset="0.1135" stop-color="#DA4D14"/>
<stop offset="0.3075" stop-color="#E5681A"/>
<stop offset="0.5572" stop-color="#F79425"/>
<stop offset="0.6566" stop-color="#FFA82A"/>
<stop offset="0.7982" stop-color="#FDB81B"/>
<stop offset="1" stop-color="#FAD500"/>
</linearGradient>
<linearGradient id="paint5_linear_534_1240" x1="48.565" y1="-38.3154" x2="56.0889" y2="37.5821" gradientUnits="userSpaceOnUse">
<stop stop-color="#831637"/>
<stop offset="0.2716" stop-color="#771230"/>
<stop offset="0.7624" stop-color="#57061F"/>
<stop offset="1" stop-color="#450015"/>
</linearGradient>
<linearGradient id="paint6_linear_534_1240" x1="98.5878" y1="81.168" x2="92.0211" y2="43.8535" gradientUnits="userSpaceOnUse">
<stop stop-color="#D90000"/>
<stop offset="0.3883" stop-color="#A80000"/>
<stop offset="1" stop-color="#FF4336"/>
</linearGradient>
<linearGradient id="paint7_linear_534_1240" x1="94.9361" y1="53.5958" x2="96.2423" y2="93.9118" gradientUnits="userSpaceOnUse">
<stop stop-color="white"/>
<stop offset="0.1108" stop-color="#F6F0F5"/>
<stop offset="0.3233" stop-color="#E0C9D9"/>
<stop offset="0.6159" stop-color="#BB8AAD"/>
<stop offset="0.9742" stop-color="#8A3471"/>
<stop offset="1" stop-color="#862E6C"/>
</linearGradient>
<linearGradient id="paint8_linear_534_1240" x1="53.2123" y1="110" x2="52.4775" y2="-4.465" gradientUnits="userSpaceOnUse">
<stop stop-color="#D90000"/>
<stop offset="0.3883" stop-color="#800000"/>
<stop offset="1" stop-color="#FF4336"/>
</linearGradient>
<linearGradient id="paint9_linear_534_1240" x1="53.1665" y1="67.7442" x2="53.0848" y2="86.0251" gradientUnits="userSpaceOnUse">
<stop stop-color="white"/>
<stop offset="0.1108" stop-color="#F6F0F5"/>
<stop offset="0.3233" stop-color="#E0C9D9"/>
<stop offset="0.6159" stop-color="#BB8AAD"/>
<stop offset="0.9742" stop-color="#8A3471"/>
<stop offset="1" stop-color="#862E6C"/>
</linearGradient>
<linearGradient id="paint10_linear_534_1240" x1="4.98464" y1="62.599" x2="134.535" y2="73.6903" gradientUnits="userSpaceOnUse">
<stop stop-color="#C03C0F"/>
<stop offset="0.1078" stop-color="#C64612"/>
<stop offset="0.2922" stop-color="#D66118"/>
<stop offset="0.5294" stop-color="#F08D23"/>
<stop offset="0.6566" stop-color="#FFA82A"/>
<stop offset="0.7982" stop-color="#FDB81B"/>
<stop offset="1" stop-color="#FAD500"/>
</linearGradient>
<linearGradient id="paint11_linear_534_1240" x1="143.337" y1="52.6492" x2="30.7812" y2="48.0964" gradientUnits="userSpaceOnUse">
<stop stop-color="#C03C0F"/>
<stop offset="0.1078" stop-color="#C64612"/>
<stop offset="0.2922" stop-color="#D66118"/>
<stop offset="0.5294" stop-color="#F08D23"/>
<stop offset="0.6566" stop-color="#FFA82A"/>
<stop offset="0.7982" stop-color="#FDB81B"/>
<stop offset="1" stop-color="#FAD500"/>
</linearGradient>
<linearGradient id="paint12_linear_534_1240" x1="46.0424" y1="45.4329" x2="111.903" y2="45.4329" gradientUnits="userSpaceOnUse">
<stop stop-color="#831637"/>
<stop offset="0.2716" stop-color="#771230"/>
<stop offset="0.7624" stop-color="#57061F"/>
<stop offset="1" stop-color="#450015"/>
</linearGradient>
<linearGradient id="paint13_linear_534_1240" x1="77.9084" y1="65.5194" x2="80.0741" y2="43.1479" gradientUnits="userSpaceOnUse">
<stop offset="4.3e-07" stop-color="#FFCFF2"/>
<stop offset="1" stop-color="#BF0000"/>
</linearGradient>
<linearGradient id="paint14_linear_534_1240" x1="95.8586" y1="66.9626" x2="95.3978" y2="32.258" gradientUnits="userSpaceOnUse">
<stop stop-color="#C01E0F"/>
<stop offset="0.0894" stop-color="#C52811"/>
<stop offset="0.2425" stop-color="#D14316"/>
<stop offset="0.4405" stop-color="#E5701F"/>
<stop offset="0.6566" stop-color="#FFA82A"/>
<stop offset="0.7982" stop-color="#FDB81B"/>
<stop offset="1" stop-color="#FAD500"/>
</linearGradient>
<linearGradient id="paint15_linear_534_1240" x1="100.316" y1="60.5532" x2="100.316" y2="42.3486" gradientUnits="userSpaceOnUse">
<stop stop-color="#F3A500"/>
<stop offset="0.2337" stop-color="#FF6200"/>
<stop offset="1" stop-color="#FFD500"/>
</linearGradient>
<linearGradient id="paint16_linear_534_1240" x1="100.813" y1="57.7794" x2="100.813" y2="47.4122" gradientUnits="userSpaceOnUse">
<stop stop-color="#FF9600"/>
<stop offset="0.4721" stop-color="#FFA200"/>
<stop offset="1" stop-color="#B03900"/>
</linearGradient>
<linearGradient id="paint17_linear_534_1240" x1="100.897" y1="57.0711" x2="100.897" y2="46.0608" gradientUnits="userSpaceOnUse">
<stop stop-color="#D90000"/>
<stop offset="0.3883" stop-color="#A80000"/>
<stop offset="1" stop-color="#FF4336"/>
</linearGradient>
<linearGradient id="paint18_linear_534_1240" x1="80.0959" y1="67.3935" x2="83.6718" y2="35.1067" gradientUnits="userSpaceOnUse">
<stop stop-color="#C01E0F"/>
<stop offset="0.0894" stop-color="#C52811"/>
<stop offset="0.2425" stop-color="#D14316"/>
<stop offset="0.4405" stop-color="#E5701F"/>
<stop offset="0.6566" stop-color="#FFA82A"/>
<stop offset="0.7982" stop-color="#FDB81B"/>
<stop offset="1" stop-color="#FAD500"/>
</linearGradient>
<linearGradient id="paint19_linear_534_1240" x1="83.0642" y1="51.6044" x2="83.5983" y2="60.2937" gradientUnits="userSpaceOnUse">
<stop stop-color="#FFE100"/>
<stop offset="0.4721" stop-color="#FFA200"/>
<stop offset="1" stop-color="#D93A00"/>
</linearGradient>
<linearGradient id="paint20_linear_534_1240" x1="83.713" y1="58.0869" x2="83.4626" y2="54.3258" gradientUnits="userSpaceOnUse">
<stop stop-color="#FF9600"/>
<stop offset="0.4721" stop-color="#FFA200"/>
<stop offset="1" stop-color="#B03900"/>
</linearGradient>
<linearGradient id="paint21_linear_534_1240" x1="83.7377" y1="57.8188" x2="83.4721" y2="53.8295" gradientUnits="userSpaceOnUse">
<stop stop-color="#D90000"/>
<stop offset="0.3883" stop-color="#A80000"/>
<stop offset="1" stop-color="#FF4336"/>
</linearGradient>
<linearGradient id="paint22_linear_534_1240" x1="112.031" y1="60.4559" x2="115.607" y2="28.1692" gradientUnits="userSpaceOnUse">
<stop stop-color="#C01E0F"/>
<stop offset="0.0894" stop-color="#C52811"/>
<stop offset="0.2425" stop-color="#D14316"/>
<stop offset="0.4405" stop-color="#E5701F"/>
<stop offset="0.6566" stop-color="#FFA82A"/>
<stop offset="0.7982" stop-color="#FDB81B"/>
<stop offset="1" stop-color="#FAD500"/>
</linearGradient>
<linearGradient id="paint23_linear_534_1240" x1="115" y1="44.6673" x2="115.535" y2="53.3567" gradientUnits="userSpaceOnUse">
<stop stop-color="#FFE100"/>
<stop offset="0.4721" stop-color="#FFA200"/>
<stop offset="1" stop-color="#D93A00"/>
</linearGradient>
<linearGradient id="paint24_linear_534_1240" x1="115.649" y1="51.1499" x2="115.398" y2="47.3888" gradientUnits="userSpaceOnUse">
<stop stop-color="#FF9600"/>
<stop offset="0.4721" stop-color="#FFA200"/>
<stop offset="1" stop-color="#B03900"/>
</linearGradient>
<linearGradient id="paint25_linear_534_1240" x1="115.672" y1="50.8814" x2="115.407" y2="46.8921" gradientUnits="userSpaceOnUse">
<stop stop-color="#D90000"/>
<stop offset="0.3883" stop-color="#A80000"/>
<stop offset="1" stop-color="#FF4336"/>
</linearGradient>
<radialGradient id="paint26_radial_534_1240" cx="0" cy="0" r="1" gradientUnits="userSpaceOnUse" gradientTransform="translate(105.447 47.304) scale(2.35784 2.35863)">
<stop stop-color="#FFDA47"/>
<stop offset="0.1185" stop-color="#C7AA37"/>
<stop offset="0.2437" stop-color="#927D29"/>
<stop offset="0.371" stop-color="#66571C"/>
<stop offset="0.498" stop-color="#413712"/>
<stop offset="0.6246" stop-color="#241F0A"/>
<stop offset="0.7506" stop-color="#100E05"/>
<stop offset="0.876" stop-color="#040301"/>
<stop offset="1"/>
</radialGradient>
<radialGradient id="paint27_radial_534_1240" cx="0" cy="0" r="1" gradientTransform="matrix(3.37343 0.735283 -0.735037 3.37456 68.4507 92.4597)" gradientUnits="userSpaceOnUse">
<stop offset="0.0363" stop-color="white"/>
<stop offset="0.1516" stop-color="#D1D1D1"/>
<stop offset="0.3266" stop-color="#939393"/>
<stop offset="0.4943" stop-color="#5E5E5E"/>
<stop offset="0.6499" stop-color="#353535"/>
<stop offset="0.7907" stop-color="#181818"/>
<stop offset="0.9121" stop-color="#060606"/>
<stop offset="1"/>
</radialGradient>
<radialGradient id="paint28_radial_534_1240" cx="0" cy="0" r="1" gradientTransform="matrix(2.10147 0.457849 -2.5075 11.511 68.4027 92.6777)" gradientUnits="userSpaceOnUse">
<stop offset="0.0363" stop-color="#FFFF00"/>
<stop offset="0.1516" stop-color="#D1D100"/>
<stop offset="0.3266" stop-color="#939300"/>
<stop offset="0.4943" stop-color="#5E5E00"/>
<stop offset="0.6499" stop-color="#353500"/>
<stop offset="0.7907" stop-color="#181800"/>
<stop offset="0.9121" stop-color="#060600"/>
<stop offset="1"/>
</radialGradient>
<radialGradient id="paint29_radial_534_1240" cx="0" cy="0" r="1" gradientTransform="matrix(0.752272 0.16375 -2.50709 11.5091 68.4038 92.6775)" gradientUnits="userSpaceOnUse">
<stop offset="0.0363" stop-color="#FFFF00"/>
<stop offset="0.1516" stop-color="#D1D100"/>
<stop offset="0.3266" stop-color="#939300"/>
<stop offset="0.4943" stop-color="#5E5E00"/>
<stop offset="0.6499" stop-color="#353500"/>
<stop offset="0.7907" stop-color="#181800"/>
<stop offset="0.9121" stop-color="#060600"/>
<stop offset="1"/>
</radialGradient>
<radialGradient id="paint30_radial_534_1240" cx="0" cy="0" r="1" gradientTransform="matrix(-0.370375 1.69891 -12.1758 -2.65391 68.4508 92.4596)" gradientUnits="userSpaceOnUse">
<stop offset="0.0363" stop-color="#FFFF00"/>
<stop offset="0.1516" stop-color="#D1D100"/>
<stop offset="0.3266" stop-color="#939300"/>
<stop offset="0.4943" stop-color="#5E5E00"/>
<stop offset="0.6499" stop-color="#353500"/>
<stop offset="0.7907" stop-color="#181800"/>
<stop offset="0.9121" stop-color="#060600"/>
<stop offset="1"/>
</radialGradient>
<radialGradient id="paint31_radial_534_1240" cx="0" cy="0" r="1" gradientTransform="matrix(-0.114233 0.52332 -12.1749 -2.65372 68.4498 92.4597)" gradientUnits="userSpaceOnUse">
<stop offset="0.0363" stop-color="#FFFF00"/>
<stop offset="0.1516" stop-color="#D1D100"/>
<stop offset="0.3266" stop-color="#939300"/>
<stop offset="0.4943" stop-color="#5E5E00"/>
<stop offset="0.6499" stop-color="#353500"/>
<stop offset="0.7907" stop-color="#181800"/>
<stop offset="0.9121" stop-color="#060600"/>
<stop offset="1"/>
</radialGradient>
<radialGradient id="paint32_radial_534_1240" cx="0" cy="0" r="1" gradientTransform="matrix(0.536228 0.835542 -7.9321 5.0955 68.4503 92.4595)" gradientUnits="userSpaceOnUse">
<stop offset="0.0363" stop-color="#FFFF00"/>
<stop offset="0.1516" stop-color="#D1D100"/>
<stop offset="0.3266" stop-color="#939300"/>
<stop offset="0.4943" stop-color="#5E5E00"/>
<stop offset="0.6499" stop-color="#353500"/>
<stop offset="0.7907" stop-color="#181800"/>
<stop offset="0.9121" stop-color="#060600"/>
<stop offset="1"/>
</radialGradient>
<radialGradient id="paint33_radial_534_1240" cx="0" cy="0" r="1" gradientTransform="matrix(-0.835263 0.536407 -5.09379 -7.93475 68.4508 92.4593)" gradientUnits="userSpaceOnUse">
<stop offset="0.0363" stop-color="#FFFF00"/>
<stop offset="0.1516" stop-color="#D1D100"/>
<stop offset="0.3266" stop-color="#939300"/>
<stop offset="0.4943" stop-color="#5E5E00"/>
<stop offset="0.6499" stop-color="#353500"/>
<stop offset="0.7907" stop-color="#181800"/>
<stop offset="0.9121" stop-color="#060600"/>
<stop offset="1"/>
</radialGradient>
<radialGradient id="paint34_radial_534_1240" cx="0" cy="0" r="1" gradientTransform="matrix(2.33851 0.509709 -0.509537 2.3393 105.705 47.2685)" gradientUnits="userSpaceOnUse">
<stop offset="0.0363" stop-color="white"/>
<stop offset="0.1516" stop-color="#D1D1D1"/>
<stop offset="0.3266" stop-color="#939393"/>
<stop offset="0.4943" stop-color="#5E5E5E"/>
<stop offset="0.6499" stop-color="#353535"/>
<stop offset="0.7907" stop-color="#181818"/>
<stop offset="0.9121" stop-color="#060606"/>
<stop offset="1"/>
</radialGradient>
<radialGradient id="paint35_radial_534_1240" cx="0" cy="0" r="1" gradientTransform="matrix(1.45677 0.317388 -1.73824 7.9796 105.672 47.4198)" gradientUnits="userSpaceOnUse">
<stop offset="0.0363" stop-color="#FFFF00"/>
<stop offset="0.1516" stop-color="#D1D100"/>
<stop offset="0.3266" stop-color="#939300"/>
<stop offset="0.4943" stop-color="#5E5E00"/>
<stop offset="0.6499" stop-color="#353500"/>
<stop offset="0.7907" stop-color="#181800"/>
<stop offset="0.9121" stop-color="#060600"/>
<stop offset="1"/>
</radialGradient>
<radialGradient id="paint36_radial_534_1240" cx="0" cy="0" r="1" gradientTransform="matrix(0.521489 0.113515 -1.73796 7.97832 105.672 47.4195)" gradientUnits="userSpaceOnUse">
<stop offset="0.0363" stop-color="#FFFF00"/>
<stop offset="0.1516" stop-color="#D1D100"/>
<stop offset="0.3266" stop-color="#939300"/>
<stop offset="0.4943" stop-color="#5E5E00"/>
<stop offset="0.6499" stop-color="#353500"/>
<stop offset="0.7907" stop-color="#181800"/>
<stop offset="0.9121" stop-color="#060600"/>
<stop offset="1"/>
</radialGradient>
<radialGradient id="paint37_radial_534_1240" cx="0" cy="0" r="1" gradientTransform="matrix(-0.256749 1.17771 -8.44045 -1.83973 105.705 47.2687)" gradientUnits="userSpaceOnUse">
<stop offset="0.0363" stop-color="#FFFF00"/>
<stop offset="0.1516" stop-color="#D1D100"/>
<stop offset="0.3266" stop-color="#939300"/>
<stop offset="0.4943" stop-color="#5E5E00"/>
<stop offset="0.6499" stop-color="#353500"/>
<stop offset="0.7907" stop-color="#181800"/>
<stop offset="0.9121" stop-color="#060600"/>
<stop offset="1"/>
</radialGradient>
<radialGradient id="paint38_radial_534_1240" cx="0" cy="0" r="1" gradientTransform="matrix(-0.0791893 0.362778 -8.43996 -1.83962 105.705 47.2687)" gradientUnits="userSpaceOnUse">
<stop offset="0.0363" stop-color="#FFFF00"/>
<stop offset="0.1516" stop-color="#D1D100"/>
<stop offset="0.3266" stop-color="#939300"/>
<stop offset="0.4943" stop-color="#5E5E00"/>
<stop offset="0.6499" stop-color="#353500"/>
<stop offset="0.7907" stop-color="#181800"/>
<stop offset="0.9121" stop-color="#060600"/>
<stop offset="1"/>
</radialGradient>
<radialGradient id="paint39_radial_534_1240" cx="0" cy="0" r="1" gradientTransform="matrix(0.371723 0.579214 -5.49868 3.5323 105.705 47.2686)" gradientUnits="userSpaceOnUse">
<stop offset="0.0363" stop-color="#FFFF00"/>
<stop offset="0.1516" stop-color="#D1D100"/>
<stop offset="0.3266" stop-color="#939300"/>
<stop offset="0.4943" stop-color="#5E5E00"/>
<stop offset="0.6499" stop-color="#353500"/>
<stop offset="0.7907" stop-color="#181800"/>
<stop offset="0.9121" stop-color="#060600"/>
<stop offset="1"/>
</radialGradient>
<radialGradient id="paint40_radial_534_1240" cx="0" cy="0" r="1" gradientTransform="matrix(-0.579017 0.371845 -3.5311 -5.50048 105.705 47.2684)" gradientUnits="userSpaceOnUse">
<stop offset="0.0363" stop-color="#FFFF00"/>
<stop offset="0.1516" stop-color="#D1D100"/>
<stop offset="0.3266" stop-color="#939300"/>
<stop offset="0.4943" stop-color="#5E5E00"/>
<stop offset="0.6499" stop-color="#353500"/>
<stop offset="0.7907" stop-color="#181800"/>
<stop offset="0.9121" stop-color="#060600"/>
<stop offset="1"/>
</radialGradient>
</defs>
</svg>
