<svg width="136" height="137" viewBox="0 0 136 137" fill="none" xmlns="http://www.w3.org/2000/svg">
<path d="M86.7155 24.6338C86.7155 32.6432 78.5147 39.1358 68.3988 39.1358C58.2827 39.1358 50.0819 32.6432 50.0819 24.6338C50.0819 16.6244 58.2827 10.1316 68.3988 10.1316C78.5147 10.1316 86.7155 16.6244 86.7155 24.6338Z" fill="#FF5FC2"/>
<path d="M69.4762 10.1445C77.0334 11.9318 82.543 17.4765 82.543 24.041C82.543 32.0502 74.342 38.5431 64.226 38.5431C63.8645 38.5431 63.5057 38.5338 63.1493 38.5175C64.8125 38.9109 66.5746 39.1232 68.3995 39.1232C78.5155 39.1232 86.7163 32.6303 86.7163 24.621C86.7161 16.8979 79.0909 10.5859 69.4762 10.1445Z" fill="#CE4EA3"/>
<path d="M84.7239 93.9136H52.0162V126.013H84.7239V93.9136Z" fill="#FF5FC2"/>
<path d="M90.386 133.2H46.3516V126.586C46.3516 123.049 49.2168 120.181 52.7512 120.181H83.9863C87.5208 120.181 90.386 123.049 90.386 126.586V133.2Z" fill="#FF5FC2"/>
<path d="M52.0162 111.173C52.1495 111.587 52.0162 116.513 52.0162 116.513C52.0162 116.513 61.022 120.337 68.7289 119.883C76.4357 119.429 84.724 117.42 84.724 117.42V110.673L52.0162 111.173Z" fill="#CE4EA3"/>
<path d="M90.386 126.586H46.3516V133.201H90.386V126.586Z" fill="#CE4EA3"/>
<path d="M102 102.076C120.778 83.2846 120.778 52.8172 102 34.0255C83.2223 15.2338 52.7777 15.2338 34 34.0255C15.2223 52.8172 15.2223 83.2846 34 102.076C52.7777 120.868 83.2223 120.868 102 102.076Z" fill="#734293"/>
<path d="M98.4694 98.5433C115.297 81.7029 115.297 54.3993 98.4693 37.5588C81.6414 20.7184 54.3581 20.7184 37.5303 37.5587C20.7025 54.3991 20.7026 81.7028 37.5304 98.5432C54.3583 115.384 81.6416 115.384 98.4694 98.5433Z" fill="#A058C6"/>
<path d="M95.044 95.121C109.98 80.1738 109.98 55.9397 95.044 40.9926C80.108 26.0454 55.8919 26.0454 40.9559 40.9926C26.0199 55.9397 26.0199 80.1738 40.9559 95.121C55.8919 110.068 80.108 110.068 95.044 95.121Z" fill="#FF5FC2"/>
<path d="M67.8051 68.0364L67.2201 29.766C73.7593 29.666 80.2162 31.246 85.9714 34.3546C94.0541 38.7206 100.301 45.8575 103.561 54.4506L67.8051 68.0364Z" fill="#79FF66"/>
<path d="M68.3987 67.87L37.6776 90.6685C33.7821 85.4113 31.2982 79.2411 30.4644 72.7496C29.2936 63.6329 31.4424 54.3923 36.5154 46.7297L68.3987 67.87Z" fill="#79FF66"/>
<path d="M68.0234 67.8592L101.68 86.0391C98.5735 91.7986 94.0423 96.6655 88.5209 100.173C80.7665 105.099 71.4925 107.069 62.4072 105.719L68.0234 67.8592Z" fill="#79FF66"/>
<path d="M75.6904 115.062C75.6459 115.062 75.6013 115.059 75.557 115.052L61.6649 113.023C61.4222 112.988 61.2037 112.857 61.0572 112.661C60.9106 112.464 60.8484 112.217 60.8836 111.974L67.1233 69.2712L31.6649 96.7014C31.4516 96.8664 31.1767 96.9301 30.913 96.8754C30.649 96.821 30.4218 96.6538 30.2912 96.4178L22.811 82.9043C22.7531 82.7997 22.716 82.6847 22.7018 82.566L20.3701 63.0506C20.3506 62.8872 20.375 62.7217 20.4407 62.5709L29.1839 42.5181C29.2899 42.2748 29.4956 42.0886 29.7482 42.0074C30.0006 41.9265 30.2761 41.9575 30.504 42.0933L67.0684 63.894L66.2953 22.0999C66.2905 21.8348 66.3994 21.5805 66.5946 21.4013C66.7899 21.2221 67.053 21.1356 67.3161 21.1632L76.5639 22.1352C76.669 22.1463 76.7715 22.1754 76.8668 22.2212L98.1419 32.4293C98.2815 32.4962 98.4021 32.5973 98.4925 32.7231L111.845 51.292C112.013 51.5265 112.063 51.8262 111.978 52.1023C111.894 52.3785 111.686 52.5995 111.415 52.6997L71.4797 67.4894L71.3841 67.603C86.2551 76.0031 107.797 88.1274 109.121 88.7499C109.354 88.8311 109.552 89.0044 109.66 89.2386C109.927 89.8196 109.541 90.2311 109.286 90.5035C109.142 90.6577 108.935 90.8712 108.653 91.1568C108.145 91.6729 107.394 92.4222 106.422 93.3832C104.787 94.9986 102.504 97.2378 99.6335 100.039C94.7478 104.806 89.7889 109.614 89.7394 109.662C89.6498 109.748 89.5435 109.816 89.4269 109.861L76.0206 115.001C75.915 115.041 75.8031 115.062 75.6904 115.062ZM62.8466 111.326L75.5851 113.187L88.5894 108.201C95.1476 101.842 104.553 92.6791 107.31 89.8877C106.385 89.3906 104.839 88.5286 102.173 87.0419C98.9374 85.2374 94.4469 82.7194 88.8269 79.5579C79.2589 74.1755 69.6024 68.7198 69.5059 68.6654C69.3457 68.5749 69.2183 68.44 69.1367 68.2793L62.8466 111.326ZM24.516 82.1663L31.3866 94.5787L67.7736 66.4304C67.6964 66.4086 67.6214 66.3767 67.5505 66.3344L30.4591 44.2195L22.2356 63.0803L24.516 82.1663ZM68.6183 66.248C68.6933 66.2689 68.7665 66.2997 68.8357 66.3402C69.1461 66.5216 69.3218 66.8658 69.2899 67.2211L70.2231 66.1111C70.3263 65.9885 70.4594 65.8948 70.6095 65.8392L109.636 51.3861L97.1304 33.9951L76.2124 23.9581L68.1634 23.112L68.9478 65.5227C68.9531 65.8045 68.8296 66.0702 68.6183 66.248Z" fill="#734293"/>
<path d="M75.0824 61.6817L75.0845 61.6805L75.0748 61.6737C74.3464 60.9311 73.4945 60.3498 72.5719 59.9425L61.5783 52.3385C62.1111 51.3515 62.1231 50.1165 61.5007 49.0874C60.566 47.5416 58.5563 47.0466 57.0115 47.982C55.4668 48.9172 54.9723 50.9285 55.9068 52.4746C56.5592 53.5535 57.7353 54.1197 58.9116 54.0455L61.1917 67.557C61.2094 68.3234 61.3359 69.0927 61.5773 69.8419L61.5799 69.8577L61.582 69.8563C61.7712 70.4405 62.0277 71.0127 62.3592 71.5607C64.6769 75.3941 69.6609 76.6214 73.4914 74.3021C77.322 71.9826 78.5484 66.9948 76.2308 63.1614C75.8991 62.6133 75.5117 62.1204 75.0824 61.6817Z" fill="white"/>
<path d="M73.562 67.8099C73.9331 65.5214 72.3801 63.365 70.0933 62.9936C67.8064 62.6222 65.6517 64.1763 65.2806 66.4649C64.9094 68.7534 66.4624 70.9098 68.7492 71.2812C71.0361 71.6526 73.1908 70.0985 73.562 67.8099Z" fill="#F2D633"/>
<path d="M60.6282 50.5991C60.6282 51.6848 59.7487 52.565 58.6637 52.565C57.5788 52.565 56.699 51.6848 56.699 50.5991C56.699 49.5131 57.5788 48.6329 58.6637 48.6329C59.7487 48.6329 60.6282 49.513 60.6282 50.5991Z" fill="#F2D633"/>
<g opacity="0.25">
<path d="M48.5952 123.1C48.2826 123.709 48.4097 124.562 48.9869 124.929C49.6279 125.337 50.4615 125.029 51.1701 124.755C56.2619 122.785 61.8958 123.053 67.3547 123.007C67.5747 123.006 67.8204 122.993 67.9718 122.833C68.1413 122.654 68.1131 122.35 67.9665 122.152C67.8197 121.954 67.5851 121.842 67.3523 121.762C66.5711 121.491 65.7254 121.494 64.8987 121.505C61.8257 121.547 58.7541 121.663 55.6842 121.806C54.1763 121.877 52.6505 122.035 51.1413 122.031C50.1177 122.028 49.147 122.026 48.5952 123.1Z" fill="white"/>
</g>
<g opacity="0.25">
<path d="M74.5628 123.76C74.8639 123.745 75.173 123.721 75.4447 123.59C75.7166 123.46 75.9462 123.199 75.9539 122.897C75.997 121.247 72.2777 121.866 71.4745 122.553C69.8105 123.976 73.8574 123.795 74.5628 123.76Z" fill="white"/>
</g>
<g opacity="0.25">
<path d="M54.2187 19.6688C54.7861 19.7557 55.3515 19.4481 55.747 19.0319C56.1424 18.6155 56.4084 18.0963 56.7175 17.6123C57.7563 15.9853 59.3402 14.7133 61.1526 14.0509C61.442 13.9451 61.7479 13.8479 61.9694 13.6336C62.191 13.4191 62.2937 13.0435 62.1044 12.8002C62.004 12.6715 61.8433 12.6042 61.6842 12.568C60.9045 12.3905 60.1311 12.8304 59.4519 13.2528C57.7787 14.2931 56.1053 15.3425 54.5984 16.6187C54.1816 16.9719 53.4704 17.3293 53.2358 17.8403C52.8868 18.5999 53.4024 19.5436 54.2187 19.6688Z" fill="white"/>
</g>
<g opacity="0.25">
<path d="M63.2884 11.9308C63.2163 12.0232 63.1575 12.1294 63.1408 12.2452C63.1039 12.5029 63.2929 12.7553 63.533 12.8556C63.7731 12.956 64.0486 12.9307 64.2986 12.8588C64.5487 12.7868 64.7842 12.6713 65.0317 12.5908C65.4966 12.4401 65.9926 12.4176 66.4812 12.4189C66.9008 12.4201 67.3479 12.4307 67.7039 12.2087C67.7775 12.1626 67.8517 12.0961 67.855 12.0092C67.8568 11.9618 67.8367 11.9164 67.8137 11.8751C67.6868 11.648 67.4578 11.491 67.2122 11.405C66.9667 11.3191 66.7039 11.2977 66.444 11.2884C65.8103 11.2663 65.1876 11.327 64.5625 11.4264C64.0907 11.5017 63.6081 11.5207 63.2884 11.9308Z" fill="white"/>
</g>
</svg>
