<svg width="49" height="49" viewBox="0 0 49 49" fill="none" xmlns="http://www.w3.org/2000/svg">
<path d="M38.6735 10.6971C36.0042 9.45275 33.1142 8.54961 30.1037 8.0278C30.0508 8.02856 30.0003 8.0502 29.9633 8.08801C29.602 8.75031 29.1805 9.6133 28.8996 10.2756C25.7065 9.79423 22.4592 9.79423 19.2661 10.2756C18.9852 9.59323 18.5637 8.75031 18.1824 8.08801C18.1623 8.04787 18.1021 8.0278 18.0419 8.0278C15.0315 8.54961 12.1615 9.45275 9.47216 10.6971C9.45209 10.6971 9.43203 10.7171 9.41196 10.7372C3.95302 18.9055 2.44779 26.8531 3.19037 34.7204C3.19037 34.7606 3.21044 34.8007 3.25058 34.8208C6.86311 37.47 10.3352 39.0755 13.7671 40.1392C13.8273 40.1593 13.8875 40.1392 13.9076 40.0991C14.7103 38.9952 15.4328 37.8312 16.055 36.607C16.0951 36.5267 16.055 36.4464 15.9747 36.4263C14.8308 35.9848 13.747 35.463 12.6833 34.8609C12.603 34.8208 12.603 34.7003 12.6632 34.6401C12.884 34.4796 13.1048 34.299 13.3255 34.1384C13.3657 34.0983 13.4259 34.0983 13.466 34.1183C20.37 37.2693 27.8158 37.2693 34.6395 34.1183C34.6796 34.0983 34.7398 34.0983 34.78 34.1384C35.0007 34.319 35.2215 34.4796 35.4423 34.6602C35.5225 34.7204 35.5225 34.8408 35.4222 34.881C34.3786 35.5031 33.2747 36.0049 32.1308 36.4464C32.0505 36.4665 32.0304 36.5668 32.0505 36.627C32.6927 37.8513 33.4152 39.0153 34.198 40.1191C34.2582 40.1392 34.3184 40.1593 34.3786 40.1392C37.8306 39.0755 41.3026 37.47 44.9151 34.8208C44.9553 34.8007 44.9753 34.7606 44.9753 34.7204C45.8584 25.6289 43.5103 17.7415 38.7538 10.7372C38.7337 10.7171 38.7136 10.6971 38.6735 10.6971ZM17.0986 29.9238C15.0315 29.9238 13.3055 28.0172 13.3055 25.669C13.3055 23.3209 14.9913 21.4142 17.0986 21.4142C19.226 21.4142 20.9119 23.3409 20.8918 25.669C20.8918 28.0172 19.2059 29.9238 17.0986 29.9238ZM31.0872 29.9238C29.02 29.9238 27.294 28.0172 27.294 25.669C27.294 23.3209 28.9798 21.4142 31.0872 21.4142C33.2145 21.4142 34.9004 23.3409 34.8803 25.669C34.8803 28.0172 33.2145 29.9238 31.0872 29.9238Z" fill="white"/>
</svg>
