<svg width="14" height="14" viewBox="0 0 14 14" fill="none" xmlns="http://www.w3.org/2000/svg">
<path fill-rule="evenodd" clip-rule="evenodd" d="M2.74516 3.43144C2.34473 3.43144 1.96071 3.59051 1.67756 3.87365C1.39442 4.1568 1.23535 4.54082 1.23535 4.94125V9.88242C1.23535 10.2828 1.39442 10.6669 1.67756 10.95C1.96071 11.2332 2.34473 11.3922 2.74516 11.3922H10.4314C10.8319 11.3922 11.2159 11.2332 11.499 10.95C11.7822 10.6669 11.9412 10.2828 11.9412 9.88242V4.94125C11.9412 4.54082 11.7822 4.1568 11.499 3.87365C11.2159 3.59051 10.8319 3.43144 10.4314 3.43144H2.74516ZM9.05888 6.72556C8.87687 6.72556 8.70231 6.79786 8.57361 6.92656C8.44491 7.05527 8.37261 7.22982 8.37261 7.41183C8.37261 7.59385 8.44491 7.7684 8.57361 7.8971C8.70231 8.0258 8.87687 8.09811 9.05888 8.09811C9.24089 8.09811 9.41545 8.0258 9.54415 7.8971C9.67285 7.7684 9.74515 7.59385 9.74515 7.41183C9.74515 7.22982 9.67285 7.05527 9.54415 6.92656C9.41545 6.79786 9.24089 6.72556 9.05888 6.72556Z" fill="white"/>
<path d="M9.05057 1.6851C9.21313 1.64178 9.38346 1.63639 9.54843 1.66935C9.7134 1.7023 9.86859 1.77272 10.002 1.87517C10.1355 1.97762 10.2436 2.10936 10.318 2.26022C10.3924 2.41108 10.4312 2.57703 10.4314 2.74526H4.94116L9.05057 1.6851Z" fill="white"/>
</svg>
