<svg width="20" height="20" viewBox="0 0 20 20" fill="none" xmlns="http://www.w3.org/2000/svg">
<mask id="mask0_534_1960" style="mask-type:luminance" maskUnits="userSpaceOnUse" x="1" y="0" width="18" height="20">
<path d="M9.99988 1.66667L12.1886 3.26334L14.8982 3.25834L15.7303 5.83667L17.9253 7.425L17.0832 10L17.9253 12.575L15.7303 14.1633L14.8982 16.7417L12.1886 16.7367L9.99988 18.3333L7.81113 16.7367L5.10155 16.7417L4.26946 14.1633L2.07446 12.575L2.91655 10L2.07446 7.425L4.26946 5.83667L5.10155 3.25834L7.81113 3.26334L9.99988 1.66667Z" fill="white" stroke="white" stroke-width="2" stroke-linecap="round" stroke-linejoin="round"/>
<path d="M7.08325 10L9.16659 12.0833L13.3333 7.91667" stroke="black" stroke-width="2" stroke-linecap="round" stroke-linejoin="round"/>
</mask>
<g mask="url(#mask0_534_1960)">
<path d="M0 0H20V20H0V0Z" fill="#18C3A7"/>
</g>
</svg>
