<svg width="15" height="15" viewBox="0 0 15 15" fill="none" xmlns="http://www.w3.org/2000/svg">
<path d="M7.47217 3.53743C7.49779 2.83993 7.69404 2.22743 8.05529 1.71555C8.41873 1.20086 9.01967 0.835239 9.84186 0.628052L9.85904 0.703989V0.836489C9.85904 1.1368 9.78623 1.48149 9.64248 1.86024C9.49154 2.22711 9.25592 2.57274 8.94311 2.8843C8.65061 3.15899 8.37967 3.34055 8.14029 3.42274C8.06154 3.44649 7.95311 3.46961 7.82217 3.49055C7.70592 3.50868 7.58925 3.5243 7.47217 3.53743Z" fill="white"/>
<path d="M7.60932 4.57187C6.68057 4.57187 6.03557 3.75 5.119 3.75C4.20275 3.75 2.31494 4.5925 2.31494 7.5C2.31494 10.4081 3.9915 12.2812 4.179 12.5C4.3665 12.7191 4.79994 13.2812 5.47182 13.2812C6.14369 13.2812 6.879 12.7472 7.60932 12.7472C8.33963 12.7472 9.259 13.2816 9.85932 13.2816C10.4593 13.2816 10.7062 13.0369 11.1143 12.6147C11.5224 12.1925 12.3018 10.9053 12.5737 10.1322C12.1259 9.86531 10.9381 9.14156 10.9381 7.50031C10.9381 6.40635 11.3379 5.4975 12.1374 4.77375C11.6129 4.09146 11.0045 3.75031 10.3124 3.75031C9.274 3.75031 8.53838 4.57187 7.60932 4.57187Z" fill="white" stroke="white" stroke-width="1.5" stroke-linejoin="round"/>
</svg>
