<svg width="24" height="24" viewBox="0 0 24 24" fill="none" xmlns="http://www.w3.org/2000/svg">
<path d="M19.888 7.335C19.2655 6.19099 18.2313 5.32655 16.995 4.917C16.2619 4.64976 15.4971 4.47899 14.72 4.409C14.5306 4.745 14.3613 5.091 14.212 5.447C12.7009 5.21461 11.1631 5.21461 9.65198 5.447C9.49737 5.09211 9.32413 4.74562 9.13298 4.409C8.38098 4.491 7.63998 4.658 6.92498 4.906C5.6803 5.31756 4.64091 6.19088 4.02098 7.346C2.38439 10.3058 1.71643 13.704 2.11098 17.063C3.6163 18.1809 5.30012 19.0356 7.09098 19.591C7.59837 19.0975 7.97738 18.4875 8.19498 17.814C7.65498 17.6113 7.13598 17.3647 6.63798 17.074C6.54898 16.952 6.89198 16.754 7.00198 16.72C8.57268 17.4558 10.286 17.8372 12.0205 17.8372C13.755 17.8372 15.4683 17.4558 17.039 16.72C17.139 16.72 17.492 16.952 17.403 17.074C16.962 17.416 15.979 17.659 15.813 17.902C16.1024 18.5132 16.4742 19.0818 16.918 19.592C18.7125 19.0371 20.3998 18.1816 21.908 17.062C22.2679 13.6882 21.5615 10.2865 19.888 7.335ZM8.66898 14.7C8.15558 14.6939 7.66545 14.4849 7.30568 14.1186C6.94592 13.7523 6.74578 13.2584 6.74898 12.745C6.75754 12.2394 6.96288 11.757 7.32139 11.4004C7.6799 11.0437 8.16333 10.8409 8.66898 10.835C8.92527 10.8359 9.17885 10.8876 9.41505 10.987C9.65126 11.0865 9.86541 11.2318 10.0451 11.4145C10.2249 11.5972 10.3666 11.8137 10.4622 12.0515C10.5578 12.2893 10.6053 12.5437 10.602 12.8C10.5908 13.3061 10.3825 13.7878 10.0215 14.1427C9.66046 14.4976 9.1752 14.6975 8.66898 14.7ZM15.294 14.7C14.7804 14.6971 14.2889 14.491 13.9268 14.1267C13.5648 13.7624 13.3617 13.2696 13.362 12.756C13.3642 12.5022 13.4164 12.2514 13.5156 12.0178C13.6148 11.7841 13.759 11.5724 13.94 11.3945C14.121 11.2166 14.3353 11.0761 14.5707 10.9811C14.806 10.886 15.0577 10.8383 15.3115 10.8405C15.5653 10.8427 15.8161 10.8949 16.0497 10.9941C16.2833 11.0933 16.4951 11.2375 16.673 11.4185C16.8509 11.5996 16.9913 11.8139 17.0864 12.0492C17.1814 12.2845 17.2292 12.5362 17.227 12.79C17.2188 13.297 17.0115 13.7804 16.6498 14.1358C16.2881 14.4911 15.801 14.6899 15.294 14.689V14.7Z" fill="white"/>
</svg>
