<svg width="14" height="14" viewBox="0 0 14 14" fill="none" xmlns="http://www.w3.org/2000/svg">
<path d="M2.288 2.28788H4.00394L5.1479 1.14392H8.57978L9.72373 2.28788H11.4397C11.7431 2.28788 12.034 2.4084 12.2486 2.62294C12.4631 2.83747 12.5836 3.12844 12.5836 3.43184V10.2956C12.5836 10.599 12.4631 10.89 12.2486 11.1045C12.034 11.319 11.7431 11.4396 11.4397 11.4396H2.288C1.98461 11.4396 1.69363 11.319 1.4791 11.1045C1.26457 10.89 1.14404 10.599 1.14404 10.2956V3.43184C1.14404 3.12844 1.26457 2.83747 1.4791 2.62294C1.69363 2.4084 1.98461 2.28788 2.288 2.28788ZM6.86384 4.00382C6.10535 4.00382 5.37792 4.30513 4.84158 4.84146C4.30525 5.3778 4.00394 6.10522 4.00394 6.86371C4.00394 7.62221 4.30525 8.34963 4.84158 8.88597C5.37792 9.4223 6.10535 9.72361 6.86384 9.72361C7.62233 9.72361 8.34975 9.4223 8.88609 8.88597C9.42242 8.34963 9.72373 7.62221 9.72373 6.86371C9.72373 6.10522 9.42242 5.3778 8.88609 4.84146C8.34975 4.30513 7.62233 4.00382 6.86384 4.00382ZM6.86384 5.14778C7.31893 5.14778 7.75539 5.32856 8.07719 5.65036C8.39899 5.97216 8.57978 6.40862 8.57978 6.86371C8.57978 7.31881 8.39899 7.75527 8.07719 8.07707C7.75539 8.39887 7.31893 8.57965 6.86384 8.57965C6.40874 8.57965 5.97229 8.39887 5.65049 8.07707C5.32868 7.75527 5.1479 7.31881 5.1479 6.86371C5.1479 6.40862 5.32868 5.97216 5.65049 5.65036C5.97229 5.32856 6.40874 5.14778 6.86384 5.14778Z" fill="white"/>
</svg>
