<svg width="17" height="17" viewBox="0 0 17 17" fill="none" xmlns="http://www.w3.org/2000/svg">
<path d="M14.6999 9.02076C14.6999 10.1968 13.8312 11.1724 12.6953 11.3328V13.3641C12.6953 13.7186 12.5545 14.0585 12.3038 14.3091C12.0532 14.5597 11.7133 14.7005 11.3589 14.7005H8.81965V14.5001C8.81965 14.0216 8.62957 13.5627 8.29122 13.2243C7.95288 12.886 7.49398 12.6959 7.01548 12.6959C6.01317 12.6959 5.21132 13.5045 5.21132 14.5001V14.7005H2.67211C2.31767 14.7005 1.97775 14.5597 1.72712 14.3091C1.47649 14.0585 1.33569 13.7186 1.33569 13.3641V10.8249H1.53616C2.53179 10.8249 3.34033 10.0231 3.34033 9.02076C3.34033 8.01844 2.53179 7.21659 1.53616 7.21659H1.33569V4.67739C1.33569 4.32295 1.47649 3.98302 1.72712 3.73239C1.97775 3.48177 2.31767 3.34097 2.67211 3.34097H4.70347C4.86385 2.20501 5.83943 1.33633 7.01548 1.33633C8.19153 1.33633 9.16712 2.20501 9.32749 3.34097H11.3589C11.7133 3.34097 12.0532 3.48177 12.3038 3.73239C12.5545 3.98302 12.6953 4.32295 12.6953 4.67739V6.70875C13.8312 6.86912 14.6999 7.84471 14.6999 9.02076ZM11.3589 10.0231H12.3612C12.627 10.0231 12.8819 9.91747 13.0699 9.7295C13.2579 9.54153 13.3635 9.28659 13.3635 9.02076C13.3635 8.75493 13.2579 8.49998 13.0699 8.31201C12.8819 8.12404 12.627 8.01844 12.3612 8.01844H11.3589V4.67739H8.0178V3.67507C8.0178 3.40924 7.9122 3.1543 7.72423 2.96633C7.53626 2.77836 7.28131 2.67276 7.01548 2.67276C6.74965 2.67276 6.49471 2.77836 6.30674 2.96633C6.11877 3.1543 6.01317 3.40924 6.01317 3.67507V4.67739H2.67211V6.09399C3.84817 6.54838 4.67675 7.68434 4.67675 9.02076C4.67675 10.3572 3.84148 11.4931 2.67211 11.9475V13.3641H4.08872C4.31769 12.7739 4.71968 12.2667 5.24196 11.909C5.76424 11.5513 6.38244 11.3597 7.01548 11.3595C8.3519 11.3595 9.48786 12.1948 9.94225 13.3641H11.3589V10.0231Z" fill="#B3B6C7"/>
</svg>
