<svg width="17" height="17" viewBox="0 0 17 17" fill="none" xmlns="http://www.w3.org/2000/svg">
<path fill-rule="evenodd" clip-rule="evenodd" d="M8.84176 0.908436C9.26407 0.401933 10.0866 0.748066 10.0198 1.40425L9.54806 6.01357H13.3642C13.4912 6.01361 13.6155 6.04983 13.7226 6.11799C13.8298 6.18614 13.9153 6.28341 13.9691 6.39839C14.023 6.51338 14.0429 6.64133 14.0267 6.76725C14.0104 6.89318 13.9587 7.01187 13.8774 7.10943L7.19529 15.128C6.77298 15.6345 5.95042 15.2883 6.01724 14.6321L6.48899 10.0228H2.67284C2.54587 10.0228 2.42155 9.98656 2.31442 9.91841C2.20729 9.85025 2.1218 9.75299 2.06795 9.638C2.0141 9.52302 1.99413 9.39507 2.01037 9.26914C2.02661 9.14322 2.0784 9.02452 2.15966 8.92696L8.84176 0.908436ZM4.09947 8.68641H7.67306C7.71042 8.68641 7.74736 8.69424 7.7815 8.70939C7.81564 8.72455 7.84623 8.74669 7.87129 8.77439C7.89635 8.80209 7.91532 8.83474 7.92699 8.87023C7.93865 8.90572 7.94275 8.94325 7.93901 8.98042L7.56949 12.5921L11.9376 7.34999H8.36399C8.32664 7.34999 8.2897 7.34216 8.25556 7.327C8.22141 7.31185 8.19083 7.28971 8.16577 7.262C8.14071 7.2343 8.12174 7.20165 8.11007 7.16617C8.09841 7.13068 8.09431 7.09314 8.09805 7.05597L8.46757 3.44496L4.09947 8.68641Z" fill="#B3B6C7"/>
</svg>
