<svg width="135" height="125" viewBox="0 0 135 125" fill="none" xmlns="http://www.w3.org/2000/svg">
<path fill-rule="evenodd" clip-rule="evenodd" d="M67.5553 96.9788L71.1749 101.639C71.1749 101.639 76.5903 102.474 79.7239 107.783C79.7239 107.783 84.2506 109.176 85.4694 114.921V119.622C85.4694 119.622 82.6837 124.67 67.4509 124.67C52.218 124.67 49.4324 119.622 49.4324 119.622V114.921C50.6509 109.176 55.1775 107.783 55.1775 107.783C58.3112 102.474 63.7266 101.639 63.7266 101.639L67.5553 96.9788Z" fill="#F6E139"/>
<path fill-rule="evenodd" clip-rule="evenodd" d="M79.6616 107.783C88.5333 112.605 62.1509 119.221 54.9407 108.36C58.4624 113.555 78.1677 114.97 79.6616 107.783Z" fill="#C05722"/>
<path fill-rule="evenodd" clip-rule="evenodd" d="M61.755 81.4462H67.4509H73.1467L71.3036 101.639H67.4509H63.5982L61.755 81.4462Z" fill="#F6E139"/>
<path fill-rule="evenodd" clip-rule="evenodd" d="M61.755 81.4462H67.4509H73.1467L72.2477 91.2928C68.6844 89.573 65.2453 89.9104 62.6044 90.7495L61.755 81.4462Z" fill="#E0922D"/>
<path d="M67.451 87.6645C72.8973 87.6645 77.3123 85.3237 77.3123 82.4361C77.3123 79.5486 72.8973 77.2077 67.451 77.2077C62.0048 77.2077 57.5897 79.5486 57.5897 82.4361C57.5897 85.3237 62.0048 87.6645 67.451 87.6645Z" fill="#C05722"/>
<path fill-rule="evenodd" clip-rule="evenodd" d="M49.4324 118.851C56.8081 124.923 77.3513 124.445 85.4697 118.534V119.621C85.4697 119.621 82.6841 124.67 67.4512 124.67C52.2184 124.67 49.4327 119.621 49.4327 119.621V118.851H49.4324Z" fill="#E0922D"/>
<path fill-rule="evenodd" clip-rule="evenodd" d="M38.0483 26.4292H96.8538V55.8319C96.8538 72.0038 83.6229 85.2347 67.451 85.2347C51.2792 85.2347 38.0483 72.0038 38.0483 55.8319V26.4292Z" fill="#F6E139"/>
<path d="M67.451 36.5371C83.6898 36.5371 96.8538 32.0116 96.8538 26.4292C96.8538 20.8468 83.6898 16.3214 67.451 16.3214C51.2123 16.3214 38.0483 20.8468 38.0483 26.4292C38.0483 32.0116 51.2123 36.5371 67.451 36.5371Z" fill="#F6E139"/>
<path d="M67.4513 35.3664C81.8092 35.3664 93.4486 31.365 93.4486 26.4291C93.4486 21.4931 81.8092 17.4917 67.4513 17.4917C53.0934 17.4917 41.454 21.4931 41.454 26.4291C41.454 31.365 53.0934 35.3664 67.4513 35.3664Z" fill="#E0922D"/>
<path fill-rule="evenodd" clip-rule="evenodd" d="M89.7633 31.0176C85.2207 33.6227 76.9288 35.3666 67.451 35.3666C57.9732 35.3666 49.6809 33.6227 45.1383 31.0176C49.7818 28.4612 58.0379 26.7599 67.451 26.7599C76.8641 26.7599 85.1199 28.4612 89.7633 31.0176Z" fill="#C05722"/>
<path fill-rule="evenodd" clip-rule="evenodd" d="M111.928 45.4653C111.519 52.169 106.067 60.337 96.0133 62.8038C95.5094 64.8569 94.7881 66.8275 93.8753 68.6888C107.789 68.2477 113.005 54.9991 111.928 45.4653Z" fill="#E0922D"/>
<path fill-rule="evenodd" clip-rule="evenodd" d="M97.7946 62.2925C97.218 62.483 96.6244 62.6543 96.0133 62.8041C95.5094 64.8573 94.7881 66.8278 93.8753 68.6892C96.0501 68.6203 98.0123 68.2384 99.7715 67.6068C100.28 66.6943 100.816 66.0732 100.816 66.0732C97.8106 65.9554 97.2564 64.2746 97.7946 62.2925Z" fill="#C05722"/>
<path fill-rule="evenodd" clip-rule="evenodd" d="M111.928 45.4652C112.4 54.3184 106.159 66.4144 93.8754 68.6891C92.2996 71.9034 90.1539 74.7928 87.5719 77.2237C120.683 75.282 129.429 29.5434 109.415 25.8114C104.746 24.9406 99.7009 26.8509 96.8541 30.8839V38.945C98.6392 36.6178 102.01 35.4992 105.12 35.9826C109.999 36.7411 112.217 40.7388 111.928 45.4652Z" fill="#F6E139"/>
<path fill-rule="evenodd" clip-rule="evenodd" d="M100.81 66.075C98.7689 67.2987 96.4561 68.2111 93.8754 68.6891C92.2996 71.9034 90.1539 74.7928 87.5719 77.2237C92.5772 76.9301 97.0212 75.6309 100.898 73.6322C96.4087 71.1722 100.816 66.0731 100.816 66.0731L100.81 66.075Z" fill="#E0922D"/>
<path fill-rule="evenodd" clip-rule="evenodd" d="M105.678 25.6924C102.23 26.1006 98.9475 27.9184 96.854 30.884V38.9451C98.1151 37.3011 100.167 36.2606 102.36 35.9616C100.157 31.0559 102.75 27.7324 105.678 25.6924Z" fill="#E0922D"/>
<path fill-rule="evenodd" clip-rule="evenodd" d="M22.9746 45.4653C23.3841 52.169 28.8357 60.337 38.8894 62.8038C39.3937 64.8569 40.1146 66.8275 41.0274 68.6888C27.2048 67.7998 21.6972 55.0439 22.9746 45.4653Z" fill="#E0922D"/>
<path fill-rule="evenodd" clip-rule="evenodd" d="M22.9743 45.465C22.5028 54.3182 28.7435 66.4142 41.0271 68.6889C42.6029 71.9032 44.7485 74.7926 47.3306 77.2235C14.2195 75.2814 5.47291 29.5429 25.4875 25.8112C30.1563 24.9404 35.2016 26.8507 38.0484 30.8837V38.9448C36.2632 36.6176 32.8927 35.499 29.7824 35.9824C24.9039 36.7409 22.6859 40.7386 22.9743 45.465Z" fill="#F6E139"/>
<path fill-rule="evenodd" clip-rule="evenodd" d="M29.2247 25.6924C32.6724 26.1006 35.9553 27.9184 38.0488 30.884V38.9451C36.7877 37.3011 34.7355 36.2606 32.5428 35.9616C34.7454 31.0559 32.1528 27.7324 29.2247 25.6924Z" fill="#E0922D"/>
<path fill-rule="evenodd" clip-rule="evenodd" d="M37.108 62.2925C37.6846 62.483 38.2781 62.6543 38.8893 62.8041C39.3936 64.8573 40.1145 66.8278 41.0273 68.6892C38.8525 68.6203 36.8903 68.2384 35.1311 67.6067C34.623 66.6943 34.0864 66.0732 34.0864 66.0732C37.092 65.9554 37.6462 64.2746 37.108 62.2925Z" fill="#C05722"/>
<path fill-rule="evenodd" clip-rule="evenodd" d="M34.0924 66.075C36.1334 67.2986 38.4462 68.2111 41.0269 68.6891C42.6027 71.9034 44.7484 74.7928 47.3304 77.2237C42.3254 76.9301 37.8811 75.6309 34.0047 73.6322C38.4936 71.1722 34.0863 66.0731 34.0863 66.0731L34.0924 66.075Z" fill="#E0922D"/>
<path fill-rule="evenodd" clip-rule="evenodd" d="M67.4513 44.5597C83.3302 44.5597 83.3302 68.7034 67.4513 68.7034C51.5724 68.7034 51.5724 44.5597 67.4513 44.5597Z" fill="#E0922D"/>
<path fill-rule="evenodd" clip-rule="evenodd" d="M71.506 64.6802L67.451 62.433L63.396 64.6805C63.0553 64.869 62.6609 64.845 62.3455 64.6161C62.0305 64.3872 61.8858 64.0194 61.9601 63.6371L62.844 59.0861L59.4539 55.924C59.1693 55.6586 59.0701 55.2757 59.1904 54.9053C59.3108 54.5345 59.6159 54.2832 60.0027 54.2355L64.6039 53.6698L66.5639 49.4684C66.7287 49.1156 67.0617 48.9031 67.4513 48.9031C67.841 48.9031 68.1742 49.1156 68.3388 49.4684L70.2984 53.6698L74.8997 54.2355C75.2861 54.2829 75.5912 54.5345 75.7116 54.9049C75.832 55.2754 75.733 55.6583 75.4481 55.9237L72.058 59.0858L72.9419 63.6368C73.0162 64.0194 72.8712 64.3866 72.5562 64.6158C72.2414 64.8447 71.847 64.8687 71.506 64.6802Z" fill="#C05722"/>
<path fill-rule="evenodd" clip-rule="evenodd" d="M88.7993 81.8497C88.7996 83.7216 90.3315 85.2539 92.2035 85.2539V85.2542C90.3312 85.2542 88.7993 86.7861 88.7993 88.6584C88.7993 86.7861 87.267 85.2542 85.3948 85.2542V85.2535C87.2673 85.2535 88.7993 83.7216 88.7993 81.8497Z" fill="#F6E139"/>
<path fill-rule="evenodd" clip-rule="evenodd" d="M34.2767 17.8811C34.7688 20.3261 37.1715 21.9243 39.6165 21.4325C37.1715 21.924 35.5733 24.3273 36.0647 26.7723C35.573 24.3277 33.1699 22.7291 30.7246 23.2209C33.1703 22.7291 34.7685 20.3261 34.2767 17.8811Z" fill="#F6E139"/>
<path fill-rule="evenodd" clip-rule="evenodd" d="M40.0014 10.1295H40.002C40.002 11.6237 41.2247 12.8463 42.7188 12.8463C41.2247 12.8463 40.002 14.0693 40.002 15.5638H40.0014C40.0014 14.0696 38.779 12.8467 37.2845 12.8467C38.779 12.8467 40.0014 11.6237 40.0014 10.1295Z" fill="#F6E139"/>
<path fill-rule="evenodd" clip-rule="evenodd" d="M36.7111 75.6678C36.7111 77.8192 38.4719 79.5797 40.6233 79.5797C38.4719 79.5797 36.7114 81.3402 36.7114 83.4916C36.7114 81.3402 34.9506 79.5797 32.7995 79.5797C34.9509 79.5797 36.7111 77.8192 36.7111 75.6678Z" fill="#F6E139"/>
<path fill-rule="evenodd" clip-rule="evenodd" d="M105.845 14.0188C105.845 16.1702 107.606 17.9304 109.757 17.9304V17.9307C107.606 17.9307 105.845 19.6913 105.845 21.8424C105.845 19.6909 104.085 17.9307 101.933 17.9307V17.9304C104.085 17.9307 105.845 16.1702 105.845 14.0188Z" fill="#F6E139"/>
<path fill-rule="evenodd" clip-rule="evenodd" d="M97.7345 79.4274C97.7345 80.164 98.3374 80.7669 99.0741 80.7669C98.3374 80.7669 97.7345 81.3697 97.7345 82.1064C97.7345 81.3697 97.1314 80.7669 96.395 80.7669C97.1314 80.7669 97.7345 80.164 97.7345 79.4274Z" fill="#F6E139"/>
<path fill-rule="evenodd" clip-rule="evenodd" d="M92.1665 10.3683C92.1665 11.1049 92.7694 11.7078 93.5061 11.7078C92.7694 11.7078 92.1665 12.3106 92.1665 13.0473C92.1665 12.3106 91.5634 11.7078 90.827 11.7078C91.5634 11.7081 92.1665 11.1049 92.1665 10.3683Z" fill="#F6E139"/>
<path fill-rule="evenodd" clip-rule="evenodd" d="M48.5542 81.3057C48.5542 82.0424 49.1571 82.6453 49.8937 82.6453C49.1571 82.6453 48.5542 83.2481 48.5542 83.9848C48.5542 83.2481 47.951 82.6453 47.2147 82.6453C47.951 82.6453 48.5542 82.0424 48.5542 81.3057Z" fill="#F6E139"/>
<path d="M118.772 74.5264C118.925 73.5979 118.296 72.7213 117.368 72.5683C116.439 72.4154 115.563 73.0442 115.41 73.9727C115.257 74.9012 115.886 75.7778 116.814 75.9307C117.743 76.0836 118.619 75.4549 118.772 74.5264Z" fill="white"/>
<path fill-rule="evenodd" clip-rule="evenodd" d="M132.546 55.5008C133.016 55.5008 133.398 55.8824 133.398 56.3527C133.398 56.823 133.016 57.2047 132.546 57.2047C132.075 57.2047 131.694 56.823 131.694 56.3527C131.694 55.8824 132.075 55.5008 132.546 55.5008Z" fill="white"/>
<path fill-rule="evenodd" clip-rule="evenodd" d="M133.885 3.1645C134.423 3.1645 134.858 3.60023 134.858 4.13808C134.858 4.67594 134.422 5.11167 133.885 5.11167C133.347 5.11167 132.911 4.67594 132.911 4.13808C132.911 3.60055 133.347 3.1645 133.885 3.1645Z" fill="white"/>
<path fill-rule="evenodd" clip-rule="evenodd" d="M6.20755 0C6.54371 0 6.81616 0.27245 6.81616 0.60861C6.81616 0.944769 6.54371 1.2169 6.20755 1.2169C5.87139 1.2169 5.59926 0.944449 5.59926 0.60861C5.59894 0.27213 5.87139 0 6.20755 0Z" fill="white"/>
<path fill-rule="evenodd" clip-rule="evenodd" d="M0.851925 50.1456C1.32223 50.1456 1.70385 50.5272 1.70385 50.9976C1.70385 51.4679 1.32223 51.8495 0.851925 51.8495C0.381301 51.8495 0 51.4679 0 50.9976C0 50.5272 0.381621 50.1456 0.851925 50.1456Z" fill="white"/>
<path fill-rule="evenodd" clip-rule="evenodd" d="M19.2308 8.52003C19.7687 8.52003 20.2044 8.95576 20.2044 9.49361C20.2044 10.0315 19.7687 10.4672 19.2308 10.4672C18.693 10.4672 18.2573 10.0315 18.2573 9.49361C18.2573 8.95576 18.693 8.52003 19.2308 8.52003Z" fill="white"/>
<path fill-rule="evenodd" clip-rule="evenodd" d="M5.59906 92.015C6.00213 92.015 6.32932 92.3418 6.32932 92.7449C6.32932 93.148 6.00245 93.4752 5.59906 93.4752C5.19599 93.4752 4.86879 93.1483 4.86879 92.7449C4.86879 92.3418 5.19567 92.015 5.59906 92.015Z" fill="white"/>
<path fill-rule="evenodd" clip-rule="evenodd" d="M119.035 97.6139C119.304 97.6139 119.522 97.8319 119.522 98.1008C119.522 98.3697 119.304 98.5874 119.035 98.5874C118.767 98.5874 118.549 98.3694 118.549 98.1008C118.549 97.8319 118.767 97.6139 119.035 97.6139Z" fill="white"/>
<path fill-rule="evenodd" clip-rule="evenodd" d="M95.6448 94.4081C95.9099 94.4081 96.125 94.623 96.125 94.8884C96.125 95.1535 95.9102 95.3683 95.6448 95.3683C95.3797 95.3683 95.1646 95.1535 95.1646 94.8884C95.1649 94.623 95.3797 94.4081 95.6448 94.4081Z" fill="white"/>
</svg>
