<svg width="77" height="72" viewBox="0 0 77 72" fill="none" xmlns="http://www.w3.org/2000/svg">
<g clip-path="url(#clip0_534_2044)">
<path d="M38.4461 21.5013C35.6767 21.5533 31.3329 18.5994 26.8204 18.7937C20.8656 18.9785 15.4636 22.3344 12.4873 27.5465C6.49744 38.008 11.3743 53.2026 17.564 61.4976C20.5998 65.5365 24.1764 70.0772 28.802 69.8442C33.2373 69.5782 34.8579 66.9514 40.245 66.8504C45.5941 66.7501 47.1637 69.5 51.8659 69.3021C56.6446 69.1394 59.6028 64.9882 62.4466 60.8025C65.7339 55.9868 67.0513 51.3544 67.1223 51.0971C67.0078 51.0626 57.7633 47.835 57.4576 37.6012C57.2213 29.0484 64.4665 24.8168 64.8045 24.6276C60.5211 18.8202 54.0973 18.2824 51.8563 18.1781C46.0057 17.8489 41.1776 21.4501 38.4461 21.5013ZM48.1481 12.6891C50.5605 9.7914 52.1171 5.77614 51.5879 1.83656C48.0624 2.04892 43.8532 4.24886 41.3649 7.14793C39.1359 9.71301 37.2392 13.8078 37.843 17.6728C41.756 17.892 45.7356 15.5867 48.1481 12.6891Z" fill="#73DFCE"/>
</g>
<defs>
<clipPath id="clip0_534_2044">
<rect width="75.2348" height="69.6619" fill="white" transform="translate(0 1.41011) rotate(-1.07395)"/>
</clipPath>
</defs>
</svg>
