<svg width="24" height="24" viewBox="0 0 24 24" fill="none" xmlns="http://www.w3.org/2000/svg">
<path d="M11.25 6H9C7.114 6 6.172 6 5.586 6.586C5 7.172 5 8.114 5 10V16.25H19V10C19 8.114 19 7.172 18.414 6.586C17.828 6 16.886 6 15 6H12.75V10.973L13.43 10.179C13.4941 10.1041 13.5723 10.0426 13.6601 9.99802C13.748 9.95339 13.8438 9.9265 13.942 9.91888C14.0403 9.91127 14.139 9.92308 14.2327 9.95364C14.3264 9.9842 14.4131 10.0329 14.488 10.097C14.5629 10.1611 14.6244 10.2393 14.669 10.3271C14.7136 10.415 14.7405 10.5108 14.7481 10.609C14.7557 10.7073 14.7439 10.806 14.7134 10.8997C14.6828 10.9934 14.6341 11.0801 14.57 11.155L12.57 13.488C12.4996 13.5703 12.4122 13.6364 12.3138 13.6818C12.2154 13.7271 12.1083 13.7506 12 13.7506C11.8917 13.7506 11.7846 13.7271 11.6862 13.6818C11.5878 13.6364 11.5004 13.5703 11.43 13.488L9.43 11.155C9.36592 11.0801 9.3172 10.9934 9.28664 10.8997C9.25608 10.806 9.24427 10.7073 9.25188 10.609C9.2595 10.5108 9.28639 10.415 9.33102 10.3271C9.37565 10.2393 9.43715 10.1611 9.512 10.097C9.58685 10.0329 9.6736 9.9842 9.76728 9.95364C9.86096 9.92308 9.95974 9.91127 10.058 9.91888C10.1562 9.9265 10.252 9.95339 10.3399 9.99802C10.4277 10.0426 10.5059 10.1041 10.57 10.179L11.25 10.973V6ZM5.03 17.75H18.97C18.918 18.54 18.781 19.047 18.414 19.414C17.828 20 16.886 20 15 20H9C7.114 20 6.172 20 5.586 19.414C5.219 19.047 5.081 18.541 5.03 17.75Z" fill="white"/>
<path d="M5.88906 3H18.1101C20.2601 3 22.0001 4.8 22.0001 7.02C22.0001 8.31 21.4131 9.457 20.5001 10.193V9.911C20.5001 9.045 20.5001 8.251 20.4131 7.606C20.3181 6.895 20.0931 6.143 19.4751 5.526C18.8571 4.907 18.1051 4.682 17.3951 4.586C16.7491 4.5 15.9551 4.5 15.0891 4.5H8.91006C8.04506 4.5 7.25106 4.5 6.60606 4.587C5.89506 4.682 5.14306 4.907 4.52606 5.525C3.90706 6.143 3.68206 6.895 3.58606 7.605C3.50006 8.251 3.50006 9.045 3.50006 9.911V10.193C3.0286 9.81001 2.64909 9.32611 2.38948 8.77696C2.12988 8.22781 1.9968 7.62741 2.00006 7.02C2.00006 4.8 3.74106 3 5.88906 3Z" fill="white"/>
</svg>
