<svg width="17" height="17" viewBox="0 0 17 17" fill="none" xmlns="http://www.w3.org/2000/svg">
<g clip-path="url(#clip0_534_2081)">
<path d="M7.26026 4.23825C7.18154 4.01459 7.03536 3.82087 6.84188 3.68381C6.6484 3.54676 6.41715 3.47312 6.18005 3.47305H5.29228C5.04044 3.47376 4.7977 3.56734 4.61057 3.73589C4.42343 3.90444 4.30505 4.13609 4.2781 4.38649C4.25114 4.6369 4.31751 4.88844 4.46448 5.09295C4.61146 5.29747 4.82871 5.44057 5.07464 5.49486L6.42404 5.7904C6.70015 5.85067 6.94424 6.01087 7.10938 6.24022C7.27452 6.46957 7.34904 6.75186 7.31863 7.03284C7.28821 7.31381 7.15501 7.57362 6.94462 7.76232C6.73423 7.95102 6.46152 8.05528 6.1789 8.05506H5.41485C5.17802 8.05517 4.94698 7.98186 4.75354 7.84524C4.56009 7.70861 4.41374 7.51539 4.33464 7.29216M5.7986 3.47305V2.32755M5.7986 9.20057V8.05506M7.98307 15.463V9.44914C7.98307 9.06938 8.13393 8.70518 8.40246 8.43665C8.67099 8.16812 9.03519 8.01726 9.41495 8.01726C9.79471 8.01726 10.1589 8.16812 10.4274 8.43665C10.696 8.70518 10.8468 9.06938 10.8468 9.44914V12.5993H13.1378C13.7455 12.5993 14.3282 12.8407 14.7578 13.2703C15.1875 13.6999 15.4288 14.2827 15.4288 14.8903V15.463" stroke="#B3B6C7" stroke-width="1.1455" stroke-linecap="round" stroke-linejoin="round"/>
<path d="M5.79943 10.9552C4.74257 10.9551 3.71093 10.6323 2.84245 10.0301C1.97397 9.4278 1.31005 8.57476 0.93944 7.585C0.568835 6.59525 0.509212 5.51594 0.768544 4.49138C1.02788 3.46682 1.5938 2.54585 2.39066 1.8516C3.18752 1.15734 4.17733 0.722894 5.22775 0.60634C6.27817 0.489786 7.33914 0.69668 8.26881 1.19936C9.19847 1.70204 9.95253 2.47655 10.4302 3.41933C10.9078 4.36212 11.0862 5.42824 10.9416 6.47517" stroke="#B3B6C7" stroke-width="1.1455" stroke-linecap="round"/>
</g>
<defs>
<clipPath id="clip0_534_2081">
<rect width="16.0371" height="16.0371" fill="white"/>
</clipPath>
</defs>
</svg>
