<svg width="33" height="33" viewBox="0 0 33 33" fill="none" xmlns="http://www.w3.org/2000/svg">
<path fill-rule="evenodd" clip-rule="evenodd" d="M6.875 1.375C5.41631 1.375 4.01736 1.95446 2.98591 2.98591C1.95446 4.01736 1.375 5.41631 1.375 6.875V26.125C1.375 27.5837 1.95446 28.9826 2.98591 30.0141C4.01736 31.0455 5.41631 31.625 6.875 31.625H26.125C27.5837 31.625 28.9826 31.0455 30.0141 30.0141C31.0455 28.9826 31.625 27.5837 31.625 26.125V6.875C31.625 5.41631 31.0455 4.01736 30.0141 2.98591C28.9826 1.95446 27.5837 1.375 26.125 1.375H6.875ZM13.717 23.8178L17.3167 25.0264V11.9487C17.3167 11.495 17.6234 10.9477 17.9891 10.9477C18.4539 10.9477 18.7481 11.5802 18.7481 11.9501V16.8795C19.0451 17.0528 19.7422 17.3993 20.1506 17.3993H20.1823C20.7378 17.4006 22.6765 17.4061 22.6765 14.4499C22.6765 11.4359 21.0856 10.2974 19.7587 9.86425L13.717 7.975V23.8178ZM12.7174 22.9144V21.1778C11.8786 21.4899 11.11 21.7415 10.637 21.8158C9.74738 21.9533 8.78075 21.8529 8.90175 21.3469C9.00487 20.9137 11.2117 20.1451 12.7174 19.668V17.6921C9.86287 18.5831 5.5 20.0901 5.5 21.0953C5.5 22.517 8.8385 22.9432 9.62088 22.99C10.0774 23.0175 11.3451 23.0629 12.7174 22.9144ZM27.5 20.4806C27.5 21.439 21.6439 23.6253 18.3177 24.7349V22.6669C19.939 22.0785 21.5551 21.4762 23.166 20.8601C24.3499 20.3857 24.563 20.0778 23.9951 19.8179C23.628 19.6488 22.8346 19.6089 22.1485 19.8179C20.862 20.2266 19.5848 20.6639 18.3177 21.1296V19.1538C19.58 18.81 20.9234 18.535 22.0055 18.491C24.123 18.4085 27.5 19.2253 27.5 20.4806Z" fill="white"/>
</svg>
