<svg width="17" height="17" viewBox="0 0 17 17" fill="none" xmlns="http://www.w3.org/2000/svg">
<path d="M8.35264 4.34342C8.35264 3.45732 8.70464 2.60751 9.33121 1.98094C9.95778 1.35437 10.8076 1.00237 11.6937 1.00237C12.5798 1.00237 13.4296 1.35437 14.0562 1.98094C14.6827 2.60751 15.0347 3.45732 15.0347 4.34342C15.0347 5.22952 14.6827 6.07933 14.0562 6.7059C13.4296 7.33247 12.5798 7.68447 11.6937 7.68447C10.8076 7.68447 9.95778 7.33247 9.33121 6.7059C8.70464 6.07933 8.35264 5.22952 8.35264 4.34342ZM1.33643 1.33647H7.35032V7.35037H1.33643V1.33647ZM1.33643 8.68679H7.35032V14.7007H1.33643V8.68679ZM8.68674 8.68679H14.7006V14.7007H8.68674V8.68679Z" fill="white"/>
</svg>
