<svg width="15" height="15" viewBox="0 0 15 15" fill="none" xmlns="http://www.w3.org/2000/svg">
<path d="M9.35932 1.88659L9.95932 0.804087C9.96699 0.790217 9.97186 0.77497 9.97364 0.759218C9.97542 0.743466 9.97408 0.727518 9.9697 0.712283C9.96532 0.697049 9.95798 0.682826 9.9481 0.670428C9.93822 0.65803 9.926 0.647699 9.91213 0.640025C9.89826 0.632351 9.88301 0.627484 9.86726 0.625702C9.85151 0.62392 9.83556 0.625259 9.82033 0.62964C9.80509 0.634022 9.79087 0.641362 9.77847 0.65124C9.76607 0.661118 9.75574 0.673342 9.74807 0.687212L9.14182 1.78096C8.6243 1.55402 8.06535 1.43685 7.50025 1.43685C6.93516 1.43685 6.37621 1.55402 5.85869 1.78096L5.25244 0.687212C5.23694 0.659033 5.21089 0.638165 5.18 0.629198C5.14912 0.620232 5.11593 0.623901 5.08775 0.6394C5.05958 0.654899 5.03871 0.680957 5.02974 0.711841C5.02077 0.742726 5.02444 0.775908 5.03994 0.804087L5.63994 1.88659C5.06924 2.16837 4.58706 2.60174 4.24621 3.13926C3.90535 3.67678 3.71896 4.29771 3.70744 4.93409H11.2931C11.2814 4.29758 11.0949 3.67655 10.7538 3.13902C10.4127 2.60149 9.93026 2.1682 9.35932 1.88659ZM3.70682 10.731C3.70657 10.8516 3.73015 10.9712 3.77619 11.0827C3.82223 11.1942 3.88984 11.2956 3.97514 11.3809C4.06044 11.4663 4.16174 11.534 4.27325 11.5801C4.38476 11.6262 4.50427 11.6499 4.62494 11.6497H5.23307V13.5247C5.23307 13.7502 5.32265 13.9665 5.48212 14.126C5.64158 14.2854 5.85786 14.375 6.08338 14.375C6.3089 14.375 6.52518 14.2854 6.68464 14.126C6.84411 13.9665 6.93369 13.7502 6.93369 13.5247V11.6497H8.06744V13.5247C8.06744 13.7501 8.157 13.9663 8.3164 14.1258C8.47581 14.2852 8.69201 14.3747 8.91744 14.3747C9.14288 14.3747 9.35908 14.2852 9.51848 14.1258C9.67789 13.9663 9.76744 13.7501 9.76744 13.5247V11.6497H10.3762C10.4967 11.6498 10.616 11.6261 10.7274 11.58C10.8388 11.534 10.9399 11.4664 11.0251 11.3812C11.1104 11.296 11.1779 11.1948 11.224 11.0834C11.2701 10.9721 11.2938 10.8527 11.2937 10.7322V5.23409H3.70619L3.70682 10.731ZM2.53994 5.08721C2.42827 5.08721 2.31768 5.10922 2.21452 5.15197C2.11135 5.19473 2.01762 5.2574 1.93868 5.33639C1.85974 5.41539 1.79714 5.50917 1.75446 5.61236C1.71178 5.71556 1.68986 5.82616 1.68994 5.93784V9.48096C1.68994 9.59259 1.71193 9.70312 1.75464 9.80624C1.79736 9.90937 1.85997 10.0031 1.9389 10.082C2.01783 10.1609 2.11153 10.2235 2.21466 10.2663C2.31779 10.309 2.42832 10.331 2.53994 10.331C2.65157 10.331 2.7621 10.309 2.86522 10.2663C2.96835 10.2235 3.06205 10.1609 3.14098 10.082C3.21991 10.0031 3.28252 9.90937 3.32524 9.80624C3.36796 9.70312 3.38994 9.59259 3.38994 9.48096V5.93846C3.38994 5.71303 3.30039 5.49683 3.14098 5.33742C2.98158 5.17802 2.76538 5.08846 2.53994 5.08846V5.08721ZM12.4599 5.08721C12.3483 5.08721 12.2377 5.10922 12.1345 5.15197C12.0313 5.19473 11.9376 5.2574 11.8587 5.33639C11.7797 5.41539 11.7171 5.50917 11.6745 5.61236C11.6318 5.71556 11.6099 5.82616 11.6099 5.93784V9.48096C11.6099 9.59259 11.6319 9.70312 11.6746 9.80624C11.7174 9.90937 11.78 10.0031 11.8589 10.082C11.9378 10.1609 12.0315 10.2235 12.1347 10.2663C12.2378 10.309 12.3483 10.331 12.4599 10.331C12.5716 10.331 12.6821 10.309 12.7852 10.2663C12.8883 10.2235 12.9821 10.1609 13.061 10.082C13.1399 10.0031 13.2025 9.90937 13.2452 9.80624C13.288 9.70312 13.3099 9.59259 13.3099 9.48096V5.93846C13.3099 5.71303 13.2204 5.49683 13.061 5.33742C12.9016 5.17802 12.6854 5.08846 12.4599 5.08846V5.08721Z" fill="white"/>
<path opacity="0.5" d="M5.74949 3.54696C5.9245 3.54696 6.06637 3.40509 6.06637 3.23008C6.06637 3.05508 5.9245 2.91321 5.74949 2.91321C5.57449 2.91321 5.43262 3.05508 5.43262 3.23008C5.43262 3.40509 5.57449 3.54696 5.74949 3.54696Z" fill="white"/>
<path opacity="0.5" d="M9.25071 3.54696C9.42572 3.54696 9.56759 3.40509 9.56759 3.23008C9.56759 3.05508 9.42572 2.91321 9.25071 2.91321C9.07571 2.91321 8.93384 3.05508 8.93384 3.23008C8.93384 3.40509 9.07571 3.54696 9.25071 3.54696Z" fill="white"/>
</svg>
