<svg width="37" height="37" viewBox="0 0 37 37" fill="none" xmlns="http://www.w3.org/2000/svg">
<path fill-rule="evenodd" clip-rule="evenodd" d="M6.66667 0C4.89856 0 3.20286 0.702379 1.95262 1.95262C0.702379 3.20286 0 4.89856 0 6.66667V30C0 31.7681 0.702379 33.4638 1.95262 34.714C3.20286 35.9643 4.89856 36.6667 6.66667 36.6667H30C31.7681 36.6667 33.4638 35.9643 34.714 34.714C35.9643 33.4638 36.6667 31.7681 36.6667 30V6.66667C36.6667 4.89856 35.9643 3.20286 34.714 1.95262C33.4638 0.702379 31.7681 0 30 0H6.66667ZM30.8333 18.3333C30.8333 21.6485 29.5164 24.828 27.1722 27.1722C24.828 29.5164 21.6485 30.8333 18.3333 30.8333C15.0181 30.8333 11.8387 29.5164 9.4945 27.1722C7.15029 24.828 5.83333 21.6485 5.83333 18.3333C5.83333 15.0181 7.15029 11.8387 9.4945 9.4945C11.8387 7.15029 15.0181 5.83333 18.3333 5.83333C21.6485 5.83333 24.828 7.15029 27.1722 9.4945C29.5164 11.8387 30.8333 15.0181 30.8333 18.3333ZM24.0167 10.9467C24.0169 10.8618 23.9981 10.7779 23.9615 10.7013C23.925 10.6247 23.8718 10.5573 23.8057 10.504C23.7396 10.4507 23.6624 10.413 23.5798 10.3935C23.4972 10.3741 23.4112 10.3734 23.3283 10.3917L15.3733 12.0967C15.246 12.1235 15.1318 12.1932 15.0498 12.2943C14.9679 12.3954 14.9232 12.5216 14.9233 12.6517V20.4683C14.3117 20.5683 13.5567 20.7283 12.895 21.03C12.0367 21.42 11.195 22.125 11.195 23.3567C11.195 24.4033 11.5683 25.1267 12.1933 25.5083C12.78 25.8683 13.465 25.845 13.955 25.695C14.3317 25.5783 14.885 25.405 15.325 24.97C15.7917 24.5133 16.06 23.8433 16.06 22.8783V16.6683L22.8783 15.1167V19.2833C22.0804 19.3742 21.3062 19.6121 20.595 19.985C20.1783 20.2083 19.7933 20.485 19.5033 20.8067C19.2183 21.1283 18.9917 21.535 18.9917 22.0067C18.9917 22.67 19.1783 23.3383 19.6983 23.7917C20.2233 24.2483 20.965 24.3833 21.835 24.2483C22.685 24.115 23.2567 23.7317 23.6017 23.215C23.935 22.72 24.015 22.165 24.015 21.7433L24.0167 10.9467Z" fill="white"/>
</svg>
