<svg width="14" height="14" viewBox="0 0 14 14" fill="none" xmlns="http://www.w3.org/2000/svg">
<path fill-rule="evenodd" clip-rule="evenodd" d="M2.74516 3.4314C2.34473 3.4314 1.96071 3.59046 1.67756 3.87361C1.39442 4.15675 1.23535 4.54078 1.23535 4.9412V9.88238C1.23535 10.2828 1.39442 10.6668 1.67756 10.95C1.96071 11.2331 2.34473 11.3922 2.74516 11.3922H10.4314C10.8319 11.3922 11.2159 11.2331 11.499 10.95C11.7822 10.6668 11.9412 10.2828 11.9412 9.88238V4.9412C11.9412 4.54078 11.7822 4.15675 11.499 3.87361C11.2159 3.59046 10.8319 3.4314 10.4314 3.4314H2.74516ZM9.05888 6.72551C8.87687 6.72551 8.70231 6.79782 8.57361 6.92652C8.44491 7.05522 8.37261 7.22978 8.37261 7.41179C8.37261 7.5938 8.44491 7.76836 8.57361 7.89706C8.70231 8.02576 8.87687 8.09806 9.05888 8.09806C9.24089 8.09806 9.41545 8.02576 9.54415 7.89706C9.67285 7.76836 9.74516 7.5938 9.74516 7.41179C9.74516 7.22978 9.67285 7.05522 9.54415 6.92652C9.41545 6.79782 9.24089 6.72551 9.05888 6.72551Z" fill="white"/>
<path d="M9.05057 1.68498C9.21313 1.64166 9.38346 1.63627 9.54843 1.66923C9.7134 1.70218 9.86859 1.7726 10.002 1.87505C10.1355 1.9775 10.2436 2.10924 10.318 2.2601C10.3924 2.41096 10.4312 2.57691 10.4314 2.74513H4.94116L9.05057 1.68498Z" fill="white"/>
</svg>
