<svg width="16" height="16" viewBox="0 0 16 16" fill="none" xmlns="http://www.w3.org/2000/svg">
<path d="M4.9835 14.0002C3.97238 14.0002 3.11127 13.6446 2.40016 12.9335C1.68905 12.2224 1.3335 11.3613 1.3335 10.3502C1.3335 9.39461 1.65305 8.5695 2.29216 7.87483C2.93127 7.18016 3.72839 6.79416 4.6835 6.71683L2.4835 2.30016C2.37238 2.07794 2.38083 1.86127 2.50883 1.65016C2.63683 1.43905 2.82838 1.3335 3.0835 1.3335H5.85016C6.10572 1.3335 6.33638 1.40016 6.54216 1.5335C6.74794 1.66683 6.91172 1.84461 7.0335 2.06683L8.00016 4.00016L8.96683 2.06683C9.08905 1.84461 9.25305 1.66683 9.45883 1.5335C9.66461 1.40016 9.89505 1.3335 10.1502 1.3335H12.9168C13.1724 1.3335 13.3642 1.43905 13.4922 1.65016C13.6202 1.86127 13.6284 2.07794 13.5168 2.30016L11.3335 6.6835C12.2779 6.77239 13.0697 7.16416 13.7088 7.85883C14.3479 8.5535 14.6673 9.37839 14.6668 10.3335C14.6668 11.3557 14.3113 12.2224 13.6002 12.9335C12.8891 13.6446 12.0224 14.0002 11.0002 14.0002C10.9002 14.0002 10.7975 13.9975 10.6922 13.9922C10.5868 13.9868 10.4839 13.9728 10.3835 13.9502C10.9946 13.5502 11.4724 13.0308 11.8168 12.3922C12.1613 11.7535 12.3335 11.0673 12.3335 10.3335C12.3335 9.12239 11.9139 8.0975 11.0748 7.25883C10.2357 6.42016 9.21083 6.00061 8.00016 6.00016C6.7895 5.99972 5.76461 6.41927 4.9255 7.25883C4.08639 8.09838 3.66683 9.12327 3.66683 10.3335C3.66683 11.0891 3.82238 11.8002 4.1335 12.4668C4.44461 13.1335 4.9335 13.6279 5.60016 13.9502C5.50016 13.9724 5.3975 13.9864 5.29216 13.9922C5.18683 13.9979 5.08394 14.0006 4.9835 14.0002ZM8.00016 13.3335C7.16683 13.3335 6.45861 13.0419 5.8755 12.4588C5.29238 11.8757 5.00061 11.1673 5.00016 10.3335C4.99972 9.49972 5.2915 8.7915 5.8755 8.20883C6.4595 7.62616 7.16772 7.33439 8.00016 7.3335C8.83261 7.33261 9.54105 7.62438 10.1255 8.20883C10.7099 8.79327 11.0015 9.5015 11.0002 10.3335C10.9988 11.1655 10.7073 11.8739 10.1255 12.4588C9.54372 13.0437 8.83527 13.3353 8.00016 13.3335ZM8.00016 11.2335L8.81683 11.8502C8.8835 11.9057 8.95016 11.9086 9.01683 11.8588C9.0835 11.8091 9.10572 11.7451 9.0835 11.6668L8.76683 10.6502L9.5835 10.0668C9.65016 10.0113 9.67239 9.94727 9.65016 9.87483C9.62794 9.80239 9.57239 9.76639 9.4835 9.76683H8.4835L8.16683 8.6835C8.14461 8.60572 8.08905 8.56683 8.00016 8.56683C7.91127 8.56683 7.85572 8.60572 7.8335 8.6835L7.51683 9.76683H6.51683C6.42794 9.76683 6.37239 9.80305 6.35016 9.8755C6.32794 9.94794 6.35016 10.0117 6.41683 10.0668L7.2335 10.6502L6.91683 11.6668C6.89461 11.7446 6.91683 11.8086 6.9835 11.8588C7.05016 11.9091 7.11683 11.9062 7.1835 11.8502L8.00016 11.2335Z" fill="#8C8FA8"/>
</svg>
