<svg width="16" height="16" viewBox="0 0 16 16" fill="none" xmlns="http://www.w3.org/2000/svg">
<path d="M9.33689 1.33545C10.5569 1.33487 11.7402 1.75256 12.6895 2.51887C13.6387 3.28517 14.2966 4.35377 14.5533 5.54643C14.8101 6.73909 14.6502 7.98372 14.1003 9.07274C13.5504 10.1618 12.6437 11.0293 11.5316 11.5308C11.1761 12.3167 10.6352 13.0047 9.95547 13.5357C9.27569 14.0668 8.47726 14.425 7.62865 14.5797C6.78003 14.7344 5.90656 14.6809 5.08313 14.4239C4.25971 14.1669 3.51092 13.714 2.90096 13.104C2.29101 12.4941 1.83811 11.7453 1.5811 10.9219C1.32409 10.0985 1.27064 9.22498 1.42533 8.37636C1.58002 7.52774 1.93824 6.72931 2.46927 6.04954C3.0003 5.36977 3.68828 4.82895 4.47422 4.47345C4.89678 3.53789 5.58036 2.74416 6.44291 2.18753C7.30546 1.63091 8.31033 1.33504 9.33689 1.33545ZM7.33689 6.00212H6.00356V6.66878C5.5703 6.66773 5.15366 6.83543 4.84195 7.13634C4.53023 7.43726 4.34795 7.84773 4.33373 8.28075C4.31952 8.71378 4.47448 9.13532 4.76578 9.45603C5.05709 9.77674 5.46183 9.97142 5.89422 9.99878L6.00356 10.0021H7.33689L7.39689 10.0075C7.47375 10.0214 7.54327 10.0618 7.59334 10.1218C7.64341 10.1817 7.67083 10.2573 7.67083 10.3355C7.67083 10.4136 7.64341 10.4892 7.59334 10.5491C7.54327 10.6091 7.47375 10.6495 7.39689 10.6635L7.33689 10.6688H4.67022V12.0021H6.00356V12.6688H7.33689V12.0021C7.77015 12.0032 8.18679 11.8355 8.4985 11.5346C8.81021 11.2336 8.9925 10.8232 9.00671 10.3901C9.02093 9.95712 8.86597 9.53558 8.57466 9.21487C8.28336 8.89415 7.87862 8.69948 7.44622 8.67212L7.33689 8.66878H6.00356L5.94356 8.66345C5.8667 8.64953 5.79717 8.60907 5.74711 8.54913C5.69704 8.48918 5.66961 8.41355 5.66961 8.33545C5.66961 8.25735 5.69704 8.18172 5.74711 8.12177C5.79717 8.06183 5.8667 8.02137 5.94356 8.00745L6.00356 8.00212H8.67022V6.66878H7.33689V6.00212ZM9.33689 2.66878C8.772 2.66866 8.2135 2.78819 7.69814 3.0195C7.18278 3.25081 6.72226 3.58865 6.34689 4.01078C7.1004 3.96504 7.85503 4.07978 8.5609 4.34741C9.26676 4.61505 9.90776 5.02948 10.4415 5.5633C10.9753 6.09713 11.3896 6.73818 11.6572 7.44407C11.9247 8.14996 12.0394 8.90461 11.9936 9.65812C12.5997 9.1192 13.0277 8.40875 13.2208 7.62099C13.4138 6.83323 13.3629 6.00539 13.0746 5.24726C12.7864 4.48914 12.2745 3.83654 11.6068 3.37604C10.9392 2.91553 10.1473 2.66888 9.33622 2.66878" fill="#8C8FA8"/>
</svg>
