<svg width="16" height="16" viewBox="0 0 16 16" fill="none" xmlns="http://www.w3.org/2000/svg">
<path d="M7.50016 1.3335C4.6875 1.33616 3.23283 1.38683 2.3095 2.3095C1.38683 3.2335 1.33616 4.6875 1.3335 7.50016H4.6095C4.37001 7.20083 4.19788 6.85338 4.10483 6.4815C3.74683 5.04683 5.04683 3.74683 6.4815 4.10483C6.86283 4.20016 7.20816 4.3755 7.50016 4.6095V1.3335ZM1.3335 8.50016C1.33616 11.3122 1.38683 12.7668 2.3095 13.6902C3.2335 14.6135 4.6875 14.6635 7.50016 14.6668V9.4155C7.2372 9.9418 6.83282 10.3844 6.33237 10.6938C5.83191 11.0031 5.25517 11.1669 4.66683 11.1668C4.53422 11.1668 4.40704 11.1142 4.31328 11.0204C4.21951 10.9266 4.16683 10.7994 4.16683 10.6668C4.16683 10.5342 4.21951 10.407 4.31328 10.3133C4.40704 10.2195 4.53422 10.1668 4.66683 10.1668C5.15461 10.1669 5.62815 10.0025 6.01083 9.69999C6.39351 9.39752 6.66293 8.97478 6.7755 8.50016H1.3335ZM8.50016 14.6668C11.3122 14.6635 12.7668 14.6135 13.6902 13.6902C14.6135 12.7675 14.6635 11.3122 14.6668 8.50016H9.22483C9.33739 8.97478 9.60682 9.39752 9.98949 9.69999C10.3722 10.0025 10.8457 10.1669 11.3335 10.1668C11.4661 10.1668 11.5933 10.2195 11.687 10.3133C11.7808 10.407 11.8335 10.5342 11.8335 10.6668C11.8335 10.7994 11.7808 10.9266 11.687 11.0204C11.5933 11.1142 11.4661 11.1668 11.3335 11.1668C10.7452 11.1669 10.1684 11.0031 9.66796 10.6938C9.1675 10.3844 8.76312 9.9418 8.50016 9.4155V14.6668ZM14.6668 7.50016C14.6635 4.6875 14.6135 3.23283 13.6902 2.3095C12.7675 1.38683 11.3122 1.33616 8.50016 1.3335V4.6095C8.7993 4.3701 9.14652 4.19797 9.51816 4.10483C10.9535 3.74616 12.2542 5.04616 11.8948 6.4815C11.802 6.85332 11.6301 7.20077 11.3908 7.50016H14.6668Z" fill="#8C8FA8"/>
<path d="M6.23859 5.07544C6.59861 5.1657 6.9182 5.37356 7.14668 5.66605C7.37517 5.95855 7.49949 6.31894 7.49993 6.6901V7.5001H6.68993C6.31877 7.49967 5.95837 7.37535 5.66588 7.14686C5.37338 6.91837 5.16553 6.59879 5.07526 6.23877C5.03529 6.07808 5.03757 5.90979 5.08186 5.75024C5.12616 5.59069 5.21097 5.44531 5.32805 5.32823C5.44514 5.21114 5.59052 5.12633 5.75006 5.08204C5.90961 5.03774 6.07791 5.03547 6.23859 5.07544ZM8.49993 6.6901V7.5001H9.30993C10.0733 7.5001 10.7393 6.9801 10.9246 6.23877C10.9646 6.07802 10.9623 5.90964 10.918 5.75002C10.8737 5.5904 10.7888 5.44496 10.6716 5.32786C10.5545 5.21075 10.409 5.12596 10.2493 5.08173C10.0897 5.0375 9.92133 5.03533 9.76059 5.07544C9.4007 5.16583 9.08126 5.37374 8.85291 5.66622C8.62455 5.95871 8.50033 6.31903 8.49993 6.6901Z" fill="#8C8FA8"/>
</svg>
