<svg width="16" height="16" viewBox="0 0 16 16" fill="none" xmlns="http://www.w3.org/2000/svg">
<path d="M8.00016 1.3335C11.6822 1.3335 14.6668 4.31816 14.6668 8.00016C14.6668 11.6822 11.6822 14.6668 8.00016 14.6668C4.31816 14.6668 1.3335 11.6822 1.3335 8.00016C1.3335 4.31816 4.31816 1.3335 8.00016 1.3335ZM8.00016 10.6668C7.82335 10.6668 7.65378 10.7371 7.52876 10.8621C7.40373 10.9871 7.3335 11.1567 7.3335 11.3335C7.3335 11.5103 7.40373 11.6799 7.52876 11.8049C7.65378 11.9299 7.82335 12.0002 8.00016 12.0002C8.17697 12.0002 8.34654 11.9299 8.47157 11.8049C8.59659 11.6799 8.66683 11.5103 8.66683 11.3335C8.66683 11.1567 8.59659 10.9871 8.47157 10.8621C8.34654 10.7371 8.17697 10.6668 8.00016 10.6668ZM8.00016 4.3335C7.35922 4.3335 6.74453 4.58811 6.29132 5.04132C5.83811 5.49453 5.5835 6.10922 5.5835 6.75016C5.5835 6.92697 5.65373 7.09654 5.77876 7.22157C5.90378 7.34659 6.07335 7.41683 6.25016 7.41683C6.42697 7.41683 6.59654 7.34659 6.72157 7.22157C6.84659 7.09654 6.91683 6.92697 6.91683 6.75016C6.91705 6.55352 6.97079 6.36065 7.07229 6.19222C7.17378 6.0238 7.31921 5.88617 7.49297 5.79411C7.66673 5.70204 7.86227 5.65901 8.05862 5.66962C8.25498 5.68023 8.44474 5.74409 8.60757 5.85435C8.7704 5.9646 8.90014 6.11709 8.98289 6.29548C9.06565 6.47386 9.09829 6.6714 9.07732 6.86692C9.05634 7.06244 8.98255 7.24857 8.86384 7.40534C8.74514 7.56211 8.586 7.68362 8.4035 7.75683C7.95283 7.93683 7.3335 8.39816 7.3335 9.16683V9.3335C7.3335 9.51031 7.40373 9.67988 7.52876 9.8049C7.65378 9.92992 7.82335 10.0002 8.00016 10.0002C8.17697 10.0002 8.34654 9.92992 8.47157 9.8049C8.59659 9.67988 8.66683 9.51031 8.66683 9.3335C8.66683 9.17083 8.70016 9.0895 8.84083 9.02016L8.89883 8.9935C9.41937 8.78409 9.85086 8.40013 10.1193 7.90744C10.3878 7.41475 10.4765 6.84402 10.3702 6.29309C10.264 5.74215 9.96941 5.24534 9.53699 4.88781C9.10457 4.53028 8.56125 4.33431 8.00016 4.3335Z" fill="#8C8FA8"/>
</svg>
