<svg width="16" height="16" viewBox="0 0 16 16" fill="none" xmlns="http://www.w3.org/2000/svg">
<g clip-path="url(#clip0_404_9516)">
<path d="M0.833496 7.53333C0.833496 3.62433 4.06683 0.5 8.00016 0.5C11.9335 0.5 15.1668 3.62433 15.1668 7.53333V10.3627C15.1668 10.4238 15.1638 10.4841 15.1578 10.5437C15.1638 10.5837 15.1668 10.6247 15.1668 10.6667C15.1668 11.3233 15.0858 12.039 15.0068 12.5857C14.8828 13.4413 14.3765 14.29 13.4495 14.657C12.4518 15.0523 10.7195 15.5 8.00016 15.5C7.77915 15.5 7.56719 15.4122 7.41091 15.2559C7.25463 15.0996 7.16683 14.8877 7.16683 14.6667C7.16683 14.4457 7.25463 14.2337 7.41091 14.0774C7.56719 13.9211 7.77915 13.8333 8.00016 13.8333C10.5345 13.8333 12.0552 13.4167 12.8358 13.1077C13.0898 13.007 13.2992 12.7487 13.3572 12.347C13.3645 12.2961 13.3717 12.2443 13.3788 12.1917C12.9102 12.296 12.3688 12.3967 11.8305 12.453C11.1232 12.5273 10.4335 12.101 10.3045 11.333C10.2292 10.8863 10.1668 10.242 10.1668 9.333C10.1668 8.42467 10.2292 7.78067 10.3045 7.33367C10.4335 6.56567 11.1232 6.13933 11.8305 6.21367C12.1145 6.24333 12.3995 6.28533 12.6738 6.33367C12.1312 4.33233 10.2612 2.83333 8.00016 2.83333C5.73916 2.83333 3.8695 4.33233 3.3265 6.33367C3.60614 6.28397 3.88742 6.24394 4.16983 6.21367C4.87716 6.13933 5.56683 6.56567 5.69616 7.33367C5.77116 7.78033 5.8335 8.42467 5.8335 9.33333C5.8335 10.242 5.77116 10.886 5.69616 11.333C5.56683 12.101 4.87716 12.5273 4.16983 12.453C3.43716 12.3763 2.69983 12.218 2.1465 12.0797C1.3465 11.8793 0.833496 11.154 0.833496 10.363V7.53333Z" fill="#8C8FA8"/>
</g>
<defs>
<clipPath id="clip0_404_9516">
<rect width="16" height="16" fill="white"/>
</clipPath>
</defs>
</svg>
