<svg width="77" height="72" viewBox="0 0 77 72" fill="none" xmlns="http://www.w3.org/2000/svg">
<g clip-path="url(#clip0_534_2046)">
<path d="M2.38947 46.362C4.88243 53.4588 9.77239 59.6204 16.3395 63.9398C22.9066 68.2593 30.804 70.5083 38.869 70.3559C59.6677 69.966 76.2345 54.0571 75.874 34.8251C75.5134 15.5931 58.3621 0.316319 37.568 0.706126C28.0208 0.881678 18.8919 4.40999 12.0298 10.5766C5.16765 16.7432 1.08515 25.0874 0.608928 33.9194L0.623522 33.9452L21.0025 41.2665C22.8068 40.1141 24.9577 39.5204 27.1457 39.5706L36.1283 27.0177L36.1203 26.8436C36.0583 23.3322 37.503 19.9373 40.1375 17.4037C42.7721 14.8701 46.3813 13.4048 50.1735 13.3291C53.9659 13.2626 57.6276 14.5916 60.3552 17.0247C63.0829 19.4578 64.6538 22.7961 64.7234 26.3074C64.755 28.0719 64.4061 29.8255 63.6971 31.4655C62.9881 33.1055 61.9333 34.599 60.5943 35.8586C59.2554 37.1181 57.6594 38.1183 55.8996 38.8007C54.1398 39.483 52.2517 39.8338 50.3459 39.8325L37.3265 48.7858C37.4014 50.3976 37.04 52.0024 36.2749 53.4542C35.5099 54.906 34.3657 56.1586 32.9462 57.0983C31.5267 58.038 29.8771 58.6348 28.1473 58.8345C26.4176 59.0342 24.6626 58.8305 23.042 58.2418C21.4872 57.674 20.1036 56.768 19.0079 55.6003C17.9122 54.4325 17.1364 53.0372 16.7459 51.5318L2.39417 46.3619L2.38947 46.362Z" fill="#73DFCE"/>
<path d="M23.9202 56.1918C25.8919 56.8473 28.0641 56.7652 29.976 55.9628C31.888 55.1604 33.3894 53.7008 34.1618 51.8936C34.9341 50.0864 34.9168 48.0737 34.1134 46.2823C33.31 44.4909 31.7837 43.0618 29.8583 42.298C27.9508 41.5994 25.824 41.6081 23.9189 42.3223L28.7629 44.0778C29.4874 44.3416 30.1482 44.7351 30.7077 45.2358C31.2672 45.7365 31.7144 46.3346 32.0238 46.996C32.3332 47.6574 32.4986 48.3691 32.5108 49.0905C32.5229 49.812 32.3814 50.5289 32.0945 51.2005C31.8075 51.8721 31.3807 52.4852 30.8384 53.0047C30.296 53.5242 29.6488 53.9401 28.9336 54.2284C28.2184 54.5168 27.4493 54.6721 26.6702 54.6854C25.8911 54.6987 25.1172 54.5698 24.3928 54.306L19.705 52.6085C20.5829 54.2439 22.0845 55.5231 23.9202 56.1918ZM40.8917 26.7542C40.9369 29.0948 41.983 31.3206 43.8007 32.943C45.6184 34.5654 48.059 35.4519 50.5869 35.408C53.1148 35.3571 55.5205 34.3798 57.276 32.6904C59.0316 31.001 59.9936 28.7376 59.951 26.3969C59.9034 24.0578 58.8562 21.8343 57.0388 20.2138C55.2215 18.5932 52.7823 17.7079 50.256 17.7518C47.7298 17.8026 45.3255 18.7788 43.5701 20.4663C41.8148 22.1538 40.8516 24.415 40.8917 26.7542ZM50.3109 19.9281C51.2518 19.911 52.1866 20.0657 53.0619 20.3833C53.9372 20.701 54.7359 21.1753 55.4123 21.7793C56.0887 22.3833 56.6297 23.1051 57.0043 23.9034C57.3789 24.7018 57.5798 25.5611 57.5955 26.4323C57.6112 27.3036 57.4414 28.1696 57.0959 28.981C56.7503 29.7925 56.2357 30.5334 55.5815 31.1615C54.9273 31.7896 54.1463 32.2926 53.283 32.6418C52.4197 32.9909 51.4911 33.1794 50.5502 33.1965C48.6499 33.231 46.8149 32.5651 45.4488 31.3453C44.0826 30.1255 43.2973 28.4518 43.2656 26.6923C43.2339 24.9328 43.9583 23.2316 45.2795 21.9631C46.6008 20.6946 48.4106 19.9625 50.3109 19.9281Z" fill="#73DFCE"/>
</g>
<defs>
<clipPath id="clip0_534_2046">
<rect width="75.2348" height="69.6619" fill="white" transform="translate(0 1.41011) rotate(-1.07395)"/>
</clipPath>
</defs>
</svg>
