<svg width="33" height="33" viewBox="0 0 33 33" fill="none" xmlns="http://www.w3.org/2000/svg">
<g clip-path="url(#clip0_534_1988)">
<path d="M16.5 33C25.6127 33 33 25.6127 33 16.5C33 7.3873 25.6127 0 16.5 0C7.3873 0 0 7.3873 0 16.5C0 25.6127 7.3873 33 16.5 33Z" fill="#627EEA"/>
<path d="M17.0137 4.125V13.2722L24.745 16.7269L17.0137 4.125Z" fill="white" fill-opacity="0.602"/>
<path d="M17.0136 4.125L9.28125 16.7269L17.0136 13.2722V4.125Z" fill="white"/>
<path d="M17.0137 22.6545V28.8698L24.7501 18.1665L17.0137 22.6545Z" fill="white" fill-opacity="0.602"/>
<path d="M17.0136 28.8698V22.6535L9.28125 18.1665L17.0136 28.8698Z" fill="white"/>
<path d="M17.0137 21.2159L24.745 16.7269L17.0137 13.2743V21.2159Z" fill="white" fill-opacity="0.2"/>
<path d="M9.28125 16.7269L17.0136 21.2159V13.2743L9.28125 16.7269Z" fill="white" fill-opacity="0.602"/>
</g>
<defs>
<clipPath id="clip0_534_1988">
<rect width="33" height="33" fill="white"/>
</clipPath>
</defs>
</svg>
