<svg width="80" height="72" viewBox="0 0 80 72" fill="none" xmlns="http://www.w3.org/2000/svg">
<g clip-path="url(#clip0_534_2039)">
<path d="M64.8238 31.7328C64.8238 31.7328 65.9571 36.7738 66.2093 37.8305L61.6456 37.9161C62.0738 36.6969 63.7208 31.9576 63.7208 31.9576C63.6943 31.9989 64.1485 30.7112 64.407 29.9171L64.8238 31.7328ZM78.908 10.8795L79.8057 58.7637C79.8733 62.3686 76.9903 65.3484 73.3694 65.4163L7.78267 66.6458C4.16173 66.7136 1.16917 63.844 1.10159 60.2391L0.203948 12.3549C0.13637 8.75001 3.01928 5.7702 6.64022 5.70232L72.227 4.47283C75.8479 4.40495 78.8405 7.27462 78.908 10.8795ZM21.682 46.1362L29.9218 24.8617L24.1146 24.9706L19.015 39.4909L18.3727 36.5772L16.2776 26.9002C15.9381 25.5593 14.9608 25.1966 13.7574 25.1647L4.91686 25.3305L4.82911 25.754C6.99821 26.2576 8.93961 27.0105 10.6389 27.9721L15.8748 46.245L21.682 46.1362ZM34.5812 45.9216L37.6282 24.7173L32.1354 24.8202L29.102 46.0243L34.5812 45.9216ZM53.5675 38.6527C53.5497 36.2443 52.0395 34.4355 48.8549 32.9847C46.9102 32.055 45.7228 31.4241 45.7042 30.431C45.7147 29.5327 46.6675 28.5895 48.8264 28.549C50.6156 28.4746 51.9352 28.8717 52.927 29.275L53.4232 29.497L54.089 24.9122C53.0017 24.5107 51.2711 24.0669 49.1532 24.1066C43.7286 24.2083 39.9705 27.1637 40.0201 31.2724C40.036 34.3068 42.8414 35.9416 44.9374 36.9229C47.0747 37.9171 47.8117 38.5837 47.8288 39.4951C47.8279 40.9104 46.1459 41.5951 44.5745 41.6245C42.3883 41.6655 41.2068 41.3475 39.4021 40.592L38.6715 40.2655L37.9953 45.0275C39.2907 45.5883 41.6779 46.0607 44.1379 46.0418C49.9043 45.9473 53.6086 43.0337 53.5675 38.6527ZM72.9905 45.2015L68.1671 24.1448L63.9176 24.2244C62.6059 24.249 61.6155 24.6486 61.0811 26.0331L53.2871 45.5709L59.0533 45.4628C59.0533 45.4628 59.9471 42.8333 60.1416 42.2717L67.1922 42.1395C67.3702 42.8846 67.9075 45.2968 67.9075 45.2968L72.9905 45.2015Z" fill="#73DFCE"/>
</g>
<defs>
<clipPath id="clip0_534_2039">
<rect width="78.5438" height="69.8167" fill="white" transform="translate(0 1.47214) rotate(-1.07395)"/>
</clipPath>
</defs>
</svg>
