<svg width="17" height="14" viewBox="0 0 17 14" fill="none" xmlns="http://www.w3.org/2000/svg">
<path d="M2.47083 5.76485C3.37929 5.76485 4.11789 5.02624 4.11789 4.11779C4.11789 3.20933 3.37929 2.47073 2.47083 2.47073C1.56238 2.47073 0.823774 3.20933 0.823774 4.11779C0.823774 5.02624 1.56238 5.76485 2.47083 5.76485ZM14.0002 5.76485C14.9087 5.76485 15.6473 5.02624 15.6473 4.11779C15.6473 3.20933 14.9087 2.47073 14.0002 2.47073C13.0918 2.47073 12.3532 3.20933 12.3532 4.11779C12.3532 5.02624 13.0918 5.76485 14.0002 5.76485ZM14.8238 6.58837H13.1767C12.7238 6.58837 12.3146 6.7711 12.0161 7.06705C13.0532 7.6358 13.7892 8.66264 13.9488 9.88249H15.6473C16.1028 9.88249 16.4708 9.51448 16.4708 9.05896V8.23543C16.4708 7.32698 15.7322 6.58837 14.8238 6.58837ZM8.23554 6.58837C9.82855 6.58837 11.1179 5.29904 11.1179 3.70602C11.1179 2.11301 9.82855 0.823669 8.23554 0.823669C6.64252 0.823669 5.35319 2.11301 5.35319 3.70602C5.35319 5.29904 6.64252 6.58837 8.23554 6.58837ZM10.212 7.4119H9.99841C9.46311 7.66926 8.86863 7.82367 8.23554 7.82367C7.60245 7.82367 7.01054 7.66926 6.47267 7.4119H6.25907C4.6223 7.4119 3.29436 8.73985 3.29436 10.3766V11.1178C3.29436 11.7998 3.84767 12.3531 4.52966 12.3531H11.9414C12.6234 12.3531 13.1767 11.7998 13.1767 11.1178V10.3766C13.1767 8.73985 11.8488 7.4119 10.212 7.4119ZM4.45502 7.06705C4.15649 6.7711 3.7473 6.58837 3.29436 6.58837H1.6473C0.738847 6.58837 0.000244141 7.32698 0.000244141 8.23543V9.05896C0.000244141 9.51448 0.368259 9.88249 0.823774 9.88249H2.51973C2.68186 8.66264 3.41789 7.6358 4.45502 7.06705Z" fill="white"/>
</svg>
