<svg width="28" height="28" viewBox="0 0 28 28" fill="none" xmlns="http://www.w3.org/2000/svg">
<path d="M3.82668 2.59C3.74658 2.50403 3.64998 2.43508 3.54264 2.38726C3.43531 2.33943 3.31945 2.31372 3.20196 2.31164C3.08447 2.30957 2.96777 2.33118 2.85882 2.37519C2.74987 2.4192 2.65089 2.4847 2.5678 2.56779C2.48472 2.65088 2.41921 2.74985 2.37521 2.8588C2.3312 2.96776 2.30959 3.08446 2.31166 3.20194C2.31373 3.31943 2.33945 3.4353 2.38727 3.54263C2.4351 3.64996 2.50405 3.74656 2.59002 3.82667L5.15435 6.39333C3.33066 8.50762 2.32925 11.2079 2.33335 14C2.3308 15.8901 2.78933 17.7522 3.66918 19.425L2.36718 24.43C2.32388 24.5972 2.32497 24.7727 2.37036 24.9393C2.41574 25.1059 2.50385 25.2578 2.62595 25.3799C2.74805 25.502 2.89991 25.5901 3.06652 25.6355C3.23312 25.6809 3.40869 25.682 3.57585 25.6387L8.58085 24.3355C10.2523 25.2128 12.1123 25.6697 14 25.6667C16.9062 25.6667 19.565 24.6038 21.6067 22.8457L24.1733 25.41C24.3392 25.5646 24.5586 25.6487 24.7853 25.6447C25.012 25.6407 25.2283 25.5489 25.3886 25.3886C25.5489 25.2282 25.6407 25.012 25.6447 24.7853C25.6487 24.5586 25.5646 24.3392 25.41 24.1733L3.82668 2.59ZM15.6567 16.8933L15.5797 16.9073L15.4607 16.9155H10.2083L10.0893 16.9073C9.87992 16.8785 9.688 16.7749 9.54908 16.6155C9.41015 16.4562 9.33362 16.2519 9.33362 16.0405C9.33362 15.8291 9.41015 15.6248 9.54908 15.4655C9.688 15.3061 9.87992 15.2025 10.0893 15.1737L10.2083 15.1667H13.93L15.6567 16.8933ZM11.5967 12.8333H10.2083L10.0893 12.8252C9.89657 12.7985 9.71818 12.7083 9.5824 12.5689C9.44663 12.4295 9.36121 12.2487 9.33966 12.0553C9.31811 11.8619 9.36165 11.6668 9.46341 11.5009C9.56517 11.335 9.71933 11.2078 9.90152 11.1393L11.5967 12.8333ZM17.7917 12.8333H16.5457L23.8957 20.1833C25.0566 18.3302 25.6705 16.1868 25.6667 14C25.6667 7.5565 20.4435 2.33333 14 2.33333C11.8132 2.32947 9.66984 2.94338 7.81668 4.10433L14.7957 11.0833H17.7917L17.9107 11.0915C18.1201 11.1203 18.312 11.224 18.451 11.3833C18.5899 11.5427 18.6664 11.7469 18.6664 11.9583C18.6664 12.1697 18.5899 12.374 18.451 12.5333C18.312 12.6927 18.1201 12.7964 17.9107 12.8252L17.7917 12.8333Z" fill="#14A28A"/>
</svg>
