<svg width="27" height="27" viewBox="0 0 27 27" fill="none" xmlns="http://www.w3.org/2000/svg">
<path d="M19.802 19.1097H21.7822V21.0899H1.98022V19.1097H3.96042V12.179C3.96042 10.0783 4.79493 8.06358 6.28037 6.57814C7.76581 5.0927 9.78049 4.25819 11.8812 4.25819C13.9819 4.25819 15.9966 5.0927 17.4821 6.57814C18.9675 8.06358 19.802 10.0783 19.802 12.179V19.1097ZM8.91092 23.0701H14.8515V25.0503H8.91092V23.0701Z" fill="white"/>
<g filter="url(#filter0_d_534_1945)">
<circle cx="18.4496" cy="6.30032" r="5.2599" fill="#0AC07D"/>
<circle cx="18.4496" cy="6.30032" r="5.2599" fill="url(#paint0_linear_534_1945)" fill-opacity="0.6"/>
</g>
<path d="M19.0715 8.46806V7.69769H17.0064V6.9694L18.4986 3.80698H19.3887L17.8965 6.9694H19.0715V5.75557H19.8613V6.9694H20.2983V7.69769H19.8613V8.46806H19.0715Z" fill="white"/>
<defs>
<filter id="filter0_d_534_1945" x="10.7621" y="7.15256e-07" width="15.3751" height="15.3751" filterUnits="userSpaceOnUse" color-interpolation-filters="sRGB">
<feFlood flood-opacity="0" result="BackgroundImageFix"/>
<feColorMatrix in="SourceAlpha" type="matrix" values="0 0 0 0 0 0 0 0 0 0 0 0 0 0 0 0 0 0 127 0" result="hardAlpha"/>
<feOffset dy="1.38723"/>
<feGaussianBlur stdDeviation="1.21382"/>
<feComposite in2="hardAlpha" operator="out"/>
<feColorMatrix type="matrix" values="0 0 0 0 0.101536 0 0 0 0 0.19437 0 0 0 0 0.258426 0 0 0 0.3 0"/>
<feBlend mode="normal" in2="BackgroundImageFix" result="effect1_dropShadow_534_1945"/>
<feBlend mode="normal" in="SourceGraphic" in2="effect1_dropShadow_534_1945" result="shape"/>
</filter>
<linearGradient id="paint0_linear_534_1945" x1="18.5609" y1="7.70344" x2="14.0973" y2="-3.18031" gradientUnits="userSpaceOnUse">
<stop stop-color="white" stop-opacity="0"/>
<stop offset="1" stop-color="white"/>
</linearGradient>
</defs>
</svg>
