<svg width="32" height="32" viewBox="0 0 32 32" fill="none" xmlns="http://www.w3.org/2000/svg">
<path d="M31.2544 19.8621C29.1377 28.4424 20.5164 33.6439 12.0273 31.51C3.53827 29.376 -1.64335 20.6845 0.473399 12.1264C2.59015 3.54612 11.2115 -1.65542 19.7005 0.478547C28.2116 2.59028 33.3712 11.2817 31.2544 19.8621Z" fill="#F7931A"/>
<path d="M22.8536 13.7046C23.1623 11.5706 21.5527 10.437 19.3698 9.65897L20.0754 6.76923L18.3335 6.32465L17.65 9.12548C17.1869 9.01434 16.7239 8.90319 16.2608 8.79205L16.9664 5.96899L15.2245 5.52441L14.5189 8.41416C14.1441 8.32524 13.7693 8.23633 13.4165 8.14741L11.0131 7.54724L10.55 9.41445C10.55 9.41445 11.851 9.70343 11.8069 9.72566C12.5124 9.90349 12.6447 10.3703 12.6227 10.7482L11.8069 14.038C11.851 14.0603 11.9171 14.0603 11.9833 14.1047C11.9171 14.0825 11.873 14.0825 11.8069 14.0603L10.6603 18.6616C10.5721 18.8839 10.3516 19.1951 9.86651 19.084C9.88855 19.1062 8.60968 18.7728 8.60968 18.7728L7.74976 20.7734L10.0209 21.3513C10.4398 21.4625 10.8587 21.5736 11.2556 21.6848L10.528 24.5967L12.2699 25.0413L12.9755 22.1516C13.4606 22.2849 13.9016 22.3961 14.3646 22.5072L13.659 25.3747L15.4009 25.8193L16.1286 22.9073C19.1052 23.4631 21.3322 23.2408 22.2803 20.5289C23.03 18.3504 22.2363 17.0834 20.6707 16.2609C21.7732 16.0164 22.6331 15.2606 22.8536 13.7046ZM18.8847 19.3285C18.3555 21.5069 14.6953 20.3288 13.5267 20.0398L14.4748 16.172C15.6655 16.461 19.436 17.0612 18.8847 19.3285ZM19.4139 13.6824C18.9288 15.6607 15.886 14.6605 14.9158 14.4159L15.7758 10.9038C16.768 11.1483 19.9431 11.6151 19.4139 13.6824Z" fill="white"/>
</svg>
