<svg width="89" height="24" viewBox="0 0 89 24" fill="none" xmlns="http://www.w3.org/2000/svg">
<g clip-path="url(#clip0_534_2091)">
<path d="M5.90633 23.5792C6.19669 23.6318 6.48706 23.6769 6.78486 23.707C7.76758 23.8046 8.7131 23.7521 9.59163 23.5717C11.3189 23.2337 12.7706 22.4148 13.6566 21.3029C15.9571 19.0041 13.7683 13.8881 13.7683 13.8881C13.0089 11.7695 11.9592 10.4248 11.4156 9.8238C11.1998 9.59088 10.9243 9.4181 10.619 9.32797L6.55406 8.14847C6.1595 8.03579 5.74258 8.06583 5.37031 8.22361C1.92326 9.72611 0.612943 14.4966 0.188577 16.6377C0.129017 16.9382 0.0843465 17.1936 0.0620117 17.3739C0.0471215 17.4415 0.0396766 17.5091 0.0322316 17.5767C0.0247865 17.6519 0.0173416 17.6894 0.0173416 17.6894C-0.0347735 18.2378 0.0322315 18.7863 0.196022 19.3046C0.84374 21.348 3.06235 23.0459 5.90633 23.5792ZM5.50434 17.0884C5.85421 17.0434 6.18182 17.2161 6.39774 17.4941C6.60618 17.7646 6.93373 17.9073 7.38046 17.9373C7.90163 17.9674 8.17706 17.8397 8.19199 17.5542C8.19943 17.404 8.14731 17.2837 8.02819 17.1861C7.90907 17.0959 7.70058 17.0058 7.39534 16.9232C6.18926 16.6001 5.43729 16.2395 5.13206 15.8338C4.82682 15.4282 4.69281 14.9774 4.72259 14.4816C4.75237 13.9332 4.96828 13.4599 5.34797 13.0542C5.68302 12.7086 6.14457 12.4908 6.74761 12.3931V12.0776C6.74761 11.6644 7.08266 11.3263 7.49214 11.3263C7.90163 11.3263 8.23662 11.6644 8.23662 12.0776V12.4307C8.27387 12.4382 8.30362 12.4457 8.34086 12.4532C8.83966 12.5658 9.24915 12.7612 9.57675 13.0316C10.1128 13.4824 9.88199 14.3539 9.20446 14.5191C8.89178 14.5943 8.56423 14.4891 8.3483 14.2487C8.16218 14.0383 7.8867 13.9256 7.53683 13.9031C7.07522 13.8731 6.83698 14.0082 6.8221 14.3013C6.81461 14.4064 6.85186 14.5041 6.91886 14.5792C6.98585 14.6544 7.20178 14.752 7.54427 14.8497C8.33343 15.0751 8.89922 15.2629 9.24171 15.4282C9.58419 15.5859 9.85963 15.8414 10.0681 16.1794C10.2765 16.525 10.3734 16.9156 10.3436 17.3664C10.3064 17.9974 10.0458 18.5083 9.57675 18.9065C9.21939 19.1995 8.7801 19.3948 8.24406 19.4924V19.8981C8.24406 20.3113 7.90907 20.6494 7.49958 20.6494C7.0901 20.6494 6.75505 20.3113 6.75505 19.8981V19.4924C6.54662 19.4624 6.39769 19.4398 6.33818 19.4248C5.75746 19.2821 5.28841 19.0342 4.9385 18.6736C4.39501 18.1177 4.73003 17.1786 5.50434 17.0884Z" fill="#73DFCE"/>
<path d="M7.08191 3.57274L12.219 4.9851C12.4498 5.0452 12.6955 4.9851 12.8667 4.81231L14.311 3.34737C14.6386 3.01681 14.5418 2.44586 14.1175 2.26556C13.6633 2.07023 13.3952 2.13784 12.554 2.08526C11.3256 2.00262 11.7797 1.02599 10.7002 0.717977C9.16652 0.28976 8.83147 1.83734 7.52115 0.545189C7.19359 0.22966 6.83623 0.0794092 6.51606 0.0117963C6.00983 -0.0858665 5.60034 0.432499 5.78646 0.913301L6.63518 3.15955C6.71711 3.36239 6.88086 3.52015 7.08191 3.57274Z" fill="#73DFCE"/>
<path d="M5.39975 6.52496L11.8099 8.35052C12.3534 8.5083 12.9192 8.18524 13.0755 7.63681C13.2319 7.08844 12.9117 6.51746 12.3682 6.35968L5.95811 4.53416C5.41463 4.37639 4.8488 4.69943 4.69245 5.24785C4.53611 5.79625 4.86369 6.36723 5.39975 6.52496Z" fill="#73DFCE"/>
<path d="M24.2722 10.5681L27.95 16.1875H28.0245L31.7247 10.5005L31.7321 19.185L34.6134 19.1775L34.6059 7.33018L34.5984 5.88777H31.479L28.017 11.5147L24.5551 5.89527L21.4282 5.90282L21.4431 19.1925H24.2797L24.2722 10.5681Z" fill="#73DFCE"/>
<path d="M38.7756 19.8764C38.3959 19.8764 37.9269 19.7035 37.5546 19.4782L36.5942 21.5667C37.3313 22.0024 38.0981 22.2653 39.1329 22.2653C40.8453 22.2653 41.6717 21.484 42.446 19.4106L46.3099 8.98314H43.3394L42.9895 10.095L41.1431 15.9247L38.8798 9.10332L38.8426 8.99064H35.8125L39.7732 19.2002C39.5276 19.7261 39.2595 19.8764 38.7756 19.8764Z" fill="#73DFCE"/>
<path d="M56.6507 19.1617V18.2451L48.9155 18.2526L48.9081 10.4546L48.9006 5.87196H47.9253V10.4847L47.9328 19.1692L56.6507 19.1617Z" fill="#73DFCE"/>
<path d="M62.4796 19.38C64.3263 19.38 65.4727 18.6213 66.4478 17.5545L65.8075 16.9836C65.0184 17.84 64.0061 18.5086 62.5168 18.5086C60.6335 18.5086 58.9211 17.1037 58.7497 14.6922L66.7087 14.6847C66.7308 14.5345 66.7308 14.4744 66.7232 14.3016C66.7232 11.4318 65.0033 9.23063 62.3158 9.23813C59.7178 9.23813 57.7671 11.4844 57.7671 14.2941V14.3316C57.7746 17.3517 59.956 19.38 62.4796 19.38ZM62.2861 10.0946C64.4896 10.0946 65.5989 11.8976 65.7331 13.8508L58.7497 13.8583C58.9136 11.7098 60.3877 10.0946 62.2861 10.0946Z" fill="#73DFCE"/>
<path d="M72.3445 19.3714C74.1691 19.3714 75.3527 18.4548 76.0152 17.5233V19.1385H76.9158L76.9088 13.0984C76.9088 11.9039 76.566 11.0099 75.9257 10.3639C75.2261 9.6652 74.1912 9.3046 72.8959 9.3046C71.5781 9.3046 70.5432 9.65015 69.4932 10.146L69.836 10.9649C70.7216 10.5066 71.6821 10.1835 72.8436 10.1835C74.8164 10.1835 76.0076 11.1902 76.0076 13.1435V13.5642C75.0843 13.3163 74.1615 13.151 72.8286 13.151C70.3421 13.151 68.6297 14.2929 68.6372 16.3063V16.3438C68.6297 18.3497 70.5507 19.3714 72.3445 19.3714ZM69.6123 16.2762V16.2387C69.6123 14.8939 70.7367 13.9774 72.7693 13.9774C74.1464 13.9774 75.2185 14.2027 76.0227 14.4131V15.5175C76.0227 17.2829 74.3475 18.4999 72.3968 18.4999C70.9302 18.4999 69.6123 17.6811 69.6123 16.2762Z" fill="#73DFCE"/>
<path d="M83.5194 19.3643C85.4183 19.3643 86.6392 18.2374 87.473 16.9678V19.1314H88.3963L88.3812 5.2708H87.4579L87.4654 11.5363C86.6763 10.3192 85.4328 9.22238 83.5124 9.22238C81.1968 9.22238 78.844 11.1456 78.8516 14.3009V14.3385C78.8516 17.4862 81.2043 19.3643 83.5194 19.3643ZM79.8417 14.2934V14.2558C79.8417 11.6565 81.5094 10.1164 83.6013 10.1089C85.5967 10.1089 87.5177 11.7766 87.5177 14.2633V14.3009C87.5177 16.7725 85.6043 18.4628 83.6089 18.4628C81.5989 18.4703 79.8493 16.8401 79.8417 14.2934Z" fill="#73DFCE"/>
</g>
<defs>
<clipPath id="clip0_534_2091">
<rect width="88.3972" height="23.9061" fill="white"/>
</clipPath>
</defs>
</svg>
