<svg width="73" height="71" viewBox="0 0 73 71" fill="none" xmlns="http://www.w3.org/2000/svg">
<g clip-path="url(#clip0_534_2033)">
<path fill-rule="evenodd" clip-rule="evenodd" d="M33.6585 26.2562C33.4578 26.4648 33.2146 26.5922 32.929 26.6385C32.6017 26.6447 32.2713 26.487 32.0213 26.2459C28.4995 21.7653 25.6515 3.01775 33.1023 0.952921C41.288 -1.2076 44.9024 10.3984 46.6448 16.0183C46.7752 16.4255 46.8632 16.7515 46.992 17.0768C43.2693 14.9757 38.9953 14.0318 34.7451 14.3572C34.337 18.7886 34.0896 23.0532 33.9727 25.554C33.9364 25.8004 33.8183 26.0484 33.6585 26.2562ZM41.9997 28.025C41.8746 27.9044 41.7897 27.7422 41.7458 27.5792C41.7018 27.4162 41.6979 27.2114 41.7358 27.0469C42.9413 21.4946 54.5719 6.61263 61.9987 12.0031C68.9693 17.0744 62.1213 27.2791 58.8973 32.132C58.6989 32.4634 58.4997 32.7538 58.2997 33.0033C57.5252 28.7989 55.5695 24.9034 52.7269 21.7207C49.7355 23.702 46.9487 25.6794 44.9292 27.1099C44.4042 27.4884 43.9194 27.8252 43.4756 28.1612L43.4354 28.2029C43.3544 28.2454 43.3142 28.2871 43.2324 28.2886L43.1915 28.2894C43.0286 28.3334 42.8657 28.3774 42.7021 28.3805C42.6612 28.3812 42.6202 28.382 42.5786 28.3418L42.5377 28.3426C42.3316 28.2645 42.1656 28.1448 41.9997 28.025ZM47.251 35.2585L46.8071 35.5945L46.5709 36.0905C46.5716 36.1314 46.5724 36.1724 46.5732 36.2133L46.5747 36.2952C46.5786 36.4999 46.6642 36.7031 46.7499 36.9063C46.9181 37.1489 47.1667 37.3081 47.4538 37.3437L48.6472 37.69L48.7298 37.7294C51.1574 38.4212 54.6548 39.4206 58.1963 40.583C57.5382 44.7733 55.6882 48.6993 52.8827 51.8649C53.1691 51.8595 53.4956 51.8124 53.8229 51.8063C59.5854 51.3706 71.9686 50.4421 71.6021 41.8063C71.2115 34.072 52.2788 32.7476 47.251 35.2585ZM43.9879 44.5768C44.0705 44.6162 44.1523 44.6147 44.194 44.6548C49.354 47.0158 61.2964 61.8654 54.3276 67.8125C47.7619 73.4243 39.3651 64.3246 35.4388 60.0973C35.2297 59.8555 34.9796 59.6144 34.7704 59.3725C38.9897 59.5802 43.1867 58.6004 46.8721 56.5242C45.4043 52.4556 43.8617 48.7571 42.8769 46.4408L42.7481 46.1156C42.6207 45.8722 42.6153 45.5856 42.6918 45.2974L42.7319 45.2557L42.7721 45.214L42.8122 45.1723C42.9311 44.9652 43.0925 44.8393 43.2546 44.7544C43.4167 44.6694 43.5796 44.6254 43.7432 44.6223C43.7826 44.5397 43.8652 44.5791 43.9879 44.5768ZM34.9692 48.1456C34.9252 47.9826 34.8403 47.8203 34.7153 47.6998C34.6312 47.5785 34.4652 47.4587 34.3008 47.4208C34.053 47.3026 33.7667 47.308 33.5235 47.4354C33.2796 47.5219 33.0372 47.6903 32.919 47.9383C31.7316 50.0905 29.6733 53.8155 27.3718 57.668C23.4135 56.1038 20.0482 53.4225 17.6094 49.9456L17.4981 50.5621L17.4618 50.8085C16.5457 56.5193 14.6084 68.8847 23.1511 70.4859C30.7474 71.8181 36.2176 53.6109 34.9692 48.1456ZM26.7628 42.6469C26.7249 42.8114 26.6462 42.9767 26.5257 43.1019C22.9667 47.5514 5.33613 54.5585 1.68953 47.7864C-2.34292 40.0795 8.58965 33.8123 13.5295 30.9754C13.7726 30.8479 14.015 30.6795 14.2582 30.5521C13.1068 34.6288 13.1473 38.9699 14.3287 43.0438C18.7788 42.4688 22.9395 41.7355 25.4684 41.2785C25.754 41.2321 26.001 41.3094 26.2496 41.4686C26.4973 41.5869 26.6656 41.8295 26.752 42.0736C26.7968 42.2776 26.7998 42.4414 26.7628 42.6469ZM25.1558 33.3379C25.3203 33.3758 25.524 33.331 25.6862 33.2461C25.8483 33.1611 25.9679 32.995 26.0467 32.8297C26.2065 32.6219 26.2829 32.3338 26.2374 32.0888C26.1911 31.803 26.0638 31.5596 25.8554 31.3587C24.0246 29.7546 20.8616 26.9467 17.6924 23.8111C20.0819 20.2847 23.4686 17.5587 27.4086 15.9693L26.6668 15.6965C21.3462 13.5025 9.59348 8.76654 6.14216 16.7776C3.12474 23.9204 19.5085 33.3619 25.1558 33.3379Z" fill="#73DFCE"/>
</g>
<defs>
<clipPath id="clip0_534_2033">
<rect width="70.8307" height="69.6619" fill="white" transform="translate(0 1.32757) rotate(-1.07395)"/>
</clipPath>
</defs>
</svg>
