<svg width="80" height="72" viewBox="0 0 80 72" fill="none" xmlns="http://www.w3.org/2000/svg">
<g clip-path="url(#clip0_534_2041)">
<path d="M77.6904 43.6779C72.9719 62.6119 52.5727 74.4504 32.1677 70.1349C11.733 65.8203 -0.99295 46.9661 3.72639 28.0593C8.44492 9.12524 28.8141 -2.71261 49.2488 1.60225C69.6534 5.88994 82.4092 24.7436 77.6904 43.6779Z" fill="#73DFCE"/>
<path d="M59.2297 30.25C59.9541 24.6148 55.6153 21.6539 49.6693 19.7482L51.4513 12.0761L46.7826 11.0062L45.0633 18.4788C43.8296 18.2043 42.5627 17.9304 41.2964 17.6896L43.0152 10.184L38.3465 9.11417L36.5971 16.7526C35.5638 16.5405 34.5637 16.3278 33.5968 16.1144L33.5962 16.0814L27.1271 14.6154L25.9919 19.5968C25.9919 19.5968 29.4588 20.3255 29.393 20.3598C31.2937 20.7871 31.6491 22.037 31.6013 23.03L29.5736 31.7649C29.707 31.7954 29.8736 31.8254 30.0746 31.9208C29.908 31.8909 29.7414 31.8609 29.5742 31.7979L26.7486 44.0199C26.5268 44.5862 25.9454 45.4569 24.6447 45.1506C24.6792 45.2161 21.2436 44.3876 21.2436 44.3876L19.0199 49.7533L25.1226 51.16C26.2567 51.4364 27.357 51.6803 28.458 51.9572L26.6772 59.6955L31.3458 60.7653L33.1278 53.0932C34.3953 53.4001 35.6629 53.7071 36.8634 53.9822L35.1139 61.6206L39.7825 62.6905L41.5633 54.9522C49.5574 56.2904 55.5209 55.5834 57.8758 48.3635C59.7927 42.5738 57.6058 39.2749 53.3827 37.1716C56.4566 36.4195 58.709 34.3601 59.2297 30.25ZM48.8538 45.3251C47.5343 51.1036 37.7175 48.1793 34.5493 47.445L36.9137 37.1827C40.0818 37.9169 50.2678 39.2802 48.8538 45.3251ZM50.0335 30.3231C48.8043 35.604 40.6552 33.0783 38.0206 32.4663L40.1706 23.1669C42.8052 23.7789 51.2922 24.8433 50.0335 30.3231Z" fill="#1D3141"/>
</g>
<defs>
<clipPath id="clip0_534_2041">
<rect width="78.5438" height="69.8167" fill="white" transform="translate(0 1.47214) rotate(-1.07395)"/>
</clipPath>
</defs>
</svg>
