<svg width="12" height="12" viewBox="0 0 12 12" fill="none" xmlns="http://www.w3.org/2000/svg">
<path d="M6.00005 0.549751C2.98993 0.549751 0.549805 2.98988 0.549805 6C0.549805 9.01013 2.98993 11.4503 6.00005 11.4503C9.01018 11.4503 11.4503 9.01013 11.4503 6C11.4503 2.98988 9.01018 0.549751 6.00005 0.549751ZM6.47068 8.955V9.72263H5.73643V8.96363C4.53155 8.79863 4.00393 7.80863 4.00393 7.80863L4.75393 7.18125C4.75393 7.18125 5.2328 8.01488 6.09905 8.01488C6.57755 8.01488 6.94055 7.75875 6.94055 7.32113C6.94055 6.29813 4.1843 6.42225 4.1843 4.52438C4.1843 3.69938 4.8368 3.105 5.73605 2.96438V2.1975H6.4703V2.96438C7.0973 3.04688 7.8398 3.37688 7.8398 4.08675V4.63125H6.8663V4.36725C6.8663 4.095 6.51943 3.9135 6.1313 3.9135C5.6363 3.9135 5.27368 4.161 5.27368 4.5075C5.27368 5.55525 8.02993 5.2995 8.02993 7.28813C8.02993 8.10563 7.41943 8.81438 6.47068 8.955Z" fill="#18C3A7"/>
</svg>
