<svg width="164" height="31" viewBox="0 0 164 31" fill="none" xmlns="http://www.w3.org/2000/svg">
<path d="M30.7362 0.000289917H0V30.7365H30.7362V0.000289917Z" fill="#00B67A"/>
<path d="M64.0329 0.000350952H33.2966V30.7366H64.0329V0.000350952Z" fill="#00B67A"/>
<path d="M97.33 0.000350952H66.5938V30.7366H97.33V0.000350952Z" fill="#00B67A"/>
<path d="M130.627 0.000350952H99.8904V30.7366H130.627V0.000350952Z" fill="#00B67A"/>
<path d="M163.925 0H148.557V30.7362H163.925V0Z" fill="#30334A"/>
<path d="M150.658 1.52588e-05H133.131V30.5789H141.894H150.658V1.52588e-05Z" fill="#00B67A"/>
<path d="M15.3692 20.7133L20.0444 19.5281L21.9973 25.5477L15.3692 20.7133ZM26.1258 12.9338H17.8968L15.3673 5.18605L12.8378 12.9338H4.60889L11.2688 17.7363L8.73926 25.484L15.3992 20.6815L19.4977 17.7363L26.1258 12.9338Z" fill="white"/>
<path d="M48.6649 20.7133L53.3402 19.5281L55.293 25.5477L48.6649 20.7133ZM59.4234 12.9338H51.1945L48.6649 5.18605L46.1354 12.9338H37.9065L44.5664 17.7363L42.0369 25.484L48.6968 20.6815L52.7953 17.7363L59.4234 12.9338Z" fill="white"/>
<path d="M81.9613 20.7133L86.6365 19.5281L88.5894 25.5477L81.9613 20.7133ZM92.7197 12.9338H84.4908L81.9613 5.18605L79.4318 12.9338H71.2029L77.8628 17.7363L75.3333 25.484L81.9931 20.6815L86.0917 17.7363L92.7197 12.9338Z" fill="white"/>
<path d="M115.26 20.7133L119.935 19.5281L121.888 25.5477L115.26 20.7133ZM126.016 12.9338H117.787L115.258 5.18605L112.728 12.9338H104.5L111.159 17.7363L108.63 25.484L115.29 20.6815L119.388 17.7363L126.016 12.9338Z" fill="white"/>
<path d="M148.557 20.7133L153.232 19.5281L155.185 25.5477L148.557 20.7133ZM159.314 12.9338H151.085L148.555 5.18605L146.026 12.9338H137.797L144.457 17.7363L141.927 25.484L148.587 20.6815L152.686 17.7363L159.314 12.9338Z" fill="white"/>
</svg>
