<svg width="77" height="72" viewBox="0 0 77 72" fill="none" xmlns="http://www.w3.org/2000/svg">
<g clip-path="url(#clip0_534_2031)">
<path d="M38.4451 21.5011C35.6757 21.553 31.3319 18.5992 26.8194 18.7935C20.8646 18.9783 15.4626 22.3342 12.4863 27.5463C6.49646 38.0078 11.3733 53.2024 17.563 61.4974C20.5989 65.5362 24.1754 70.077 28.8011 69.844C33.2363 69.578 34.8569 66.9512 40.244 66.8502C45.5932 66.7499 47.1627 69.4998 51.8649 69.3019C56.6436 69.1392 59.6019 64.9879 62.4456 60.8023C65.7329 55.9866 67.0503 51.3542 67.1214 51.0968C67.0069 51.0624 57.7623 47.8347 57.4566 37.601C57.2204 29.0482 64.4655 24.8166 64.8035 24.6274C60.5201 18.82 54.0963 18.2821 51.8553 18.1779C46.0047 17.8487 41.1766 21.4499 38.4451 21.5011ZM48.1471 12.6888C50.5596 9.79118 52.1162 5.77592 51.5869 1.83633C48.0615 2.04869 43.8522 4.24863 41.3639 7.1477C39.1349 9.71279 37.2383 13.8076 37.842 17.6726C41.7551 17.8918 45.7346 15.5865 48.1471 12.6888Z" fill="#73DFCE"/>
</g>
<defs>
<clipPath id="clip0_534_2031">
<rect width="75.2348" height="69.6619" fill="white" transform="translate(0 1.41011) rotate(-1.07395)"/>
</clipPath>
</defs>
</svg>
