<svg width="71" height="71" viewBox="0 0 71 71" fill="none" xmlns="http://www.w3.org/2000/svg">
<g clip-path="url(#clip0_534_2035)">
<path d="M64.6213 38.6997L53.3688 45.3497L42.978 35.404L53.0685 24.9931L64.4802 31.1718C65.1537 31.5361 65.7184 32.0728 66.1165 32.7268C66.5147 33.3809 66.7321 34.129 66.7464 34.8946C66.7608 35.6602 66.5716 36.4159 66.1982 37.0844C65.8249 37.753 65.2807 38.3104 64.6213 38.6997ZM3.93046 3.91464C3.72591 4.44179 3.62601 5.00375 3.63633 5.5691L4.77971 66.5619C4.79151 67.1916 4.9331 67.7754 5.17221 68.2964L36.9416 35.5143L3.93046 3.91464ZM39.9036 32.4599L49.1824 22.8857L10.0229 1.68408C9.18308 1.22323 8.21264 1.05838 7.26778 1.21607L39.9036 32.4599ZM40.016 38.4584L8.68805 70.7852C9.55483 70.8735 10.4632 70.7055 11.3074 70.2048L49.5643 47.5984L40.016 38.4584Z" fill="#73DFCE"/>
</g>
<defs>
<clipPath id="clip0_534_2035">
<rect width="69.6619" height="69.6619" fill="white" transform="translate(0 1.30566) rotate(-1.07395)"/>
</clipPath>
</defs>
</svg>
