<svg width="71" height="71" viewBox="0 0 71 71" fill="none" xmlns="http://www.w3.org/2000/svg">
<g clip-path="url(#clip0_534_2050)">
<path d="M70.0742 22.6359L19.5264 45.287C15.3346 47.1558 11.8031 48.1171 8.93195 48.1709C5.68163 48.2319 3.30284 47.1375 1.79558 44.8878C0.849171 43.4424 0.54353 41.5921 0.878656 39.3368C1.21572 37.0816 2.17296 34.6657 3.75039 32.0892C5.06606 30.0033 7.2373 27.2531 10.2641 23.8384C9.24567 25.5078 8.51082 27.3345 8.08943 29.2441C7.34184 32.7263 8.12089 35.2587 10.4266 36.8412C11.5242 37.5793 13.0211 37.9306 14.9171 37.895C16.432 37.8666 18.1338 37.5909 20.0226 37.0677L70.0742 22.6359Z" fill="#73DFCE"/>
</g>
<defs>
<clipPath id="clip0_534_2050">
<rect width="69.6619" height="69.6619" fill="white" transform="translate(0 1.30566) rotate(-1.07395)"/>
</clipPath>
</defs>
</svg>
