<svg width="71" height="64" viewBox="0 0 71 64" fill="none" xmlns="http://www.w3.org/2000/svg">
<g clip-path="url(#clip0_534_2037)">
<path d="M70.2704 52.3341L58.9976 64.5642C58.7521 64.8315 58.4535 65.0448 58.121 65.1903C57.7877 65.342 57.4262 65.422 57.06 65.425L2.55623 66.4467C2.29729 66.4518 2.04225 66.3831 1.82093 66.2486C1.60163 66.1156 1.42634 65.921 1.31692 65.6891C1.20963 65.4587 1.17348 65.2017 1.21308 64.9507C1.2523 64.6985 1.36621 64.4637 1.54011 64.2769L12.8216 52.0495C13.0663 51.7825 13.3639 51.5693 13.6953 51.4235C14.0275 51.2711 14.388 51.1902 14.7534 51.1859L69.2543 50.1642C69.5135 50.16 69.7686 50.2297 69.9896 50.3653C70.2089 50.4983 70.3842 50.6929 70.4936 50.9248C70.6009 51.1551 70.6371 51.4122 70.5975 51.6632C70.5583 51.9154 70.4443 52.1472 70.2704 52.3341ZM58.319 28.3638C58.0636 28.1059 57.7573 27.904 57.4195 27.771C57.081 27.6309 56.7167 27.5635 56.3504 27.5733L1.84665 28.5951C1.58771 28.5997 1.33543 28.6779 1.1193 28.8206C0.904726 28.9625 0.736827 29.1646 0.63667 29.4016C0.538657 29.6349 0.512154 29.892 0.560524 30.1404C0.609165 30.391 0.731791 30.6213 0.912578 30.8015L12.6445 42.6004C12.899 42.858 13.2043 43.0599 13.5411 43.1932C13.8789 43.332 14.2421 43.3984 14.6072 43.3881L69.1081 42.3664C69.367 42.3618 69.6193 42.2835 69.8354 42.1408C70.0496 41.9997 70.2175 41.7987 70.3181 41.5628C70.4167 41.3286 70.4432 41.0703 70.3942 40.821C70.3456 40.5704 70.223 40.3402 70.0422 40.1599L58.319 28.3638ZM1.70037 20.7914L56.207 19.7696C56.5734 19.7657 56.9349 19.6847 57.268 19.532C57.6005 19.3865 57.8991 19.1733 58.1446 18.9059L69.4174 6.67582C69.5913 6.48894 69.7052 6.25423 69.7444 6.00198C69.7825 5.7517 69.7454 5.49573 69.6377 5.26659C69.5283 5.03464 69.353 4.84003 69.1337 4.70704C68.9124 4.57253 68.6573 4.50381 68.3984 4.5089L13.8976 5.53057C13.5323 5.53396 13.1719 5.6139 12.8394 5.76524C12.508 5.9111 12.2104 6.12428 11.9657 6.39127L0.687208 18.6244C0.513303 18.8113 0.399393 19.046 0.360178 19.2982C0.320236 19.548 0.355346 19.8039 0.461059 20.0337C0.570484 20.2657 0.745776 20.4603 0.965073 20.5933C1.1861 20.7288 1.44113 20.7956 1.70037 20.7914Z" fill="#73DFCE"/>
</g>
<defs>
<clipPath id="clip0_534_2037">
<rect width="69.6619" height="61.9217" fill="white" transform="translate(0 1.30566) rotate(-1.07395)"/>
</clipPath>
</defs>
</svg>
