<svg width="33" height="33" viewBox="0 0 33 33" fill="none" xmlns="http://www.w3.org/2000/svg">
<g clip-path="url(#clip0_534_1998)">
<path d="M16.5 0C13.2366 0 10.0465 0.967708 7.3331 2.78075C4.61969 4.59379 2.50484 7.17074 1.256 10.1857C0.00714922 13.2007 -0.319606 16.5183 0.31705 19.719C0.953706 22.9197 2.52518 25.8597 4.83275 28.1673C7.14031 30.4748 10.0803 32.0463 13.281 32.683C16.4817 33.3196 19.7993 32.9929 22.8143 31.744C25.8293 30.4952 28.4062 28.3803 30.2193 25.6669C32.0323 22.9535 33 19.7634 33 16.5C33 12.1239 31.2616 7.92709 28.1673 4.83274C25.0729 1.73839 20.8761 0 16.5 0ZM16.1398 5.05725H19.6928C19.7654 5.05734 19.8371 5.07423 19.9022 5.10659C19.9673 5.13896 20.024 5.18593 20.0679 5.24383C20.1118 5.30173 20.1418 5.36901 20.1554 5.4404C20.1691 5.51178 20.166 5.58536 20.1465 5.65537L17.3553 15.1676L19.9746 14.3674L19.4136 16.2717L16.7681 17.0418L15.0521 22.836H24.2316C24.3044 22.8364 24.3761 22.8536 24.4411 22.8863C24.506 22.919 24.5626 22.9663 24.6063 23.0245C24.6499 23.0827 24.6796 23.1502 24.6928 23.2217C24.7061 23.2933 24.7026 23.3669 24.6826 23.4369L23.8824 26.1869C23.8439 26.3176 23.7642 26.4324 23.6552 26.5141C23.5462 26.5959 23.4137 26.6403 23.2774 26.6406H9.25788L11.627 18.6354L9.00626 19.4329L9.58376 17.5615L12.21 16.764L15.5403 5.5165C15.5768 5.38498 15.6552 5.26897 15.7637 5.18608C15.8721 5.1032 16.0046 5.05796 16.1411 5.05725" fill="white"/>
</g>
<defs>
<clipPath id="clip0_534_1998">
<rect width="33" height="33" fill="white"/>
</clipPath>
</defs>
</svg>
