<svg width="40" height="40" viewBox="0 0 40 40" fill="none" xmlns="http://www.w3.org/2000/svg">
<path fill-rule="evenodd" clip-rule="evenodd" d="M8.33342 1.66667C6.5653 1.66667 4.86961 2.36905 3.61937 3.61929C2.36913 4.86953 1.66675 6.56522 1.66675 8.33333V31.6667C1.66675 33.4348 2.36913 35.1305 3.61937 36.3807C4.86961 37.631 6.5653 38.3333 8.33342 38.3333H31.6667C33.4349 38.3333 35.1306 37.631 36.3808 36.3807C37.631 35.1305 38.3334 33.4348 38.3334 31.6667V8.33333C38.3334 6.56522 37.631 4.86953 36.3808 3.61929C35.1306 2.36905 33.4349 1.66667 31.6667 1.66667H8.33342ZM27.1684 23.4567L25.2234 25.2567C25.108 25.3619 24.9568 25.4195 24.8006 25.4176C24.6444 25.4157 24.4947 25.3547 24.3817 25.2467L23.0851 23.9933C22.9645 23.8833 22.8081 23.8209 22.6449 23.8179C22.4817 23.8148 22.323 23.8712 22.1984 23.9767C21.3151 24.6967 19.7217 25.6483 17.9951 25.6483C15.3934 25.6483 13.2684 24.1917 13.2684 21.28C13.2684 18.3667 15.0817 15.3133 22.1017 15.3133V13.6167C22.0312 13.1421 21.7867 12.7108 21.4159 12.4065C21.045 12.1022 20.5742 11.9466 20.0951 11.97C18.6734 11.97 17.9301 12.9167 17.6117 13.6667C17.4901 13.955 17.2084 14.1683 16.8967 14.14L14.3351 13.9083C14.0051 13.88 13.7567 13.595 13.8234 13.2717C14.1801 11.5617 15.7567 8.98667 20.0951 8.98667C24.9651 8.98667 26.1667 11.5 26.1584 12.7583V20.27C26.1584 20.8367 26.4001 21.6167 27.2034 22.5533C27.4301 22.82 27.4234 23.22 27.1684 23.4567ZM22.1084 17.56C22.1084 17.56 22.4684 20.8983 20.8967 22.095C20.0401 22.7483 18.9684 22.6567 18.3334 22.095C17.5684 21.42 17.3651 20.1067 17.9951 19.1383C19.1501 17.3633 22.1067 17.56 22.1067 17.56H22.1084ZM29.9634 26.16C30.8034 26.0883 31.6768 26.015 31.8668 26.23C32.2134 26.6217 31.7834 27.805 31.4467 28.725C31.2217 29.3417 31.0401 29.84 31.1634 29.905C31.7751 30.2383 34.0001 26.1133 33.1367 25.4133C32.1467 24.61 28.1384 25.6367 28.2667 26.08C28.3301 26.3 29.1301 26.23 29.9634 26.16ZM8.24175 26.1517C10.2951 27.1433 14.2734 29.0667 19.8251 29.0667C24.3451 29.0667 27.3251 28.06 29.0917 27.4633C30.0751 27.1317 30.6834 26.9267 30.9734 27.0917C31.7851 27.5517 26.2367 31.015 19.8234 31.015C12.4901 31.015 6.15675 26.0083 6.69842 25.6017C6.85842 25.4833 7.38175 25.735 8.24175 26.1517Z" fill="white"/>
</svg>
