<svg width="40" height="40" viewBox="0 0 40 40" fill="none" xmlns="http://www.w3.org/2000/svg">
<g clip-path="url(#clip0_534_2005)">
<path fill-rule="evenodd" clip-rule="evenodd" d="M0 20C0 14.6957 2.10714 9.60859 5.85786 5.85786C9.60859 2.10714 14.6957 0 20 0C25.3043 0 30.3914 2.10714 34.1421 5.85786C37.8929 9.60859 40 14.6957 40 20C40 25.3043 37.8929 30.3914 34.1421 34.1421C30.3914 37.8929 25.3043 40 20 40C14.6957 40 9.60859 37.8929 5.85786 34.1421C2.10714 30.3914 0 25.3043 0 20ZM20.6027 14.1253C16.28 13.7733 11.8773 14.3013 8.26933 15.576L7.38133 13.0613C11.3813 11.648 16.1627 11.088 20.8213 11.4693C25.4693 11.848 30.096 13.1787 33.736 15.6507L32.2373 17.856C29.0773 15.712 24.9307 14.48 20.6027 14.1253ZM8.86933 21.312C18.0587 19.6853 24.464 20.52 29.7733 24.3307L31.328 22.1627C25.2 17.7627 17.952 16.9973 8.40533 18.688L8.86933 21.312ZM9.76533 26.976C12.3947 26.336 15.632 26.056 18.8107 26.368C22 26.68 25.0347 27.5787 27.3493 29.208L28.8827 27.024C26.0747 25.0507 22.5493 24.056 19.0693 23.7147C15.7428 23.3958 12.3866 23.6228 9.13333 24.3867L9.76533 26.976Z" fill="white"/>
</g>
<defs>
<clipPath id="clip0_534_2005">
<rect width="40" height="40" fill="white"/>
</clipPath>
</defs>
</svg>
