<svg width="24" height="24" viewBox="0 0 24 24" fill="none" xmlns="http://www.w3.org/2000/svg">
<path d="M11.9939 2C10.0161 2 8.08269 2.58649 6.4382 3.6853C4.79371 4.78412 3.51198 6.3459 2.75511 8.17317C1.99823 10.0004 1.8002 12.0111 2.18605 13.9509C2.5719 15.8907 3.52431 17.6725 4.92283 19.0711C6.32136 20.4696 8.10319 21.422 10.043 21.8079C11.9828 22.1937 13.9935 21.9957 15.8207 21.2388C17.648 20.4819 19.2098 19.2002 20.3086 17.5557C21.4074 15.9112 21.9939 13.9778 21.9939 12C21.9939 10.6868 21.7352 9.38642 21.2327 8.17317C20.7301 6.95991 19.9936 5.85752 19.065 4.92893C18.1364 4.00035 17.034 3.26375 15.8207 2.7612C14.6075 2.25866 13.3071 2 11.9939 2ZM15.1739 17.152C15.1366 17.2454 15.0797 17.3298 15.0071 17.3994C14.9345 17.469 14.8478 17.5223 14.7529 17.5556C14.658 17.589 14.557 17.6016 14.4568 17.5927C14.3566 17.5838 14.2594 17.5536 14.1719 17.504L11.4569 15.394L9.7149 17.002C9.67447 17.0319 9.62718 17.0511 9.57738 17.0579C9.52758 17.0647 9.47687 17.0589 9.4299 17.041L9.7639 14.052L9.7739 14.061L9.7809 14.002C9.7809 14.002 14.6659 9.554 14.8649 9.365C15.0669 9.176 14.9999 9.135 14.9999 9.135C15.0119 8.905 14.6389 9.135 14.6389 9.135L8.1659 13.299L5.4709 12.381C5.4709 12.381 5.0569 12.233 5.0179 11.906C4.9769 11.582 5.4839 11.406 5.4839 11.406L16.2009 7.148C16.2009 7.148 17.0819 6.756 17.0819 7.406L15.1739 17.152Z" fill="white"/>
</svg>
