<svg width="32" height="42" viewBox="0 0 32 42" fill="none" xmlns="http://www.w3.org/2000/svg">
<path d="M27.2932 9.2338C27.3894 4.00857 23.2624 1.32785e-07 17.5874 1.32785e-07H5.84913C5.57558 -0.000134256 5.31099 0.101744 5.103 0.287283C4.89501 0.472822 4.7573 0.729826 4.71467 1.012L0.0114341 31.7034C-0.00960885 31.8425 -0.00153955 31.9847 0.0350861 32.1202C0.0717118 32.2557 0.136024 32.3813 0.223594 32.4884C0.311165 32.5954 0.419914 32.6814 0.542353 32.7404C0.664792 32.7993 0.798013 32.8299 0.932844 32.8299H7.88701L6.8002 39.9364C6.77916 40.0755 6.78723 40.2177 6.82385 40.3532C6.86048 40.4887 6.92479 40.6144 7.01236 40.7214C7.09993 40.8285 7.20868 40.9145 7.33112 40.9734C7.45356 41.0324 7.58678 41.0629 7.72161 41.063H13.3867C13.66 41.063 13.9036 40.9606 14.1121 40.7757C14.3189 40.5898 14.3531 40.3335 14.3962 40.051L16.0592 29.8333C16.1015 29.5517 16.239 29.1856 16.4467 28.9997C16.6543 28.8138 16.8359 28.7124 17.1101 28.7124H20.5764C26.1345 28.7124 30.8494 24.5865 31.7115 18.8487C32.3219 14.7763 30.6499 11.071 27.2932 9.2338Z" fill="#001C64"/>
</svg>
