<svg width="38" height="37" viewBox="0 0 38 37" fill="none" xmlns="http://www.w3.org/2000/svg">
<path fill-rule="evenodd" clip-rule="evenodd" d="M17.8007 13.5645C17.6909 13.6732 17.5592 13.7385 17.4055 13.7602C17.2299 13.7602 17.0543 13.6732 16.9225 13.5427C15.0785 11.1282 13.7394 1.14411 17.7567 0.121771C22.1692 -0.944073 23.9913 5.25522 24.8694 8.25699C24.9353 8.4745 24.9792 8.64852 25.045 8.82254C23.0693 7.66968 20.7862 7.12589 18.5031 7.2564C18.2397 9.6056 18.0641 11.8678 17.9763 13.1947C17.9543 13.3252 17.8885 13.4557 17.8007 13.5645ZM22.257 14.5868C22.1912 14.5215 22.1473 14.4345 22.1253 14.3475C22.1034 14.2605 22.1034 14.1518 22.1253 14.0647C22.8278 11.1282 29.216 3.34105 33.1455 6.27756C36.8336 9.04005 33.0577 14.391 31.2796 16.936C31.1698 17.11 31.06 17.2623 30.9503 17.3928C30.5771 15.1523 29.5673 13.0642 28.0745 11.3458C26.45 12.3681 24.9353 13.3904 23.8376 14.13C23.5522 14.3258 23.2888 14.4998 23.0473 14.6738L23.0254 14.6956C22.9815 14.7173 22.9595 14.7391 22.9156 14.7391H22.8937C22.8059 14.7608 22.718 14.7826 22.6302 14.7826C22.6083 14.7826 22.5863 14.7826 22.5644 14.7608H22.5424C22.4327 14.7173 22.3448 14.652 22.257 14.5868ZM25.0011 18.4804L24.7596 18.6544L24.6279 18.9154C24.6279 18.9372 24.6279 18.9589 24.6279 18.9807V19.0242C24.6279 19.1329 24.6718 19.2417 24.7157 19.3505C24.8035 19.481 24.9353 19.568 25.0889 19.5897L25.7255 19.7855L25.7695 19.8073C27.0647 20.1988 28.9306 20.7643 30.8186 21.4169C30.4234 23.6356 29.3916 25.702 27.855 27.3552C28.0086 27.3552 28.1842 27.3334 28.3599 27.3334C31.4552 27.1594 38.1068 26.7896 37.9971 22.2C37.8654 18.0888 27.7232 17.197 25.0011 18.4804ZM23.1571 23.3963C23.201 23.4181 23.2449 23.4181 23.2669 23.4398C26.0109 24.7449 32.2674 32.7496 28.4696 35.8384C24.8914 38.7532 20.4789 33.8372 18.4153 31.5533C18.3056 31.4228 18.1738 31.2923 18.0641 31.1618C20.3252 31.314 22.5863 30.8355 24.584 29.7696C23.8376 27.5944 23.0473 25.615 22.5424 24.3752L22.4766 24.2011C22.4107 24.0706 22.4107 23.9184 22.4546 23.7661L22.4766 23.7443L22.4985 23.7226L22.5205 23.7008C22.5863 23.5921 22.6741 23.5268 22.7619 23.4833C22.8498 23.4398 22.9376 23.4181 23.0254 23.4181C23.0473 23.3746 23.0912 23.3963 23.1571 23.3963ZM18.2836 25.2017C18.2617 25.1147 18.2178 25.0277 18.1519 24.9625C18.108 24.8972 18.0202 24.8319 17.9324 24.8102C17.8007 24.7449 17.647 24.7449 17.5153 24.8102C17.3836 24.8537 17.2518 24.9407 17.186 25.0712C16.5274 26.2023 15.3859 28.16 14.1126 30.1829C12.0052 29.3128 10.227 27.8555 8.95374 25.9848L8.88788 26.3111L8.86593 26.4416C8.31712 29.4651 7.15363 36.0124 11.7198 36.9478C15.781 37.7308 18.8983 28.1165 18.2836 25.2017ZM13.937 22.2C13.915 22.287 13.8711 22.374 13.8053 22.4392C11.8515 24.7667 2.32405 28.3122 0.436124 24.6797C-1.64938 20.5468 4.27783 17.3275 6.95605 15.8702C7.08777 15.8049 7.21949 15.7179 7.3512 15.6526C6.69262 17.8061 6.67067 20.1118 7.26339 22.287C9.65623 22.0259 11.8954 21.6779 13.2565 21.4604C13.4101 21.4386 13.5418 21.4821 13.6736 21.5692C13.8053 21.6344 13.8931 21.7649 13.937 21.8954C13.9589 22.0042 13.9589 22.0912 13.937 22.2ZM13.1686 17.2405C13.2565 17.2623 13.3662 17.2405 13.454 17.197C13.5418 17.1535 13.6077 17.0665 13.6516 16.9795C13.7394 16.8707 13.7833 16.7185 13.7614 16.588C13.7394 16.4357 13.6736 16.3052 13.5638 16.1964C12.5979 15.3264 10.9295 13.8037 9.26108 12.1071C10.5782 10.2582 12.4223 8.84429 14.5517 8.03947L14.1565 7.8872C11.3246 6.6691 5.06813 4.03711 3.1363 8.25699C1.44594 12.0201 10.1392 17.197 13.1686 17.2405Z" fill="white"/>
</svg>
